<?xml version="1.0" encoding="UTF-8"?><svg id="Layer_1" xmlns="http://www.w3.org/2000/svg" viewBox="0 0 237.39 38.82"><defs><style>.cls-1{fill:#f04e23;}</style></defs><path class="cls-1" d="M19.44,.45c10.99,0,15.87,5.7,16.85,14.41l-13.07,1.04c-.41-4.93-1.3-6.53-3.53-6.53-2.54,0-3.68,1.71-3.68,9.96v.1c0,8.09,1.09,9.96,3.68,9.96,2.13,0,3.21-1.14,3.63-6.79l13.17,1.04c-.83,10.11-6.9,14.67-17.06,14.67C7.67,38.3,1.04,30.93,1.04,19.42v-.1C1.04,7.81,7.73,.45,19.44,.45Z"/><path class="cls-1" d="M39.41,1.22h14.36V27.15h13.74v10.37h-28.1V1.22Z"/><path class="cls-1" d="M70.99,1.22h14.36V37.52h-14.36V1.22Z"/><path class="cls-1" d="M89.29,37.52V1.22h19.29l3.47,18.61,3.47-18.61h19.03V37.52h-13.38V14.71l-4.72,22.81h-11.15l-4.67-22.71v22.71h-11.36Z"/><path class="cls-1" d="M159.13,32.02h-8.97l-1.3,5.5h-12.24L146.84,1.22h17.99l10.21,36.29h-14.62l-1.3-5.5Zm-4.46-19.29l-2.49,10.63h4.93l-2.44-10.63Z"/><path class="cls-1" d="M196.21,11.54v25.98h-14.47V11.54h-8.81V1.22h32.09V11.54h-8.81Z"/><path class="cls-1" d="M207.93,1.22h28.93V10.56h-14.57v3.89h12.13v9.18h-12.13v4.56h14.57v9.33h-28.93V1.22Z"/></svg>