<?xml version="1.0" encoding="utf-8"?>
<!-- Generator: Adobe Illustrator 26.5.0, SVG Export Plug-In . SVG Version: 6.00 Build 0)  -->
<svg version="1.1" xmlns="http://www.w3.org/2000/svg" xmlns:xlink="http://www.w3.org/1999/xlink" x="0px" y="0px"
	 viewBox="0 0 695.8 336.4" style="enable-background:new 0 0 695.8 336.4;" xml:space="preserve">
<style type="text/css">
	.st0{fill:none;stroke:#999999;}
	.st1{enable-background:new    ;}
	.st2{fill:#212121;}
	.st3{fill:none;}
	.st4{display:none;fill:#990000;fill-opacity:0.3;stroke:#FFFFFF;}
	.st5{display:none;fill:none;}
	.st6{fill:none;stroke:#F04E23;stroke-miterlimit:10;}
</style>
<g id="Layer_1">
	<path class="st0" d="M29.8,263.4h6.5v-250h-6.5"/>
	<g transform="translate(0,275.5)">
		<line class="st0" x1="35.8" y1="-12.1" x2="29.8" y2="-12.1"/>
		<g class="st1">
			<path class="st2" d="M13.5-9.3c-0.4-0.3-0.8-0.7-1-1.2c-0.2-0.5-0.4-1.2-0.4-1.9s0.1-1.4,0.4-1.9c0.2-0.5,0.6-0.9,1-1.2
				C14-15.8,14.4-16,15-16s1,0.1,1.4,0.4c0.4,0.3,0.8,0.7,1,1.2c0.2,0.5,0.4,1.2,0.4,1.9s-0.1,1.4-0.4,1.9c-0.2,0.5-0.6,0.9-1,1.2
				C16-9,15.5-8.8,15-8.8S14-9,13.5-9.3z M16.1-9.8c0.3-0.2,0.6-0.6,0.7-1s0.3-1,0.3-1.6S17-13.5,16.8-14c-0.2-0.4-0.4-0.8-0.7-1
				c-0.3-0.2-0.7-0.3-1.1-0.3s-0.8,0.1-1.1,0.3s-0.6,0.6-0.7,1c-0.2,0.4-0.3,1-0.3,1.6s0.1,1.1,0.3,1.6s0.4,0.8,0.7,1
				c0.3,0.2,0.7,0.3,1.1,0.3S15.7-9.6,16.1-9.8z"/>
			<path class="st2" d="M18.9-9c-0.1-0.1-0.2-0.2-0.2-0.4s0.1-0.3,0.2-0.4c0.1-0.1,0.2-0.2,0.4-0.2c0.1,0,0.3,0.1,0.4,0.2
				s0.2,0.2,0.2,0.4S19.7-9.1,19.6-9c-0.1,0.1-0.2,0.2-0.4,0.2C19.1-8.8,19-8.9,18.9-9z"/>
			<path class="st2" d="M22.1-9.3c-0.4-0.3-0.8-0.7-1-1.2c-0.2-0.5-0.4-1.2-0.4-1.9s0.1-1.4,0.4-1.9c0.2-0.5,0.6-0.9,1-1.2
				c0.4-0.3,0.9-0.4,1.4-0.4s1,0.1,1.4,0.4c0.4,0.3,0.8,0.7,1,1.2c0.2,0.5,0.4,1.2,0.4,1.9s-0.1,1.4-0.4,1.9c-0.2,0.5-0.6,0.9-1,1.2
				C24.5-9,24-8.8,23.5-8.8S22.5-9,22.1-9.3z M24.6-9.8c0.3-0.2,0.6-0.6,0.7-1s0.3-1,0.3-1.6s-0.1-1.1-0.3-1.6
				c-0.2-0.4-0.4-0.8-0.7-1c-0.3-0.2-0.7-0.3-1.1-0.3s-0.8,0.1-1.1,0.3s-0.6,0.6-0.7,1c-0.2,0.4-0.3,1-0.3,1.6s0.1,1.1,0.3,1.6
				s0.4,0.8,0.7,1c0.3,0.2,0.7,0.3,1.1,0.3S24.3-9.6,24.6-9.8z"/>
		</g>
	</g>
	<g transform="translate(0,250.5)">
		<line class="st0" x1="35.8" y1="-12.1" x2="29.8" y2="-12.1"/>
		<g class="st1">
			<path class="st2" d="M14.4-9.3c-0.4-0.3-0.8-0.7-1-1.2C13.2-11,13-11.7,13-12.4s0.1-1.4,0.4-1.9c0.2-0.5,0.6-0.9,1-1.2
				c0.4-0.3,0.9-0.4,1.4-0.4s1,0.1,1.4,0.4c0.4,0.3,0.8,0.7,1,1.2c0.2,0.5,0.4,1.2,0.4,1.9s-0.1,1.4-0.4,1.9c-0.2,0.5-0.6,0.9-1,1.2
				c-0.4,0.3-0.9,0.4-1.4,0.4S14.8-9,14.4-9.3z M16.9-9.8c0.3-0.2,0.6-0.6,0.7-1s0.3-1,0.3-1.6s-0.1-1.1-0.3-1.6
				c-0.2-0.4-0.4-0.8-0.7-1c-0.3-0.2-0.7-0.3-1.1-0.3s-0.8,0.1-1.1,0.3s-0.6,0.6-0.7,1c-0.2,0.4-0.3,1-0.3,1.6s0.1,1.1,0.3,1.6
				s0.4,0.8,0.7,1c0.3,0.2,0.7,0.3,1.1,0.3S16.6-9.6,16.9-9.8z"/>
			<path class="st2" d="M19.7-9c-0.1-0.1-0.2-0.2-0.2-0.4s0.1-0.3,0.2-0.4c0.1-0.1,0.2-0.2,0.4-0.2c0.1,0,0.3,0.1,0.4,0.2
				s0.2,0.2,0.2,0.4S20.6-9.1,20.5-9c-0.1,0.1-0.2,0.2-0.4,0.2C19.9-8.8,19.8-8.9,19.7-9z"/>
			<path class="st2" d="M25.7-12.5c0.5,0.4,0.7,0.9,0.7,1.5c0,0.4-0.1,0.8-0.3,1.1c-0.2,0.3-0.5,0.6-0.9,0.8s-0.8,0.3-1.4,0.3
				c-0.5,0-1-0.1-1.4-0.2c-0.5-0.2-0.8-0.4-1.1-0.7l0.3-0.6c0.2,0.2,0.5,0.4,0.9,0.6c0.4,0.2,0.8,0.2,1.2,0.2c0.6,0,1-0.1,1.3-0.4
				c0.3-0.3,0.5-0.6,0.5-1c0-0.5-0.2-0.8-0.5-1.1c-0.4-0.2-1-0.4-1.8-0.4h-1.5l0.4-3.5H26v0.6h-3.2L22.6-13h0.9
				C24.5-13,25.3-12.8,25.7-12.5z"/>
		</g>
	</g>
	<g transform="translate(0,225.5)">
		<line class="st0" x1="35.8" y1="-12.1" x2="29.8" y2="-12.1"/>
		<g class="st1">
			<path class="st2" d="M17-15.9v7h-0.7v-6.4h-1.7v-0.6H17z"/>
			<path class="st2" d="M18.9-9c-0.1-0.1-0.2-0.2-0.2-0.4s0.1-0.3,0.2-0.4c0.1-0.1,0.2-0.2,0.4-0.2c0.1,0,0.3,0.1,0.4,0.2
				s0.2,0.2,0.2,0.4S19.7-9.1,19.6-9c-0.1,0.1-0.2,0.2-0.4,0.2C19.1-8.8,19-8.9,18.9-9z"/>
			<path class="st2" d="M22.1-9.3c-0.4-0.3-0.8-0.7-1-1.2c-0.2-0.5-0.4-1.2-0.4-1.9s0.1-1.4,0.4-1.9c0.2-0.5,0.6-0.9,1-1.2
				c0.4-0.3,0.9-0.4,1.4-0.4s1,0.1,1.4,0.4c0.4,0.3,0.8,0.7,1,1.2c0.2,0.5,0.4,1.2,0.4,1.9s-0.1,1.4-0.4,1.9c-0.2,0.5-0.6,0.9-1,1.2
				C24.5-9,24-8.8,23.5-8.8S22.5-9,22.1-9.3z M24.6-9.8c0.3-0.2,0.6-0.6,0.7-1s0.3-1,0.3-1.6s-0.1-1.1-0.3-1.6
				c-0.2-0.4-0.4-0.8-0.7-1c-0.3-0.2-0.7-0.3-1.1-0.3s-0.8,0.1-1.1,0.3s-0.6,0.6-0.7,1c-0.2,0.4-0.3,1-0.3,1.6s0.1,1.1,0.3,1.6
				s0.4,0.8,0.7,1c0.3,0.2,0.7,0.3,1.1,0.3S24.3-9.6,24.6-9.8z"/>
		</g>
	</g>
	<g transform="translate(0,200.5)">
		<line class="st0" x1="35.8" y1="-12.1" x2="29.8" y2="-12.1"/>
		<g class="st1">
			<path class="st2" d="M17.9-15.9v7h-0.7v-6.4h-1.7v-0.6H17.9z"/>
			<path class="st2" d="M19.7-9c-0.1-0.1-0.2-0.2-0.2-0.4s0.1-0.3,0.2-0.4c0.1-0.1,0.2-0.2,0.4-0.2c0.1,0,0.3,0.1,0.4,0.2
				s0.2,0.2,0.2,0.4S20.6-9.1,20.5-9c-0.1,0.1-0.2,0.2-0.4,0.2C19.9-8.8,19.8-8.9,19.7-9z"/>
			<path class="st2" d="M25.7-12.5c0.5,0.4,0.7,0.9,0.7,1.5c0,0.4-0.1,0.8-0.3,1.1c-0.2,0.3-0.5,0.6-0.9,0.8s-0.8,0.3-1.4,0.3
				c-0.5,0-1-0.1-1.4-0.2c-0.5-0.2-0.8-0.4-1.1-0.7l0.3-0.6c0.2,0.2,0.5,0.4,0.9,0.6c0.4,0.2,0.8,0.2,1.2,0.2c0.6,0,1-0.1,1.3-0.4
				c0.3-0.3,0.5-0.6,0.5-1c0-0.5-0.2-0.8-0.5-1.1c-0.4-0.2-1-0.4-1.8-0.4h-1.5l0.4-3.5H26v0.6h-3.2L22.6-13h0.9
				C24.5-13,25.3-12.8,25.7-12.5z"/>
		</g>
	</g>
	<g transform="translate(0,175.5)">
		<line class="st0" x1="35.8" y1="-12.1" x2="29.8" y2="-12.1"/>
		<g class="st1">
			<path class="st2" d="M17.7-9.5v0.6h-4.9v-0.5l2.9-2.9c0.4-0.4,0.6-0.7,0.7-0.9s0.2-0.5,0.2-0.8c0-0.4-0.1-0.7-0.4-1
				c-0.3-0.2-0.7-0.3-1.2-0.3c-0.8,0-1.5,0.3-1.9,0.8L12.6-15c0.3-0.3,0.6-0.6,1-0.7c0.4-0.2,0.9-0.3,1.4-0.3c0.7,0,1.3,0.2,1.7,0.5
				c0.4,0.3,0.6,0.8,0.6,1.4c0,0.4-0.1,0.7-0.2,1c-0.2,0.3-0.5,0.7-0.9,1.1l-2.4,2.3H17.7z"/>
			<path class="st2" d="M18.9-9c-0.1-0.1-0.2-0.2-0.2-0.4s0.1-0.3,0.2-0.4c0.1-0.1,0.2-0.2,0.4-0.2c0.1,0,0.3,0.1,0.4,0.2
				s0.2,0.2,0.2,0.4S19.7-9.1,19.6-9c-0.1,0.1-0.2,0.2-0.4,0.2C19.1-8.8,19-8.9,18.9-9z"/>
			<path class="st2" d="M22.1-9.3c-0.4-0.3-0.8-0.7-1-1.2c-0.2-0.5-0.4-1.2-0.4-1.9s0.1-1.4,0.4-1.9c0.2-0.5,0.6-0.9,1-1.2
				c0.4-0.3,0.9-0.4,1.4-0.4s1,0.1,1.4,0.4c0.4,0.3,0.8,0.7,1,1.2c0.2,0.5,0.4,1.2,0.4,1.9s-0.1,1.4-0.4,1.9c-0.2,0.5-0.6,0.9-1,1.2
				C24.5-9,24-8.8,23.5-8.8S22.5-9,22.1-9.3z M24.6-9.8c0.3-0.2,0.6-0.6,0.7-1s0.3-1,0.3-1.6s-0.1-1.1-0.3-1.6
				c-0.2-0.4-0.4-0.8-0.7-1c-0.3-0.2-0.7-0.3-1.1-0.3s-0.8,0.1-1.1,0.3s-0.6,0.6-0.7,1c-0.2,0.4-0.3,1-0.3,1.6s0.1,1.1,0.3,1.6
				s0.4,0.8,0.7,1c0.3,0.2,0.7,0.3,1.1,0.3S24.3-9.6,24.6-9.8z"/>
		</g>
	</g>
	<g transform="translate(0,150.5)">
		<line class="st0" x1="35.8" y1="-12.1" x2="29.8" y2="-12.1"/>
		<g class="st1">
			<path class="st2" d="M18.5-9.5v0.6h-4.9v-0.5l2.9-2.9c0.4-0.4,0.6-0.7,0.7-0.9s0.2-0.5,0.2-0.8c0-0.4-0.1-0.7-0.4-1
				c-0.3-0.2-0.7-0.3-1.2-0.3c-0.8,0-1.5,0.3-1.9,0.8L13.4-15c0.3-0.3,0.6-0.6,1-0.7c0.4-0.2,0.9-0.3,1.4-0.3c0.7,0,1.3,0.2,1.7,0.5
				c0.4,0.3,0.6,0.8,0.6,1.4c0,0.4-0.1,0.7-0.2,1c-0.2,0.3-0.5,0.7-0.9,1.1l-2.4,2.3H18.5z"/>
			<path class="st2" d="M19.7-9c-0.1-0.1-0.2-0.2-0.2-0.4s0.1-0.3,0.2-0.4c0.1-0.1,0.2-0.2,0.4-0.2c0.1,0,0.3,0.1,0.4,0.2
				s0.2,0.2,0.2,0.4S20.6-9.1,20.5-9c-0.1,0.1-0.2,0.2-0.4,0.2C19.9-8.8,19.8-8.9,19.7-9z"/>
			<path class="st2" d="M25.7-12.5c0.5,0.4,0.7,0.9,0.7,1.5c0,0.4-0.1,0.8-0.3,1.1c-0.2,0.3-0.5,0.6-0.9,0.8s-0.8,0.3-1.4,0.3
				c-0.5,0-1-0.1-1.4-0.2c-0.5-0.2-0.8-0.4-1.1-0.7l0.3-0.6c0.2,0.2,0.5,0.4,0.9,0.6c0.4,0.2,0.8,0.2,1.2,0.2c0.6,0,1-0.1,1.3-0.4
				c0.3-0.3,0.5-0.6,0.5-1c0-0.5-0.2-0.8-0.5-1.1c-0.4-0.2-1-0.4-1.8-0.4h-1.5l0.4-3.5H26v0.6h-3.2L22.6-13h0.9
				C24.5-13,25.3-12.8,25.7-12.5z"/>
		</g>
	</g>
	<g transform="translate(0,125.5)">
		<line class="st0" x1="35.8" y1="-12.1" x2="29.8" y2="-12.1"/>
		<g class="st1">
			<path class="st2" d="M17.1-12.3c0.4,0.4,0.6,0.8,0.6,1.4c0,0.4-0.1,0.8-0.3,1.1c-0.2,0.3-0.5,0.6-0.9,0.7s-0.8,0.3-1.4,0.3
				c-0.5,0-1-0.1-1.4-0.2c-0.4-0.2-0.8-0.4-1.1-0.7l0.4-0.6c0.2,0.2,0.5,0.4,0.9,0.6c0.4,0.2,0.8,0.2,1.2,0.2c0.6,0,1-0.1,1.3-0.4
				s0.5-0.6,0.5-1c0-0.4-0.2-0.8-0.5-1c-0.3-0.2-0.8-0.4-1.4-0.4h-0.5v-0.5l1.9-2.4h-3.6v-0.6h4.5v0.5l-2,2.5
				C16.2-12.9,16.7-12.7,17.1-12.3z"/>
			<path class="st2" d="M18.9-9c-0.1-0.1-0.2-0.2-0.2-0.4s0.1-0.3,0.2-0.4c0.1-0.1,0.2-0.2,0.4-0.2c0.1,0,0.3,0.1,0.4,0.2
				s0.2,0.2,0.2,0.4S19.7-9.1,19.6-9c-0.1,0.1-0.2,0.2-0.4,0.2C19.1-8.8,19-8.9,18.9-9z"/>
			<path class="st2" d="M22.1-9.3c-0.4-0.3-0.8-0.7-1-1.2c-0.2-0.5-0.4-1.2-0.4-1.9s0.1-1.4,0.4-1.9c0.2-0.5,0.6-0.9,1-1.2
				c0.4-0.3,0.9-0.4,1.4-0.4s1,0.1,1.4,0.4c0.4,0.3,0.8,0.7,1,1.2c0.2,0.5,0.4,1.2,0.4,1.9s-0.1,1.4-0.4,1.9c-0.2,0.5-0.6,0.9-1,1.2
				C24.5-9,24-8.8,23.5-8.8S22.5-9,22.1-9.3z M24.6-9.8c0.3-0.2,0.6-0.6,0.7-1s0.3-1,0.3-1.6s-0.1-1.1-0.3-1.6
				c-0.2-0.4-0.4-0.8-0.7-1c-0.3-0.2-0.7-0.3-1.1-0.3s-0.8,0.1-1.1,0.3s-0.6,0.6-0.7,1c-0.2,0.4-0.3,1-0.3,1.6s0.1,1.1,0.3,1.6
				s0.4,0.8,0.7,1c0.3,0.2,0.7,0.3,1.1,0.3S24.3-9.6,24.6-9.8z"/>
		</g>
	</g>
	<g transform="translate(0,100.5)">
		<line class="st0" x1="35.8" y1="-12.1" x2="29.8" y2="-12.1"/>
		<g class="st1">
			<path class="st2" d="M18-12.3c0.4,0.4,0.6,0.8,0.6,1.4c0,0.4-0.1,0.8-0.3,1.1c-0.2,0.3-0.5,0.6-0.9,0.7S16.5-8.8,16-8.8
				c-0.5,0-1-0.1-1.4-0.2c-0.4-0.2-0.8-0.4-1.1-0.7l0.4-0.6c0.2,0.2,0.5,0.4,0.9,0.6c0.4,0.2,0.8,0.2,1.2,0.2c0.6,0,1-0.1,1.3-0.4
				s0.5-0.6,0.5-1c0-0.4-0.2-0.8-0.5-1c-0.3-0.2-0.8-0.4-1.4-0.4h-0.5v-0.5l1.9-2.4h-3.6v-0.6h4.5v0.5l-2,2.5
				C17-12.9,17.6-12.7,18-12.3z"/>
			<path class="st2" d="M19.7-9c-0.1-0.1-0.2-0.2-0.2-0.4s0.1-0.3,0.2-0.4c0.1-0.1,0.2-0.2,0.4-0.2c0.1,0,0.3,0.1,0.4,0.2
				s0.2,0.2,0.2,0.4S20.6-9.1,20.5-9c-0.1,0.1-0.2,0.2-0.4,0.2C19.9-8.8,19.8-8.9,19.7-9z"/>
			<path class="st2" d="M25.7-12.5c0.5,0.4,0.7,0.9,0.7,1.5c0,0.4-0.1,0.8-0.3,1.1c-0.2,0.3-0.5,0.6-0.9,0.8s-0.8,0.3-1.4,0.3
				c-0.5,0-1-0.1-1.4-0.2c-0.5-0.2-0.8-0.4-1.1-0.7l0.3-0.6c0.2,0.2,0.5,0.4,0.9,0.6c0.4,0.2,0.8,0.2,1.2,0.2c0.6,0,1-0.1,1.3-0.4
				c0.3-0.3,0.5-0.6,0.5-1c0-0.5-0.2-0.8-0.5-1.1c-0.4-0.2-1-0.4-1.8-0.4h-1.5l0.4-3.5H26v0.6h-3.2L22.6-13h0.9
				C24.5-13,25.3-12.8,25.7-12.5z"/>
		</g>
	</g>
	<g transform="translate(0,75.5)">
		<line class="st0" x1="35.8" y1="-12.1" x2="29.8" y2="-12.1"/>
		<g class="st1">
			<path class="st2" d="M17.8-10.7h-1.4v1.8h-0.7v-1.8h-4v-0.5l3.7-4.6h0.8l-3.6,4.5h3V-13h0.7v1.6h1.4V-10.7z"/>
			<path class="st2" d="M18.9-9c-0.1-0.1-0.2-0.2-0.2-0.4s0.1-0.3,0.2-0.4c0.1-0.1,0.2-0.2,0.4-0.2c0.1,0,0.3,0.1,0.4,0.2
				s0.2,0.2,0.2,0.4S19.7-9.1,19.6-9c-0.1,0.1-0.2,0.2-0.4,0.2C19.1-8.8,19-8.9,18.9-9z"/>
			<path class="st2" d="M22.1-9.3c-0.4-0.3-0.8-0.7-1-1.2c-0.2-0.5-0.4-1.2-0.4-1.9s0.1-1.4,0.4-1.9c0.2-0.5,0.6-0.9,1-1.2
				c0.4-0.3,0.9-0.4,1.4-0.4s1,0.1,1.4,0.4c0.4,0.3,0.8,0.7,1,1.2c0.2,0.5,0.4,1.2,0.4,1.9s-0.1,1.4-0.4,1.9c-0.2,0.5-0.6,0.9-1,1.2
				C24.5-9,24-8.8,23.5-8.8S22.5-9,22.1-9.3z M24.6-9.8c0.3-0.2,0.6-0.6,0.7-1s0.3-1,0.3-1.6s-0.1-1.1-0.3-1.6
				c-0.2-0.4-0.4-0.8-0.7-1c-0.3-0.2-0.7-0.3-1.1-0.3s-0.8,0.1-1.1,0.3s-0.6,0.6-0.7,1c-0.2,0.4-0.3,1-0.3,1.6s0.1,1.1,0.3,1.6
				s0.4,0.8,0.7,1c0.3,0.2,0.7,0.3,1.1,0.3S24.3-9.6,24.6-9.8z"/>
		</g>
	</g>
	<g transform="translate(0,50.5)">
		<line class="st0" x1="35.8" y1="-12.1" x2="29.8" y2="-12.1"/>
		<g class="st1">
			<path class="st2" d="M18.7-10.7h-1.4v1.8h-0.7v-1.8h-4v-0.5l3.7-4.6h0.8l-3.6,4.5h3V-13h0.7v1.6h1.4V-10.7z"/>
			<path class="st2" d="M19.7-9c-0.1-0.1-0.2-0.2-0.2-0.4s0.1-0.3,0.2-0.4c0.1-0.1,0.2-0.2,0.4-0.2c0.1,0,0.3,0.1,0.4,0.2
				s0.2,0.2,0.2,0.4S20.6-9.1,20.5-9c-0.1,0.1-0.2,0.2-0.4,0.2C19.9-8.8,19.8-8.9,19.7-9z"/>
			<path class="st2" d="M25.7-12.5c0.5,0.4,0.7,0.9,0.7,1.5c0,0.4-0.1,0.8-0.3,1.1c-0.2,0.3-0.5,0.6-0.9,0.8s-0.8,0.3-1.4,0.3
				c-0.5,0-1-0.1-1.4-0.2c-0.5-0.2-0.8-0.4-1.1-0.7l0.3-0.6c0.2,0.2,0.5,0.4,0.9,0.6c0.4,0.2,0.8,0.2,1.2,0.2c0.6,0,1-0.1,1.3-0.4
				c0.3-0.3,0.5-0.6,0.5-1c0-0.5-0.2-0.8-0.5-1.1c-0.4-0.2-1-0.4-1.8-0.4h-1.5l0.4-3.5H26v0.6h-3.2L22.6-13h0.9
				C24.5-13,25.3-12.8,25.7-12.5z"/>
		</g>
	</g>
	<g transform="translate(0,25.5)">
		<line class="st0" x1="35.8" y1="-12.1" x2="29.8" y2="-12.1"/>
		<g class="st1">
			<path class="st2" d="M17.1-12.5c0.5,0.4,0.7,0.9,0.7,1.5c0,0.4-0.1,0.8-0.3,1.1c-0.2,0.3-0.5,0.6-0.9,0.8s-0.8,0.3-1.4,0.3
				c-0.5,0-1-0.1-1.4-0.2c-0.5-0.2-0.8-0.4-1.1-0.7l0.3-0.6c0.2,0.2,0.5,0.4,0.9,0.6c0.4,0.2,0.8,0.2,1.2,0.2c0.6,0,1-0.1,1.3-0.4
				c0.3-0.3,0.5-0.6,0.5-1c0-0.5-0.2-0.8-0.5-1.1c-0.4-0.2-1-0.4-1.8-0.4h-1.5l0.4-3.5h3.8v0.6h-3.2L14-13h0.9
				C15.9-13,16.6-12.8,17.1-12.5z"/>
			<path class="st2" d="M18.9-9c-0.1-0.1-0.2-0.2-0.2-0.4s0.1-0.3,0.2-0.4c0.1-0.1,0.2-0.2,0.4-0.2c0.1,0,0.3,0.1,0.4,0.2
				s0.2,0.2,0.2,0.4S19.7-9.1,19.6-9c-0.1,0.1-0.2,0.2-0.4,0.2C19.1-8.8,19-8.9,18.9-9z"/>
			<path class="st2" d="M22.1-9.3c-0.4-0.3-0.8-0.7-1-1.2c-0.2-0.5-0.4-1.2-0.4-1.9s0.1-1.4,0.4-1.9c0.2-0.5,0.6-0.9,1-1.2
				c0.4-0.3,0.9-0.4,1.4-0.4s1,0.1,1.4,0.4c0.4,0.3,0.8,0.7,1,1.2c0.2,0.5,0.4,1.2,0.4,1.9s-0.1,1.4-0.4,1.9c-0.2,0.5-0.6,0.9-1,1.2
				C24.5-9,24-8.8,23.5-8.8S22.5-9,22.1-9.3z M24.6-9.8c0.3-0.2,0.6-0.6,0.7-1s0.3-1,0.3-1.6s-0.1-1.1-0.3-1.6
				c-0.2-0.4-0.4-0.8-0.7-1c-0.3-0.2-0.7-0.3-1.1-0.3s-0.8,0.1-1.1,0.3s-0.6,0.6-0.7,1c-0.2,0.4-0.3,1-0.3,1.6s0.1,1.1,0.3,1.6
				s0.4,0.8,0.7,1c0.3,0.2,0.7,0.3,1.1,0.3S24.3-9.6,24.6-9.8z"/>
		</g>
	</g>
	<rect x="25.8" y="12.9" pointer-events="all" class="st3" width="20" height="250"/>
	<polygon shape-rendering="crispEdges" class="st4" points="35.8,-12.1 35.8,-12.1 35.8,-12.1 	"/>
	<polygon class="st5" points="35.8,-12.1 35.8,-12.1 35.8,-12.1 	"/>
	<polygon class="st5" points="35.8,-12.1 35.8,-12.1 35.8,-12.1 	"/>
	<g class="st1">
		<path class="st2" d="M19.6,295.3v1h-6.1v-8.4h5.9v1h-4.7v2.6h4.2v1h-4.2v2.7H19.6z"/>
		<path class="st2" d="M21.4,287.4h1.2v8.9h-1.2V287.4z"/>
		<path class="st2" d="M30.4,293.5h-5.2c0.1,0.6,0.3,1,0.7,1.3c0.4,0.3,0.9,0.5,1.6,0.5c0.8,0,1.4-0.3,1.8-0.8l0.6,0.7
			c-0.3,0.3-0.6,0.6-1.1,0.8c-0.4,0.2-0.9,0.3-1.4,0.3c-0.7,0-1.3-0.1-1.8-0.4c-0.5-0.3-0.9-0.7-1.2-1.2c-0.3-0.5-0.4-1.1-0.4-1.7
			c0-0.6,0.1-1.2,0.4-1.7s0.7-0.9,1.1-1.2c0.5-0.3,1-0.4,1.6-0.4s1.1,0.1,1.6,0.4c0.5,0.3,0.8,0.7,1.1,1.2s0.4,1.1,0.4,1.7
			C30.4,293.3,30.4,293.4,30.4,293.5z M25.9,291.4c-0.4,0.3-0.6,0.8-0.7,1.3h4.1c-0.1-0.5-0.3-1-0.7-1.3c-0.4-0.3-0.8-0.5-1.4-0.5
			C26.8,290.9,26.3,291,25.9,291.4z"/>
		<path class="st2" d="M33.1,296c-0.5-0.3-0.9-0.7-1.2-1.2s-0.4-1-0.4-1.7s0.1-1.2,0.4-1.7c0.3-0.5,0.7-0.9,1.2-1.2
			c0.5-0.3,1.1-0.4,1.7-0.4c0.6,0,1.1,0.1,1.5,0.3c0.5,0.2,0.8,0.6,1.1,1l-0.9,0.6c-0.2-0.3-0.4-0.5-0.7-0.7c-0.3-0.2-0.6-0.2-1-0.2
			c-0.4,0-0.8,0.1-1.1,0.3c-0.3,0.2-0.6,0.4-0.8,0.8c-0.2,0.3-0.3,0.7-0.3,1.2c0,0.4,0.1,0.8,0.3,1.2c0.2,0.3,0.4,0.6,0.8,0.8
			s0.7,0.3,1.1,0.3c0.4,0,0.7-0.1,1-0.2c0.3-0.2,0.5-0.4,0.7-0.7l0.9,0.6c-0.2,0.4-0.6,0.8-1.1,1c-0.5,0.2-1,0.4-1.5,0.4
			C34.2,296.4,33.6,296.3,33.1,296z"/>
		<path class="st2" d="M42.6,295.9c-0.2,0.1-0.4,0.3-0.6,0.3s-0.5,0.1-0.8,0.1c-0.6,0-1.1-0.2-1.5-0.5c-0.4-0.3-0.5-0.8-0.5-1.5
			v-3.5h-1.1V290h1.1v-1.4h1.2v1.4h1.8v0.9h-1.8v3.4c0,0.3,0.1,0.6,0.3,0.8c0.2,0.2,0.4,0.3,0.7,0.3c0.4,0,0.7-0.1,0.9-0.3
			L42.6,295.9z"/>
		<path class="st2" d="M45.9,290.2c0.4-0.2,0.9-0.3,1.4-0.3v1.1c-0.1,0-0.2,0-0.3,0c-0.6,0-1.1,0.2-1.5,0.6s-0.5,0.9-0.5,1.6v3.2
			h-1.2V290h1.1v1.1C45.3,290.7,45.5,290.4,45.9,290.2z"/>
		<path class="st2" d="M48.8,288.5c-0.1-0.1-0.2-0.3-0.2-0.5s0.1-0.4,0.2-0.5c0.1-0.1,0.3-0.2,0.6-0.2s0.4,0.1,0.6,0.2
			c0.1,0.1,0.2,0.3,0.2,0.5c0,0.2-0.1,0.4-0.2,0.5c-0.1,0.1-0.3,0.2-0.6,0.2S48.9,288.7,48.8,288.5z M48.8,290h1.2v6.4h-1.2V290z"/>
		<path class="st2" d="M53.2,296c-0.5-0.3-0.9-0.7-1.2-1.2s-0.4-1-0.4-1.7s0.1-1.2,0.4-1.7c0.3-0.5,0.7-0.9,1.2-1.2
			c0.5-0.3,1.1-0.4,1.7-0.4c0.6,0,1.1,0.1,1.5,0.3c0.5,0.2,0.8,0.6,1.1,1l-0.9,0.6c-0.2-0.3-0.4-0.5-0.7-0.7c-0.3-0.2-0.6-0.2-1-0.2
			c-0.4,0-0.8,0.1-1.1,0.3c-0.3,0.2-0.6,0.4-0.8,0.8c-0.2,0.3-0.3,0.7-0.3,1.2c0,0.4,0.1,0.8,0.3,1.2c0.2,0.3,0.4,0.6,0.8,0.8
			s0.7,0.3,1.1,0.3c0.4,0,0.7-0.1,1-0.2c0.3-0.2,0.5-0.4,0.7-0.7l0.9,0.6c-0.2,0.4-0.6,0.8-1.1,1c-0.5,0.2-1,0.4-1.5,0.4
			C54.3,296.4,53.7,296.3,53.2,296z"/>
		<path class="st2" d="M63.9,295.9c-0.7-0.4-1.2-0.9-1.6-1.5c-0.4-0.7-0.6-1.4-0.6-2.2c0-0.8,0.2-1.5,0.6-2.2
			c0.4-0.7,0.9-1.2,1.6-1.5c0.7-0.4,1.4-0.6,2.3-0.6c0.7,0,1.3,0.1,1.8,0.3c0.5,0.2,1,0.5,1.4,1l-0.8,0.8c-0.6-0.7-1.4-1-2.4-1
			c-0.6,0-1.2,0.1-1.7,0.4c-0.5,0.3-0.9,0.7-1.2,1.2c-0.3,0.5-0.4,1-0.4,1.6c0,0.6,0.1,1.2,0.4,1.7c0.3,0.5,0.7,0.9,1.2,1.2
			c0.5,0.3,1.1,0.4,1.7,0.4c0.9,0,1.7-0.3,2.4-1l0.8,0.8c-0.4,0.4-0.9,0.8-1.4,1c-0.5,0.2-1.1,0.3-1.8,0.3
			C65.3,296.4,64.5,296.2,63.9,295.9z"/>
		<path class="st2" d="M75.1,290.5c0.5,0.4,0.7,1.1,0.7,1.9v3.8h-1.1v-0.8c-0.2,0.3-0.5,0.5-0.8,0.7s-0.8,0.2-1.3,0.2
			c-0.7,0-1.3-0.2-1.7-0.5c-0.4-0.3-0.6-0.8-0.6-1.4c0-0.6,0.2-1,0.6-1.4c0.4-0.3,1.1-0.5,1.9-0.5h1.8v-0.2c0-0.5-0.1-0.9-0.4-1.1
			c-0.3-0.3-0.7-0.4-1.3-0.4c-0.4,0-0.7,0.1-1.1,0.2c-0.4,0.1-0.7,0.3-0.9,0.5l-0.5-0.9c0.3-0.3,0.7-0.5,1.2-0.6s0.9-0.2,1.5-0.2
			C74,289.9,74.7,290.1,75.1,290.5z M74,295.2c0.3-0.2,0.6-0.5,0.7-0.8v-0.9h-1.8c-1,0-1.5,0.3-1.5,1c0,0.3,0.1,0.6,0.4,0.8
			c0.2,0.2,0.6,0.3,1,0.3S73.7,295.4,74,295.2z"/>
		<path class="st2" d="M80,290.2c0.4-0.2,0.9-0.3,1.4-0.3v1.1c-0.1,0-0.2,0-0.3,0c-0.6,0-1.1,0.2-1.5,0.6s-0.5,0.9-0.5,1.6v3.2H78
			V290h1.1v1.1C79.3,290.7,79.6,290.4,80,290.2z"/>
		<path class="st2" d="M83.2,296.2c-0.5-0.1-0.9-0.3-1.1-0.5l0.5-0.9c0.3,0.2,0.6,0.4,1,0.5c0.4,0.1,0.8,0.2,1.2,0.2
			c1,0,1.5-0.3,1.5-0.9c0-0.2-0.1-0.3-0.2-0.5c-0.1-0.1-0.3-0.2-0.5-0.2c-0.2-0.1-0.5-0.1-0.9-0.2c-0.5-0.1-0.9-0.2-1.3-0.3
			c-0.3-0.1-0.6-0.3-0.8-0.5s-0.3-0.6-0.3-1c0-0.6,0.2-1,0.7-1.4c0.5-0.3,1.1-0.5,1.9-0.5c0.4,0,0.8,0.1,1.3,0.2
			c0.4,0.1,0.8,0.2,1,0.4l-0.5,0.9c-0.5-0.3-1.1-0.5-1.8-0.5c-0.5,0-0.9,0.1-1.1,0.2c-0.3,0.2-0.4,0.4-0.4,0.6
			c0,0.2,0.1,0.4,0.2,0.5s0.3,0.2,0.5,0.3c0.2,0.1,0.5,0.1,0.9,0.2c0.5,0.1,0.9,0.2,1.2,0.3c0.3,0.1,0.6,0.3,0.8,0.5
			c0.2,0.2,0.3,0.6,0.3,1c0,0.6-0.2,1-0.7,1.4c-0.5,0.3-1.2,0.5-2,0.5C84.2,296.4,83.7,296.3,83.2,296.2z"/>
		<path class="st2" d="M13.7,310.5c-0.2-1-0.4-2-0.4-3.1c0-1.1,0.1-2.1,0.4-3.1c0.2-1,0.6-1.8,1.1-2.5h1.1c-0.5,0.8-0.8,1.7-1.1,2.6
			c-0.2,0.9-0.3,1.9-0.3,3c0,1.1,0.1,2.1,0.3,3c0.2,0.9,0.6,1.8,1.1,2.6h-1.1C14.3,312.3,14,311.5,13.7,310.5z"/>
		<path class="st2" d="M17.2,306.2c-0.4-0.4-0.5-1-0.5-1.7c0-0.7,0.2-1.2,0.5-1.7c0.4-0.4,0.8-0.6,1.4-0.6s1.1,0.2,1.4,0.6
			s0.5,1,0.5,1.7c0,0.7-0.2,1.2-0.5,1.7c-0.4,0.4-0.8,0.6-1.4,0.6S17.6,306.6,17.2,306.2z M19.5,305.7c0.2-0.3,0.3-0.7,0.3-1.2
			s-0.1-0.9-0.3-1.2c-0.2-0.3-0.5-0.4-0.9-0.4c-0.4,0-0.6,0.1-0.9,0.4c-0.2,0.3-0.3,0.7-0.3,1.2s0.1,0.9,0.3,1.2s0.5,0.4,0.9,0.4
			C19,306.1,19.3,306,19.5,305.7z M23.7,302.3h0.9l-5.7,8.4H18L23.7,302.3z M22.6,310.2c-0.4-0.4-0.5-1-0.5-1.7
			c0-0.7,0.2-1.2,0.5-1.7c0.4-0.4,0.8-0.6,1.4-0.6s1.1,0.2,1.4,0.6c0.4,0.4,0.5,1,0.5,1.7s-0.2,1.2-0.5,1.7
			c-0.4,0.4-0.8,0.6-1.4,0.6S22.9,310.6,22.6,310.2z M24.8,309.7c0.2-0.3,0.3-0.7,0.3-1.2s-0.1-0.9-0.3-1.2
			c-0.2-0.3-0.5-0.4-0.9-0.4c-0.4,0-0.7,0.1-0.9,0.4c-0.2,0.3-0.3,0.7-0.3,1.2s0.1,0.9,0.3,1.2s0.5,0.4,0.9,0.4
			C24.3,310.1,24.6,310,24.8,309.7z"/>
		<path class="st2" d="M36,305c0.5,0.5,0.7,1.2,0.7,2.1v3.7h-1.2v-3.5c0-0.6-0.1-1.1-0.4-1.4c-0.3-0.3-0.7-0.5-1.3-0.5
			c-0.6,0-1.1,0.2-1.5,0.5c-0.4,0.4-0.5,0.9-0.5,1.6v3.3h-1.2v-6.4h1.1v1c0.2-0.3,0.5-0.6,0.9-0.8c0.4-0.2,0.8-0.3,1.3-0.3
			C34.9,304.3,35.5,304.5,36,305z"/>
		<path class="st2" d="M44.6,307.9h-5.2c0.1,0.6,0.3,1,0.7,1.3c0.4,0.3,0.9,0.5,1.6,0.5c0.8,0,1.4-0.3,1.8-0.8l0.6,0.7
			c-0.3,0.3-0.6,0.6-1.1,0.8c-0.4,0.2-0.9,0.3-1.4,0.3c-0.7,0-1.3-0.1-1.8-0.4c-0.5-0.3-0.9-0.7-1.2-1.2c-0.3-0.5-0.4-1.1-0.4-1.7
			c0-0.6,0.1-1.2,0.4-1.7s0.7-0.9,1.1-1.2c0.5-0.3,1-0.4,1.6-0.4s1.1,0.1,1.6,0.4c0.5,0.3,0.8,0.7,1.1,1.2s0.4,1.1,0.4,1.7
			C44.7,307.7,44.6,307.8,44.6,307.9z M40.1,305.8c-0.4,0.3-0.6,0.8-0.7,1.3h4.1c-0.1-0.5-0.3-1-0.7-1.3c-0.4-0.3-0.8-0.5-1.4-0.5
			C41,305.3,40.5,305.4,40.1,305.8z"/>
		<path class="st2" d="M55.8,304.4l-2.4,6.4h-1.1l-1.8-4.8l-1.9,4.8h-1.1l-2.4-6.4h1.1l1.8,5.1l1.9-5.1h1l1.9,5.1l1.9-5.1H55.8z"/>
		<path class="st2" d="M60.5,310.6c-0.5-0.1-0.9-0.3-1.1-0.5l0.5-0.9c0.3,0.2,0.6,0.4,1,0.5c0.4,0.1,0.8,0.2,1.2,0.2
			c1,0,1.5-0.3,1.5-0.9c0-0.2-0.1-0.3-0.2-0.5c-0.1-0.1-0.3-0.2-0.5-0.2c-0.2-0.1-0.5-0.1-0.9-0.2c-0.5-0.1-0.9-0.2-1.3-0.3
			c-0.3-0.1-0.6-0.3-0.8-0.5s-0.3-0.6-0.3-1c0-0.6,0.2-1,0.7-1.4c0.5-0.3,1.1-0.5,1.9-0.5c0.4,0,0.8,0.1,1.3,0.2
			c0.4,0.1,0.8,0.2,1,0.4l-0.5,0.9c-0.5-0.3-1.1-0.5-1.8-0.5c-0.5,0-0.9,0.1-1.1,0.2c-0.3,0.2-0.4,0.4-0.4,0.6
			c0,0.2,0.1,0.4,0.2,0.5s0.3,0.2,0.5,0.3c0.2,0.1,0.5,0.1,0.9,0.2c0.5,0.1,0.9,0.2,1.2,0.3c0.3,0.1,0.6,0.3,0.8,0.5
			c0.2,0.2,0.3,0.6,0.3,1c0,0.6-0.2,1-0.7,1.4c-0.5,0.3-1.2,0.5-2,0.5C61.5,310.8,61,310.7,60.5,310.6z"/>
		<path class="st2" d="M70.5,304.9c0.5,0.4,0.7,1.1,0.7,1.9v3.8h-1.1v-0.8c-0.2,0.3-0.5,0.5-0.8,0.7s-0.8,0.2-1.3,0.2
			c-0.7,0-1.3-0.2-1.7-0.5c-0.4-0.3-0.6-0.8-0.6-1.4c0-0.6,0.2-1,0.6-1.4c0.4-0.3,1.1-0.5,1.9-0.5H70v-0.2c0-0.5-0.1-0.9-0.4-1.1
			c-0.3-0.3-0.7-0.4-1.3-0.4c-0.4,0-0.7,0.1-1.1,0.2c-0.4,0.1-0.7,0.3-0.9,0.5l-0.5-0.9c0.3-0.3,0.7-0.5,1.2-0.6s0.9-0.2,1.5-0.2
			C69.4,304.3,70,304.5,70.5,304.9z M69.4,309.6c0.3-0.2,0.6-0.5,0.7-0.8v-0.9h-1.8c-1,0-1.5,0.3-1.5,1c0,0.3,0.1,0.6,0.4,0.8
			c0.2,0.2,0.6,0.3,1,0.3S69,309.8,69.4,309.6z"/>
		<path class="st2" d="M73.3,301.8h1.2v8.9h-1.2V301.8z"/>
		<path class="st2" d="M82.4,307.9h-5.2c0.1,0.6,0.3,1,0.7,1.3c0.4,0.3,0.9,0.5,1.6,0.5c0.8,0,1.4-0.3,1.8-0.8l0.6,0.7
			c-0.3,0.3-0.6,0.6-1.1,0.8c-0.4,0.2-0.9,0.3-1.4,0.3c-0.7,0-1.3-0.1-1.8-0.4c-0.5-0.3-0.9-0.7-1.2-1.2c-0.3-0.5-0.4-1.1-0.4-1.7
			c0-0.6,0.1-1.2,0.4-1.7s0.7-0.9,1.1-1.2c0.5-0.3,1-0.4,1.6-0.4s1.1,0.1,1.6,0.4c0.5,0.3,0.8,0.7,1.1,1.2s0.4,1.1,0.4,1.7
			C82.4,307.7,82.4,307.8,82.4,307.9z M77.9,305.8c-0.4,0.3-0.6,0.8-0.7,1.3h4.1c-0.1-0.5-0.3-1-0.7-1.3c-0.4-0.3-0.8-0.5-1.4-0.5
			C78.7,305.3,78.3,305.4,77.9,305.8z"/>
		<path class="st2" d="M84.4,310.6c-0.5-0.1-0.9-0.3-1.1-0.5l0.5-0.9c0.3,0.2,0.6,0.4,1,0.5c0.4,0.1,0.8,0.2,1.2,0.2
			c1,0,1.5-0.3,1.5-0.9c0-0.2-0.1-0.3-0.2-0.5c-0.1-0.1-0.3-0.2-0.5-0.2c-0.2-0.1-0.5-0.1-0.9-0.2c-0.5-0.1-0.9-0.2-1.3-0.3
			c-0.3-0.1-0.6-0.3-0.8-0.5s-0.3-0.6-0.3-1c0-0.6,0.2-1,0.7-1.4c0.5-0.3,1.1-0.5,1.9-0.5c0.4,0,0.8,0.1,1.3,0.2
			c0.4,0.1,0.8,0.2,1,0.4l-0.5,0.9c-0.5-0.3-1.1-0.5-1.8-0.5c-0.5,0-0.9,0.1-1.1,0.2c-0.3,0.2-0.4,0.4-0.4,0.6
			c0,0.2,0.1,0.4,0.2,0.5s0.3,0.2,0.5,0.3c0.2,0.1,0.5,0.1,0.9,0.2c0.5,0.1,0.9,0.2,1.2,0.3c0.3,0.1,0.6,0.3,0.8,0.5
			c0.2,0.2,0.3,0.6,0.3,1c0,0.6-0.2,1-0.7,1.4c-0.5,0.3-1.2,0.5-2,0.5C85.3,310.8,84.8,310.7,84.4,310.6z"/>
		<path class="st2" d="M89.3,313c0.5-0.8,0.8-1.7,1.1-2.6c0.2-0.9,0.3-1.9,0.3-3c0-1.1-0.1-2.1-0.3-3s-0.6-1.8-1.1-2.6h1.1
			c0.5,0.7,0.8,1.6,1.1,2.5s0.4,2,0.4,3.1c0,1.1-0.1,2.1-0.4,3.1s-0.6,1.8-1.1,2.5H89.3z"/>
	</g>
	<path class="st0" d="M246.5,263.4h6.5v-250h-6.5"/>
	<g transform="translate(0,275.5)">
		<line class="st0" x1="252.5" y1="-12.1" x2="246.5" y2="-12.1"/>
		<g class="st1">
			<path class="st2" d="M238.7-9.3c-0.4-0.3-0.8-0.7-1-1.2c-0.2-0.5-0.4-1.2-0.4-1.9s0.1-1.4,0.4-1.9c0.2-0.5,0.6-0.9,1-1.2
				c0.4-0.3,0.9-0.4,1.4-0.4s1,0.1,1.4,0.4c0.4,0.3,0.8,0.7,1,1.2c0.2,0.5,0.4,1.2,0.4,1.9s-0.1,1.4-0.4,1.9c-0.2,0.5-0.6,0.9-1,1.2
				c-0.4,0.3-0.9,0.4-1.4,0.4S239.1-9,238.7-9.3z M241.2-9.8c0.3-0.2,0.6-0.6,0.7-1s0.3-1,0.3-1.6s-0.1-1.1-0.3-1.6
				c-0.2-0.4-0.4-0.8-0.7-1c-0.3-0.2-0.7-0.3-1.1-0.3s-0.8,0.1-1.1,0.3s-0.6,0.6-0.7,1c-0.2,0.4-0.3,1-0.3,1.6s0.1,1.1,0.3,1.6
				s0.4,0.8,0.7,1c0.3,0.2,0.7,0.3,1.1,0.3S240.9-9.6,241.2-9.8z"/>
		</g>
	</g>
	<g transform="translate(0,244.25)">
		<line class="st0" x1="252.5" y1="-12.1" x2="246.5" y2="-12.1"/>
		<g class="st1">
			<path class="st2" d="M242.4-12.5c0.5,0.4,0.7,0.9,0.7,1.5c0,0.4-0.1,0.8-0.3,1.1c-0.2,0.3-0.5,0.6-0.9,0.8s-0.8,0.3-1.4,0.3
				c-0.5,0-1-0.1-1.4-0.2c-0.5-0.2-0.8-0.4-1.1-0.7l0.3-0.6c0.2,0.2,0.5,0.4,0.9,0.6c0.4,0.2,0.8,0.2,1.2,0.2c0.6,0,1-0.1,1.3-0.4
				c0.3-0.3,0.5-0.6,0.5-1c0-0.5-0.2-0.8-0.5-1.1c-0.4-0.2-1-0.4-1.8-0.4h-1.5l0.4-3.5h3.8v0.6h-3.2l-0.2,2.2h0.9
				C241.2-13,241.9-12.8,242.4-12.5z"/>
		</g>
	</g>
	<g transform="translate(0,213)">
		<line class="st0" x1="252.5" y1="-12.1" x2="246.5" y2="-12.1"/>
		<g class="st1">
			<path class="st2" d="M235.7-15.9v7H235v-6.4h-1.7v-0.6H235.7z"/>
			<path class="st2" d="M238.7-9.3c-0.4-0.3-0.8-0.7-1-1.2c-0.2-0.5-0.4-1.2-0.4-1.9s0.1-1.4,0.4-1.9c0.2-0.5,0.6-0.9,1-1.2
				c0.4-0.3,0.9-0.4,1.4-0.4s1,0.1,1.4,0.4c0.4,0.3,0.8,0.7,1,1.2c0.2,0.5,0.4,1.2,0.4,1.9s-0.1,1.4-0.4,1.9c-0.2,0.5-0.6,0.9-1,1.2
				c-0.4,0.3-0.9,0.4-1.4,0.4S239.1-9,238.7-9.3z M241.2-9.8c0.3-0.2,0.6-0.6,0.7-1s0.3-1,0.3-1.6s-0.1-1.1-0.3-1.6
				c-0.2-0.4-0.4-0.8-0.7-1c-0.3-0.2-0.7-0.3-1.1-0.3s-0.8,0.1-1.1,0.3s-0.6,0.6-0.7,1c-0.2,0.4-0.3,1-0.3,1.6s0.1,1.1,0.3,1.6
				s0.4,0.8,0.7,1c0.3,0.2,0.7,0.3,1.1,0.3S240.9-9.6,241.2-9.8z"/>
		</g>
	</g>
	<g transform="translate(0,181.75)">
		<line class="st0" x1="252.5" y1="-12.1" x2="246.5" y2="-12.1"/>
		<g class="st1">
			<path class="st2" d="M236.7-15.9v7h-0.7v-6.4h-1.7v-0.6H236.7z"/>
			<path class="st2" d="M242.4-12.5c0.5,0.4,0.7,0.9,0.7,1.5c0,0.4-0.1,0.8-0.3,1.1c-0.2,0.3-0.5,0.6-0.9,0.8s-0.8,0.3-1.4,0.3
				c-0.5,0-1-0.1-1.4-0.2c-0.5-0.2-0.8-0.4-1.1-0.7l0.3-0.6c0.2,0.2,0.5,0.4,0.9,0.6c0.4,0.2,0.8,0.2,1.2,0.2c0.6,0,1-0.1,1.3-0.4
				c0.3-0.3,0.5-0.6,0.5-1c0-0.5-0.2-0.8-0.5-1.1c-0.4-0.2-1-0.4-1.8-0.4h-1.5l0.4-3.5h3.8v0.6h-3.2l-0.2,2.2h0.9
				C241.2-13,241.9-12.8,242.4-12.5z"/>
		</g>
	</g>
	<g transform="translate(0,150.5)">
		<line class="st0" x1="252.5" y1="-12.1" x2="246.5" y2="-12.1"/>
		<g class="st1">
			<path class="st2" d="M236.5-9.5v0.6h-4.9v-0.5l2.9-2.9c0.4-0.4,0.6-0.7,0.7-0.9s0.2-0.5,0.2-0.8c0-0.4-0.1-0.7-0.4-1
				c-0.3-0.2-0.7-0.3-1.2-0.3c-0.8,0-1.5,0.3-1.9,0.8l-0.5-0.4c0.3-0.3,0.6-0.6,1-0.7c0.4-0.2,0.9-0.3,1.4-0.3
				c0.7,0,1.3,0.2,1.7,0.5c0.4,0.3,0.6,0.8,0.6,1.4c0,0.4-0.1,0.7-0.2,1c-0.2,0.3-0.5,0.7-0.9,1.1l-2.4,2.3H236.5z"/>
			<path class="st2" d="M238.7-9.3c-0.4-0.3-0.8-0.7-1-1.2c-0.2-0.5-0.4-1.2-0.4-1.9c0-0.7,0.1-1.4,0.4-1.9c0.2-0.5,0.6-0.9,1-1.2
				c0.4-0.3,0.9-0.4,1.4-0.4s1,0.1,1.4,0.4c0.4,0.3,0.8,0.7,1,1.2c0.2,0.5,0.4,1.2,0.4,1.9c0,0.7-0.1,1.4-0.4,1.9
				c-0.2,0.5-0.6,0.9-1,1.2c-0.4,0.3-0.9,0.4-1.4,0.4S239.1-9,238.7-9.3z M241.2-9.8c0.3-0.2,0.6-0.6,0.7-1s0.3-1,0.3-1.6
				s-0.1-1.1-0.3-1.6c-0.2-0.4-0.4-0.8-0.7-1c-0.3-0.2-0.7-0.3-1.1-0.3s-0.8,0.1-1.1,0.3s-0.6,0.6-0.7,1c-0.2,0.4-0.3,1-0.3,1.6
				s0.1,1.1,0.3,1.6s0.4,0.8,0.7,1c0.3,0.2,0.7,0.3,1.1,0.3S240.9-9.6,241.2-9.8z"/>
		</g>
	</g>
	<g transform="translate(0,119.25)">
		<line class="st0" x1="252.5" y1="-12.1" x2="246.5" y2="-12.1"/>
		<g class="st1">
			<path class="st2" d="M237.4-9.5v0.6h-4.9v-0.5l2.9-2.9c0.4-0.4,0.6-0.7,0.7-0.9s0.2-0.5,0.2-0.8c0-0.4-0.1-0.7-0.4-1
				c-0.3-0.2-0.7-0.3-1.2-0.3c-0.8,0-1.5,0.3-1.9,0.8l-0.5-0.4c0.3-0.3,0.6-0.6,1-0.7c0.4-0.2,0.9-0.3,1.4-0.3
				c0.7,0,1.3,0.2,1.7,0.5c0.4,0.3,0.6,0.8,0.6,1.4c0,0.4-0.1,0.7-0.2,1c-0.2,0.3-0.5,0.7-0.9,1.1l-2.4,2.3H237.4z"/>
			<path class="st2" d="M242.4-12.5c0.5,0.4,0.7,0.9,0.7,1.5c0,0.4-0.1,0.8-0.3,1.1c-0.2,0.3-0.5,0.6-0.9,0.8s-0.8,0.3-1.4,0.3
				c-0.5,0-1-0.1-1.4-0.2c-0.5-0.2-0.8-0.4-1.1-0.7l0.3-0.6c0.2,0.2,0.5,0.4,0.9,0.6c0.4,0.2,0.8,0.2,1.2,0.2c0.6,0,1-0.1,1.3-0.4
				c0.3-0.3,0.5-0.6,0.5-1c0-0.5-0.2-0.8-0.5-1.1c-0.4-0.2-1-0.4-1.8-0.4h-1.5l0.4-3.5h3.8v0.6h-3.2l-0.2,2.2h0.9
				C241.2-13,241.9-12.8,242.4-12.5z"/>
		</g>
	</g>
	<g transform="translate(0,88)">
		<line class="st0" x1="252.5" y1="-12.1" x2="246.5" y2="-12.1"/>
		<g class="st1">
			<path class="st2" d="M235.8-12.3c0.4,0.4,0.6,0.8,0.6,1.4c0,0.4-0.1,0.8-0.3,1.1c-0.2,0.3-0.5,0.6-0.9,0.7s-0.8,0.3-1.4,0.3
				c-0.5,0-1-0.1-1.4-0.2c-0.4-0.2-0.8-0.4-1.1-0.7l0.4-0.6c0.2,0.2,0.5,0.4,0.9,0.6c0.4,0.2,0.8,0.2,1.2,0.2c0.6,0,1-0.1,1.3-0.4
				s0.5-0.6,0.5-1c0-0.4-0.2-0.8-0.5-1c-0.3-0.2-0.8-0.4-1.4-0.4h-0.5v-0.5l1.9-2.4h-3.6v-0.6h4.5v0.5l-2,2.5
				C234.8-12.9,235.4-12.7,235.8-12.3z"/>
			<path class="st2" d="M238.7-9.3c-0.4-0.3-0.8-0.7-1-1.2c-0.2-0.5-0.4-1.2-0.4-1.9s0.1-1.4,0.4-1.9c0.2-0.5,0.6-0.9,1-1.2
				c0.4-0.3,0.9-0.4,1.4-0.4s1,0.1,1.4,0.4c0.4,0.3,0.8,0.7,1,1.2c0.2,0.5,0.4,1.2,0.4,1.9s-0.1,1.4-0.4,1.9c-0.2,0.5-0.6,0.9-1,1.2
				c-0.4,0.3-0.9,0.4-1.4,0.4S239.1-9,238.7-9.3z M241.2-9.8c0.3-0.2,0.6-0.6,0.7-1s0.3-1,0.3-1.6s-0.1-1.1-0.3-1.6
				c-0.2-0.4-0.4-0.8-0.7-1c-0.3-0.2-0.7-0.3-1.1-0.3s-0.8,0.1-1.1,0.3s-0.6,0.6-0.7,1c-0.2,0.4-0.3,1-0.3,1.6s0.1,1.1,0.3,1.6
				s0.4,0.8,0.7,1c0.3,0.2,0.7,0.3,1.1,0.3S240.9-9.6,241.2-9.8z"/>
		</g>
	</g>
	<g transform="translate(0,56.75)">
		<line class="st0" x1="252.5" y1="-12.1" x2="246.5" y2="-12.1"/>
		<g class="st1">
			<path class="st2" d="M236.9-12.3c0.4,0.4,0.6,0.8,0.6,1.4c0,0.4-0.1,0.8-0.3,1.1c-0.2,0.3-0.5,0.6-0.9,0.7s-0.8,0.3-1.4,0.3
				c-0.5,0-1-0.1-1.4-0.2c-0.4-0.2-0.8-0.4-1.1-0.7l0.4-0.6c0.2,0.2,0.5,0.4,0.9,0.6c0.4,0.2,0.8,0.2,1.2,0.2c0.6,0,1-0.1,1.3-0.4
				s0.5-0.6,0.5-1c0-0.4-0.2-0.8-0.5-1c-0.3-0.2-0.8-0.4-1.4-0.4h-0.5v-0.5l1.9-2.4h-3.6v-0.6h4.5v0.5l-2,2.5
				C235.9-12.9,236.5-12.7,236.9-12.3z"/>
			<path class="st2" d="M242.4-12.5c0.5,0.4,0.7,0.9,0.7,1.5c0,0.4-0.1,0.8-0.3,1.1c-0.2,0.3-0.5,0.6-0.9,0.8s-0.8,0.3-1.4,0.3
				c-0.5,0-1-0.1-1.4-0.2c-0.5-0.2-0.8-0.4-1.1-0.7l0.3-0.6c0.2,0.2,0.5,0.4,0.9,0.6c0.4,0.2,0.8,0.2,1.2,0.2c0.6,0,1-0.1,1.3-0.4
				c0.3-0.3,0.5-0.6,0.5-1c0-0.5-0.2-0.8-0.5-1.1c-0.4-0.2-1-0.4-1.8-0.4h-1.5l0.4-3.5h3.8v0.6h-3.2l-0.2,2.2h0.9
				C241.2-13,241.9-12.8,242.4-12.5z"/>
		</g>
	</g>
	<g transform="translate(0,25.5)">
		<line class="st0" x1="252.5" y1="-12.1" x2="246.5" y2="-12.1"/>
		<g class="st1">
			<path class="st2" d="M236.7-10.7h-1.4v1.8h-0.7v-1.8h-4v-0.5l3.7-4.6h0.8l-3.6,4.5h3V-13h0.7v1.6h1.4V-10.7z"/>
			<path class="st2" d="M238.7-9.3c-0.4-0.3-0.8-0.7-1-1.2c-0.2-0.5-0.4-1.2-0.4-1.9s0.1-1.4,0.4-1.9c0.2-0.5,0.6-0.9,1-1.2
				c0.4-0.3,0.9-0.4,1.4-0.4s1,0.1,1.4,0.4c0.4,0.3,0.8,0.7,1,1.2c0.2,0.5,0.4,1.2,0.4,1.9s-0.1,1.4-0.4,1.9c-0.2,0.5-0.6,0.9-1,1.2
				c-0.4,0.3-0.9,0.4-1.4,0.4S239.1-9,238.7-9.3z M241.2-9.8c0.3-0.2,0.6-0.6,0.7-1s0.3-1,0.3-1.6s-0.1-1.1-0.3-1.6
				c-0.2-0.4-0.4-0.8-0.7-1c-0.3-0.2-0.7-0.3-1.1-0.3s-0.8,0.1-1.1,0.3s-0.6,0.6-0.7,1c-0.2,0.4-0.3,1-0.3,1.6s0.1,1.1,0.3,1.6
				s0.4,0.8,0.7,1c0.3,0.2,0.7,0.3,1.1,0.3S240.9-9.6,241.2-9.8z"/>
		</g>
	</g>
	<rect x="242.5" y="12.9" pointer-events="all" class="st3" width="20" height="250"/>
	<polygon shape-rendering="crispEdges" class="st4" points="252.5,-12.1 252.5,-12.1 252.5,-12.1 	"/>
	<polygon class="st5" points="252.5,-12.1 252.5,-12.1 252.5,-12.1 	"/>
	<polygon class="st5" points="252.5,-12.1 252.5,-12.1 252.5,-12.1 	"/>
	<g class="st1">
		<path class="st2" d="M235.5,287.9h3.5c0.9,0,1.7,0.2,2.4,0.5c0.7,0.4,1.2,0.8,1.6,1.5c0.4,0.6,0.6,1.4,0.6,2.2
			c0,0.8-0.2,1.6-0.6,2.2c-0.4,0.6-0.9,1.1-1.6,1.5c-0.7,0.4-1.5,0.5-2.4,0.5h-3.5V287.9z M238.9,295.3c0.7,0,1.3-0.1,1.8-0.4
			c0.5-0.3,0.9-0.6,1.2-1.1c0.3-0.5,0.4-1,0.4-1.7s-0.1-1.2-0.4-1.6c-0.3-0.5-0.7-0.8-1.2-1.1s-1.1-0.4-1.8-0.4h-2.3v6.3H238.9z"/>
		<path class="st2" d="M250.9,293.5h-5.2c0.1,0.6,0.3,1,0.7,1.3c0.4,0.3,0.9,0.5,1.6,0.5c0.8,0,1.4-0.3,1.8-0.8l0.6,0.7
			c-0.3,0.3-0.6,0.6-1.1,0.8c-0.4,0.2-0.9,0.3-1.4,0.3c-0.7,0-1.3-0.1-1.8-0.4c-0.5-0.3-0.9-0.7-1.2-1.2c-0.3-0.5-0.4-1.1-0.4-1.7
			c0-0.6,0.1-1.2,0.4-1.7s0.7-0.9,1.1-1.2c0.5-0.3,1-0.4,1.6-0.4s1.1,0.1,1.6,0.4c0.5,0.3,0.8,0.7,1.1,1.2s0.4,1.1,0.4,1.7
			C251,293.3,251,293.4,250.9,293.5z M246.4,291.4c-0.4,0.3-0.6,0.8-0.7,1.3h4.1c-0.1-0.5-0.3-1-0.7-1.3c-0.4-0.3-0.8-0.5-1.4-0.5
			C247.3,290.9,246.8,291,246.4,291.4z"/>
		<path class="st2" d="M253.9,289.4v0.6h1.8v0.9h-1.8v5.4h-1.2v-5.4h-1.1V290h1.1v-0.6c0-0.6,0.2-1.1,0.6-1.5
			c0.4-0.4,0.9-0.6,1.5-0.6c0.3,0,0.5,0,0.7,0.1c0.2,0.1,0.4,0.2,0.6,0.3l-0.3,0.9c-0.3-0.2-0.6-0.3-0.9-0.3
			C254.2,288.3,253.9,288.7,253.9,289.4z"/>
		<path class="st2" d="M257.7,296c-0.5-0.3-0.9-0.7-1.2-1.2c-0.3-0.5-0.4-1-0.4-1.7s0.1-1.2,0.4-1.7c0.3-0.5,0.7-0.9,1.2-1.2
			c0.5-0.3,1.1-0.4,1.7-0.4s1.2,0.1,1.7,0.4c0.5,0.3,0.9,0.7,1.2,1.2c0.3,0.5,0.4,1,0.4,1.7s-0.1,1.2-0.4,1.7
			c-0.3,0.5-0.7,0.9-1.2,1.2c-0.5,0.3-1.1,0.4-1.7,0.4S258.2,296.3,257.7,296z M260.5,295.1c0.3-0.2,0.6-0.5,0.8-0.8
			s0.3-0.7,0.3-1.2c0-0.4-0.1-0.8-0.3-1.2s-0.4-0.6-0.8-0.8c-0.3-0.2-0.7-0.3-1.1-0.3c-0.4,0-0.8,0.1-1.1,0.3
			c-0.3,0.2-0.6,0.4-0.8,0.8c-0.2,0.3-0.3,0.7-0.3,1.2c0,0.4,0.1,0.8,0.3,1.2c0.2,0.3,0.4,0.6,0.8,0.8c0.3,0.2,0.7,0.3,1.1,0.3
			C259.8,295.4,260.2,295.3,260.5,295.1z"/>
		<path class="st2" d="M266.3,290.2c0.4-0.2,0.9-0.3,1.4-0.3v1.1c-0.1,0-0.2,0-0.3,0c-0.6,0-1.1,0.2-1.5,0.6s-0.5,0.9-0.5,1.6v3.2
			h-1.2V290h1.1v1.1C265.6,290.7,265.9,290.4,266.3,290.2z"/>
		<path class="st2" d="M274.8,293.5h-5.2c0.1,0.6,0.3,1,0.7,1.3c0.4,0.3,0.9,0.5,1.6,0.5c0.8,0,1.4-0.3,1.8-0.8l0.6,0.7
			c-0.3,0.3-0.6,0.6-1.1,0.8c-0.4,0.2-0.9,0.3-1.4,0.3c-0.7,0-1.3-0.1-1.8-0.4c-0.5-0.3-0.9-0.7-1.2-1.2c-0.3-0.5-0.4-1.1-0.4-1.7
			c0-0.6,0.1-1.2,0.4-1.7s0.7-0.9,1.1-1.2c0.5-0.3,1-0.4,1.6-0.4s1.1,0.1,1.6,0.4c0.5,0.3,0.8,0.7,1.1,1.2s0.4,1.1,0.4,1.7
			C274.8,293.3,274.8,293.4,274.8,293.5z M270.3,291.4c-0.4,0.3-0.6,0.8-0.7,1.3h4.1c-0.1-0.5-0.3-1-0.7-1.3
			c-0.4-0.3-0.8-0.5-1.4-0.5C271.1,290.9,270.7,291,270.3,291.4z"/>
		<path class="st2" d="M276.8,296.2c-0.5-0.1-0.9-0.3-1.1-0.5l0.5-0.9c0.3,0.2,0.6,0.4,1,0.5c0.4,0.1,0.8,0.2,1.2,0.2
			c1,0,1.5-0.3,1.5-0.9c0-0.2-0.1-0.3-0.2-0.5c-0.1-0.1-0.3-0.2-0.5-0.2c-0.2-0.1-0.5-0.1-0.9-0.2c-0.5-0.1-0.9-0.2-1.3-0.3
			c-0.3-0.1-0.6-0.3-0.8-0.5s-0.3-0.6-0.3-1c0-0.6,0.2-1,0.7-1.4c0.5-0.3,1.1-0.5,1.9-0.5c0.4,0,0.8,0.1,1.3,0.2
			c0.4,0.1,0.8,0.2,1,0.4l-0.5,0.9c-0.5-0.3-1.1-0.5-1.8-0.5c-0.5,0-0.9,0.1-1.1,0.2c-0.3,0.2-0.4,0.4-0.4,0.6
			c0,0.2,0.1,0.4,0.2,0.5s0.3,0.2,0.5,0.3c0.2,0.1,0.5,0.1,0.9,0.2c0.5,0.1,0.9,0.2,1.2,0.3c0.3,0.1,0.6,0.3,0.8,0.5
			c0.2,0.2,0.3,0.6,0.3,1c0,0.6-0.2,1-0.7,1.4c-0.5,0.3-1.2,0.5-2,0.5C277.7,296.4,277.2,296.3,276.8,296.2z"/>
		<path class="st2" d="M286,295.9c-0.2,0.1-0.4,0.3-0.6,0.3s-0.5,0.1-0.8,0.1c-0.6,0-1.1-0.2-1.5-0.5c-0.4-0.3-0.5-0.8-0.5-1.5v-3.5
			h-1.1V290h1.1v-1.4h1.2v1.4h1.8v0.9h-1.8v3.4c0,0.3,0.1,0.6,0.3,0.8c0.2,0.2,0.4,0.3,0.7,0.3c0.4,0,0.7-0.1,0.9-0.3L286,295.9z"/>
		<path class="st2" d="M291.8,290.5c0.5,0.4,0.7,1.1,0.7,1.9v3.8h-1.1v-0.8c-0.2,0.3-0.5,0.5-0.8,0.7s-0.8,0.2-1.3,0.2
			c-0.7,0-1.3-0.2-1.7-0.5c-0.4-0.3-0.6-0.8-0.6-1.4c0-0.6,0.2-1,0.6-1.4c0.4-0.3,1.1-0.5,1.9-0.5h1.8v-0.2c0-0.5-0.1-0.9-0.4-1.1
			c-0.3-0.3-0.7-0.4-1.3-0.4c-0.4,0-0.7,0.1-1.1,0.2c-0.4,0.1-0.7,0.3-0.9,0.5l-0.5-0.9c0.3-0.3,0.7-0.5,1.2-0.6s0.9-0.2,1.5-0.2
			C290.6,289.9,291.3,290.1,291.8,290.5z M290.6,295.2c0.3-0.2,0.6-0.5,0.7-0.8v-0.9h-1.8c-1,0-1.5,0.3-1.5,1c0,0.3,0.1,0.6,0.4,0.8
			c0.2,0.2,0.6,0.3,1,0.3S290.3,295.4,290.6,295.2z"/>
		<path class="st2" d="M298.2,295.9c-0.2,0.1-0.4,0.3-0.6,0.3s-0.5,0.1-0.8,0.1c-0.6,0-1.1-0.2-1.5-0.5c-0.4-0.3-0.5-0.8-0.5-1.5
			v-3.5h-1.1V290h1.1v-1.4h1.2v1.4h1.8v0.9h-1.8v3.4c0,0.3,0.1,0.6,0.3,0.8c0.2,0.2,0.4,0.3,0.7,0.3c0.4,0,0.7-0.1,0.9-0.3
			L298.2,295.9z"/>
		<path class="st2" d="M299.6,288.5c-0.1-0.1-0.2-0.3-0.2-0.5s0.1-0.4,0.2-0.5c0.1-0.1,0.3-0.2,0.6-0.2s0.4,0.1,0.6,0.2
			c0.1,0.1,0.2,0.3,0.2,0.5c0,0.2-0.1,0.4-0.2,0.5c-0.1,0.1-0.3,0.2-0.6,0.2S299.7,288.7,299.6,288.5z M299.6,290h1.2v6.4h-1.2V290z
			"/>
		<path class="st2" d="M303.9,296c-0.5-0.3-0.9-0.7-1.2-1.2c-0.3-0.5-0.4-1-0.4-1.7s0.1-1.2,0.4-1.7c0.3-0.5,0.7-0.9,1.2-1.2
			c0.5-0.3,1.1-0.4,1.7-0.4s1.2,0.1,1.7,0.4c0.5,0.3,0.9,0.7,1.2,1.2c0.3,0.5,0.4,1,0.4,1.7s-0.1,1.2-0.4,1.7
			c-0.3,0.5-0.7,0.9-1.2,1.2c-0.5,0.3-1.1,0.4-1.7,0.4S304.4,296.3,303.9,296z M306.7,295.1c0.3-0.2,0.6-0.5,0.8-0.8
			s0.3-0.7,0.3-1.2c0-0.4-0.1-0.8-0.3-1.2s-0.4-0.6-0.8-0.8c-0.3-0.2-0.7-0.3-1.1-0.3c-0.4,0-0.8,0.1-1.1,0.3
			c-0.3,0.2-0.6,0.4-0.8,0.8c-0.2,0.3-0.3,0.7-0.3,1.2c0,0.4,0.1,0.8,0.3,1.2c0.2,0.3,0.4,0.6,0.8,0.8c0.3,0.2,0.7,0.3,1.1,0.3
			C306,295.4,306.4,295.3,306.7,295.1z"/>
		<path class="st2" d="M315.8,290.6c0.5,0.5,0.7,1.2,0.7,2.1v3.7h-1.2v-3.5c0-0.6-0.1-1.1-0.4-1.4c-0.3-0.3-0.7-0.5-1.3-0.5
			c-0.6,0-1.1,0.2-1.5,0.5c-0.4,0.4-0.5,0.9-0.5,1.6v3.3h-1.2V290h1.1v1c0.2-0.3,0.5-0.6,0.9-0.8c0.4-0.2,0.8-0.3,1.3-0.3
			C314.7,289.9,315.4,290.1,315.8,290.6z"/>
		<path class="st2" d="M235.7,310.5c-0.2-1-0.4-2-0.4-3.1c0-1.1,0.1-2.1,0.4-3.1c0.2-1,0.6-1.8,1.1-2.5h1.1
			c-0.5,0.8-0.8,1.7-1.1,2.6c-0.2,0.9-0.3,1.9-0.3,3c0,1.1,0.1,2.1,0.3,3c0.2,0.9,0.6,1.8,1.1,2.6h-1.1
			C236.3,312.3,236,311.5,235.7,310.5z"/>
		<path class="st2" d="M239.2,306.2c-0.4-0.4-0.5-1-0.5-1.7c0-0.7,0.2-1.2,0.5-1.7c0.4-0.4,0.8-0.6,1.4-0.6s1.1,0.2,1.4,0.6
			s0.5,1,0.5,1.7c0,0.7-0.2,1.2-0.5,1.7c-0.4,0.4-0.8,0.6-1.4,0.6S239.6,306.6,239.2,306.2z M241.5,305.7c0.2-0.3,0.3-0.7,0.3-1.2
			s-0.1-0.9-0.3-1.2c-0.2-0.3-0.5-0.4-0.9-0.4c-0.4,0-0.6,0.1-0.9,0.4c-0.2,0.3-0.3,0.7-0.3,1.2s0.1,0.9,0.3,1.2s0.5,0.4,0.9,0.4
			C241,306.1,241.3,306,241.5,305.7z M245.7,302.3h0.9l-5.7,8.4H240L245.7,302.3z M244.6,310.2c-0.4-0.4-0.5-1-0.5-1.7
			c0-0.7,0.2-1.2,0.5-1.7c0.4-0.4,0.8-0.6,1.4-0.6s1.1,0.2,1.4,0.6c0.4,0.4,0.5,1,0.5,1.7s-0.2,1.2-0.5,1.7
			c-0.4,0.4-0.8,0.6-1.4,0.6S244.9,310.6,244.6,310.2z M246.8,309.7c0.2-0.3,0.3-0.7,0.3-1.2s-0.1-0.9-0.3-1.2
			c-0.2-0.3-0.5-0.4-0.9-0.4c-0.4,0-0.7,0.1-0.9,0.4c-0.2,0.3-0.3,0.7-0.3,1.2s0.1,0.9,0.3,1.2s0.5,0.4,0.9,0.4
			C246.3,310.1,246.6,310,246.8,309.7z"/>
		<path class="st2" d="M252.7,301.8h1.2v8.9h-1.2V301.8z"/>
		<path class="st2" d="M260.4,304.9c0.5,0.4,0.7,1.1,0.7,1.9v3.8H260v-0.8c-0.2,0.3-0.5,0.5-0.8,0.7s-0.8,0.2-1.3,0.2
			c-0.7,0-1.3-0.2-1.7-0.5c-0.4-0.3-0.6-0.8-0.6-1.4c0-0.6,0.2-1,0.6-1.4c0.4-0.3,1.1-0.5,1.9-0.5h1.8v-0.2c0-0.5-0.1-0.9-0.4-1.1
			c-0.3-0.3-0.7-0.4-1.3-0.4c-0.4,0-0.7,0.1-1.1,0.2c-0.4,0.1-0.7,0.3-0.9,0.5l-0.5-0.9c0.3-0.3,0.7-0.5,1.2-0.6s0.9-0.2,1.5-0.2
			C259.2,304.3,259.9,304.5,260.4,304.9z M259.2,309.6c0.3-0.2,0.6-0.5,0.7-0.8v-0.9h-1.8c-1,0-1.5,0.3-1.5,1c0,0.3,0.1,0.6,0.4,0.8
			c0.2,0.2,0.6,0.3,1,0.3S258.9,309.8,259.2,309.6z"/>
		<path class="st2" d="M268.5,305c0.5,0.5,0.7,1.2,0.7,2.1v3.7h-1.2v-3.5c0-0.6-0.1-1.1-0.4-1.4c-0.3-0.3-0.7-0.5-1.3-0.5
			c-0.6,0-1.1,0.2-1.5,0.5c-0.4,0.4-0.5,0.9-0.5,1.6v3.3h-1.2v-6.4h1.1v1c0.2-0.3,0.5-0.6,0.9-0.8c0.4-0.2,0.8-0.3,1.3-0.3
			C267.4,304.3,268.1,304.5,268.5,305z"/>
		<path class="st2" d="M277.4,301.8v8.9h-1.1v-1c-0.3,0.4-0.6,0.6-1,0.8c-0.4,0.2-0.8,0.3-1.3,0.3c-0.6,0-1.2-0.1-1.7-0.4
			c-0.5-0.3-0.9-0.7-1.1-1.1c-0.3-0.5-0.4-1.1-0.4-1.7c0-0.6,0.1-1.2,0.4-1.7s0.7-0.9,1.1-1.1c0.5-0.3,1-0.4,1.7-0.4
			c0.5,0,0.9,0.1,1.3,0.3s0.7,0.4,1,0.8v-3.5H277.4z M275.2,309.5c0.3-0.2,0.6-0.5,0.8-0.8s0.3-0.7,0.3-1.2c0-0.4-0.1-0.8-0.3-1.2
			s-0.4-0.6-0.8-0.8c-0.3-0.2-0.7-0.3-1.1-0.3c-0.4,0-0.8,0.1-1.1,0.3c-0.3,0.2-0.6,0.4-0.8,0.8c-0.2,0.3-0.3,0.7-0.3,1.2
			c0,0.4,0.1,0.8,0.3,1.2c0.2,0.3,0.4,0.6,0.8,0.8c0.3,0.2,0.7,0.3,1.1,0.3C274.5,309.8,274.9,309.7,275.2,309.5z"/>
		<path class="st2" d="M283.9,310.4c-0.5-0.3-0.9-0.7-1.2-1.2s-0.4-1-0.4-1.7s0.1-1.2,0.4-1.7c0.3-0.5,0.7-0.9,1.2-1.2
			c0.5-0.3,1.1-0.4,1.7-0.4c0.6,0,1.1,0.1,1.5,0.3c0.5,0.2,0.8,0.6,1.1,1l-0.9,0.6c-0.2-0.3-0.4-0.5-0.7-0.7c-0.3-0.2-0.6-0.2-1-0.2
			c-0.4,0-0.8,0.1-1.1,0.3c-0.3,0.2-0.6,0.4-0.8,0.8c-0.2,0.3-0.3,0.7-0.3,1.2c0,0.4,0.1,0.8,0.3,1.2c0.2,0.3,0.4,0.6,0.8,0.8
			s0.7,0.3,1.1,0.3c0.4,0,0.7-0.1,1-0.2c0.3-0.2,0.5-0.4,0.7-0.7l0.9,0.6c-0.2,0.4-0.6,0.8-1.1,1c-0.5,0.2-1,0.4-1.5,0.4
			C285,310.8,284.4,310.7,283.9,310.4z"/>
		<path class="st2" d="M290.6,310.4c-0.5-0.3-0.9-0.7-1.2-1.2c-0.3-0.5-0.4-1-0.4-1.7s0.1-1.2,0.4-1.7c0.3-0.5,0.7-0.9,1.2-1.2
			c0.5-0.3,1.1-0.4,1.7-0.4s1.2,0.1,1.7,0.4c0.5,0.3,0.9,0.7,1.2,1.2c0.3,0.5,0.4,1,0.4,1.7s-0.1,1.2-0.4,1.7
			c-0.3,0.5-0.7,0.9-1.2,1.2c-0.5,0.3-1.1,0.4-1.7,0.4S291.1,310.7,290.6,310.4z M293.4,309.5c0.3-0.2,0.6-0.5,0.8-0.8
			s0.3-0.7,0.3-1.2c0-0.4-0.1-0.8-0.3-1.2s-0.4-0.6-0.8-0.8c-0.3-0.2-0.7-0.3-1.1-0.3c-0.4,0-0.8,0.1-1.1,0.3
			c-0.3,0.2-0.6,0.4-0.8,0.8c-0.2,0.3-0.3,0.7-0.3,1.2c0,0.4,0.1,0.8,0.3,1.2c0.2,0.3,0.4,0.6,0.8,0.8c0.3,0.2,0.7,0.3,1.1,0.3
			C292.7,309.8,293.1,309.7,293.4,309.5z"/>
		<path class="st2" d="M302.7,304.4l-2.8,6.4h-1.2l-2.8-6.4h1.2l2.2,5.1l2.2-5.1H302.7z"/>
		<path class="st2" d="M309.3,307.9h-5.2c0.1,0.6,0.3,1,0.7,1.3c0.4,0.3,0.9,0.5,1.6,0.5c0.8,0,1.4-0.3,1.8-0.8l0.6,0.7
			c-0.3,0.3-0.6,0.6-1.1,0.8c-0.4,0.2-0.9,0.3-1.4,0.3c-0.7,0-1.3-0.1-1.8-0.4c-0.5-0.3-0.9-0.7-1.2-1.2c-0.3-0.5-0.4-1.1-0.4-1.7
			c0-0.6,0.1-1.2,0.4-1.7s0.7-0.9,1.1-1.2c0.5-0.3,1-0.4,1.6-0.4s1.1,0.1,1.6,0.4c0.5,0.3,0.8,0.7,1.1,1.2s0.4,1.1,0.4,1.7
			C309.3,307.7,309.3,307.8,309.3,307.9z M304.8,305.8c-0.4,0.3-0.6,0.8-0.7,1.3h4.1c-0.1-0.5-0.3-1-0.7-1.3
			c-0.4-0.3-0.8-0.5-1.4-0.5C305.6,305.3,305.1,305.4,304.8,305.8z"/>
		<path class="st2" d="M312.9,304.6c0.4-0.2,0.9-0.3,1.4-0.3v1.1c-0.1,0-0.2,0-0.3,0c-0.6,0-1.1,0.2-1.5,0.6s-0.5,0.9-0.5,1.6v3.2
			h-1.2v-6.4h1.1v1.1C312.2,305.1,312.5,304.8,312.9,304.6z"/>
		<path class="st2" d="M321.4,307.9h-5.2c0.1,0.6,0.3,1,0.7,1.3c0.4,0.3,0.9,0.5,1.6,0.5c0.8,0,1.4-0.3,1.8-0.8l0.6,0.7
			c-0.3,0.3-0.6,0.6-1.1,0.8c-0.4,0.2-0.9,0.3-1.4,0.3c-0.7,0-1.3-0.1-1.8-0.4c-0.5-0.3-0.9-0.7-1.2-1.2c-0.3-0.5-0.4-1.1-0.4-1.7
			c0-0.6,0.1-1.2,0.4-1.7s0.7-0.9,1.1-1.2c0.5-0.3,1-0.4,1.6-0.4s1.1,0.1,1.6,0.4c0.5,0.3,0.8,0.7,1.1,1.2s0.4,1.1,0.4,1.7
			C321.4,307.7,321.4,307.8,321.4,307.9z M316.9,305.8c-0.4,0.3-0.6,0.8-0.7,1.3h4.1c-0.1-0.5-0.3-1-0.7-1.3
			c-0.4-0.3-0.8-0.5-1.4-0.5C317.7,305.3,317.3,305.4,316.9,305.8z"/>
		<path class="st2" d="M329,301.8v8.9h-1.1v-1c-0.3,0.4-0.6,0.6-1,0.8c-0.4,0.2-0.8,0.3-1.3,0.3c-0.6,0-1.2-0.1-1.7-0.4
			c-0.5-0.3-0.9-0.7-1.1-1.1c-0.3-0.5-0.4-1.1-0.4-1.7c0-0.6,0.1-1.2,0.4-1.7s0.7-0.9,1.1-1.1c0.5-0.3,1-0.4,1.7-0.4
			c0.5,0,0.9,0.1,1.3,0.3s0.7,0.4,1,0.8v-3.5H329z M326.8,309.5c0.3-0.2,0.6-0.5,0.8-0.8s0.3-0.7,0.3-1.2c0-0.4-0.1-0.8-0.3-1.2
			s-0.4-0.6-0.8-0.8c-0.3-0.2-0.7-0.3-1.1-0.3c-0.4,0-0.8,0.1-1.1,0.3c-0.3,0.2-0.6,0.4-0.8,0.8c-0.2,0.3-0.3,0.7-0.3,1.2
			c0,0.4,0.1,0.8,0.3,1.2c0.2,0.3,0.4,0.6,0.8,0.8c0.3,0.2,0.7,0.3,1.1,0.3C326.1,309.8,326.5,309.7,326.8,309.5z"/>
		<path class="st2" d="M339.5,304.7c0.5,0.3,0.9,0.7,1.1,1.1s0.4,1.1,0.4,1.7c0,0.6-0.1,1.2-0.4,1.7c-0.3,0.5-0.7,0.9-1.1,1.1
			c-0.5,0.3-1,0.4-1.7,0.4c-0.5,0-0.9-0.1-1.3-0.3c-0.4-0.2-0.7-0.5-1-0.8v1h-1.1v-8.9h1.2v3.5c0.3-0.3,0.6-0.6,1-0.8
			c0.4-0.2,0.8-0.3,1.3-0.3C338.4,304.3,339,304.4,339.5,304.7z M338.8,309.5c0.3-0.2,0.6-0.5,0.8-0.8s0.3-0.7,0.3-1.2
			c0-0.4-0.1-0.8-0.3-1.2s-0.4-0.6-0.8-0.8c-0.3-0.2-0.7-0.3-1.1-0.3c-0.4,0-0.8,0.1-1.1,0.3c-0.3,0.2-0.6,0.4-0.8,0.8
			s-0.3,0.7-0.3,1.2c0,0.4,0.1,0.8,0.3,1.2s0.4,0.6,0.8,0.8c0.3,0.2,0.7,0.3,1.1,0.3C338.1,309.8,338.5,309.7,338.8,309.5z"/>
		<path class="st2" d="M348.1,304.4l-3.1,7c-0.3,0.6-0.6,1.1-1,1.4c-0.4,0.3-0.8,0.4-1.3,0.4c-0.3,0-0.6-0.1-0.9-0.2
			c-0.3-0.1-0.5-0.2-0.7-0.4l0.5-0.9c0.3,0.3,0.7,0.5,1.1,0.5c0.3,0,0.5-0.1,0.7-0.2c0.2-0.1,0.4-0.4,0.5-0.8l0.2-0.4l-2.8-6.3h1.2
			l2.2,5.1l2.2-5.1H348.1z"/>
		<path class="st2" d="M355.9,310.3c-0.2,0.1-0.4,0.3-0.6,0.3s-0.5,0.1-0.8,0.1c-0.6,0-1.1-0.2-1.5-0.5c-0.4-0.3-0.5-0.8-0.5-1.5
			v-3.5h-1.1v-0.9h1.1V303h1.2v1.4h1.8v0.9h-1.8v3.4c0,0.3,0.1,0.6,0.3,0.8c0.2,0.2,0.4,0.3,0.7,0.3c0.4,0,0.7-0.1,0.9-0.3
			L355.9,310.3z"/>
		<path class="st2" d="M359.3,304.6c0.4-0.2,0.9-0.3,1.4-0.3v1.1c-0.1,0-0.2,0-0.3,0c-0.6,0-1.1,0.2-1.5,0.6s-0.5,0.9-0.5,1.6v3.2
			h-1.2v-6.4h1.1v1.1C358.6,305.1,358.9,304.8,359.3,304.6z"/>
		<path class="st2" d="M367.8,307.9h-5.2c0.1,0.6,0.3,1,0.7,1.3c0.4,0.3,0.9,0.5,1.6,0.5c0.8,0,1.4-0.3,1.8-0.8l0.6,0.7
			c-0.3,0.3-0.6,0.6-1.1,0.8c-0.4,0.2-0.9,0.3-1.4,0.3c-0.7,0-1.3-0.1-1.8-0.4c-0.5-0.3-0.9-0.7-1.2-1.2s-0.4-1.1-0.4-1.7
			c0-0.6,0.1-1.2,0.4-1.7c0.3-0.5,0.7-0.9,1.1-1.2c0.5-0.3,1-0.4,1.6-0.4c0.6,0,1.2,0.1,1.6,0.4c0.5,0.3,0.8,0.7,1.1,1.2
			c0.3,0.5,0.4,1.1,0.4,1.7C367.9,307.7,367.9,307.8,367.8,307.9z M363.3,305.8c-0.4,0.3-0.6,0.8-0.7,1.3h4.1
			c-0.1-0.5-0.3-1-0.7-1.3c-0.4-0.3-0.8-0.5-1.4-0.5C364.2,305.3,363.7,305.4,363.3,305.8z"/>
		<path class="st2" d="M375.2,307.9H370c0.1,0.6,0.3,1,0.7,1.3c0.4,0.3,0.9,0.5,1.6,0.5c0.8,0,1.4-0.3,1.8-0.8l0.6,0.7
			c-0.3,0.3-0.6,0.6-1.1,0.8c-0.4,0.2-0.9,0.3-1.4,0.3c-0.7,0-1.3-0.1-1.8-0.4c-0.5-0.3-0.9-0.7-1.2-1.2s-0.4-1.1-0.4-1.7
			c0-0.6,0.1-1.2,0.4-1.7c0.3-0.5,0.7-0.9,1.1-1.2c0.5-0.3,1-0.4,1.6-0.4c0.6,0,1.2,0.1,1.6,0.4c0.5,0.3,0.8,0.7,1.1,1.2
			c0.3,0.5,0.4,1.1,0.4,1.7C375.2,307.7,375.2,307.8,375.2,307.9z M370.7,305.8c-0.4,0.3-0.6,0.8-0.7,1.3h4.1
			c-0.1-0.5-0.3-1-0.7-1.3c-0.4-0.3-0.8-0.5-1.4-0.5C371.5,305.3,371,305.4,370.7,305.8z"/>
		<path class="st2" d="M377.1,310.6c-0.5-0.1-0.9-0.3-1.1-0.5l0.5-0.9c0.3,0.2,0.6,0.4,1,0.5c0.4,0.1,0.8,0.2,1.2,0.2
			c1,0,1.5-0.3,1.5-0.9c0-0.2-0.1-0.3-0.2-0.5c-0.1-0.1-0.3-0.2-0.5-0.2c-0.2-0.1-0.5-0.1-0.9-0.2c-0.5-0.1-0.9-0.2-1.3-0.3
			c-0.3-0.1-0.6-0.3-0.8-0.5c-0.2-0.2-0.3-0.6-0.3-1c0-0.6,0.2-1,0.7-1.4c0.5-0.3,1.1-0.5,1.9-0.5c0.4,0,0.8,0.1,1.3,0.2
			c0.4,0.1,0.8,0.2,1,0.4l-0.5,0.9c-0.5-0.3-1.1-0.5-1.8-0.5c-0.5,0-0.9,0.1-1.1,0.2c-0.3,0.2-0.4,0.4-0.4,0.6
			c0,0.2,0.1,0.4,0.2,0.5c0.1,0.1,0.3,0.2,0.5,0.3c0.2,0.1,0.5,0.1,0.9,0.2c0.5,0.1,0.9,0.2,1.2,0.3c0.3,0.1,0.6,0.3,0.8,0.5
			c0.2,0.2,0.3,0.6,0.3,1c0,0.6-0.2,1-0.7,1.4c-0.5,0.3-1.2,0.5-2,0.5C378.1,310.8,377.6,310.7,377.1,310.6z"/>
		<path class="st2" d="M382.1,313c0.5-0.8,0.8-1.7,1.1-2.6c0.2-0.9,0.3-1.9,0.3-3c0-1.1-0.1-2.1-0.3-3c-0.2-0.9-0.6-1.8-1.1-2.6h1.1
			c0.5,0.7,0.8,1.6,1.1,2.5s0.4,2,0.4,3.1c0,1.1-0.1,2.1-0.4,3.1s-0.6,1.8-1.1,2.5H382.1z"/>
	</g>
	<path class="st0" d="M463.1,263.4h6.5v-250h-6.5"/>
	<g transform="translate(0,275.5)">
		<line class="st0" x1="469.1" y1="-12.1" x2="463.1" y2="-12.1"/>
		<g class="st1">
			<path class="st2" d="M446.9-9.3c-0.4-0.3-0.8-0.7-1-1.2c-0.2-0.5-0.4-1.2-0.4-1.9s0.1-1.4,0.4-1.9c0.2-0.5,0.6-0.9,1-1.2
				c0.4-0.3,0.9-0.4,1.4-0.4s1,0.1,1.4,0.4c0.4,0.3,0.8,0.7,1,1.2c0.2,0.5,0.4,1.2,0.4,1.9s-0.1,1.4-0.4,1.9c-0.2,0.5-0.6,0.9-1,1.2
				c-0.4,0.3-0.9,0.4-1.4,0.4S447.3-9,446.9-9.3z M449.4-9.8c0.3-0.2,0.6-0.6,0.7-1c0.2-0.4,0.3-1,0.3-1.6s-0.1-1.1-0.3-1.6
				c-0.2-0.4-0.4-0.8-0.7-1c-0.3-0.2-0.7-0.3-1.1-0.3c-0.4,0-0.8,0.1-1.1,0.3c-0.3,0.2-0.6,0.6-0.7,1c-0.2,0.4-0.3,1-0.3,1.6
				s0.1,1.1,0.3,1.6c0.2,0.4,0.4,0.8,0.7,1c0.3,0.2,0.7,0.3,1.1,0.3C448.7-9.5,449.1-9.6,449.4-9.8z"/>
			<path class="st2" d="M452.2-9c-0.1-0.1-0.2-0.2-0.2-0.4s0.1-0.3,0.2-0.4c0.1-0.1,0.2-0.2,0.4-0.2c0.1,0,0.3,0.1,0.4,0.2
				s0.2,0.2,0.2,0.4S453.1-9.1,453-9c-0.1,0.1-0.2,0.2-0.4,0.2C452.4-8.8,452.3-8.9,452.2-9z"/>
			<path class="st2" d="M455.4-9.3c-0.4-0.3-0.8-0.7-1-1.2c-0.2-0.5-0.4-1.2-0.4-1.9s0.1-1.4,0.4-1.9c0.2-0.5,0.6-0.9,1-1.2
				c0.4-0.3,0.9-0.4,1.4-0.4s1,0.1,1.4,0.4c0.4,0.3,0.8,0.7,1,1.2c0.2,0.5,0.4,1.2,0.4,1.9s-0.1,1.4-0.4,1.9c-0.2,0.5-0.6,0.9-1,1.2
				c-0.4,0.3-0.9,0.4-1.4,0.4S455.8-9,455.4-9.3z M457.9-9.8c0.3-0.2,0.6-0.6,0.7-1c0.2-0.4,0.3-1,0.3-1.6s-0.1-1.1-0.3-1.6
				c-0.2-0.4-0.4-0.8-0.7-1s-0.7-0.3-1.1-0.3c-0.4,0-0.8,0.1-1.1,0.3c-0.3,0.2-0.6,0.6-0.7,1c-0.2,0.4-0.3,1-0.3,1.6
				s0.1,1.1,0.3,1.6c0.2,0.4,0.4,0.8,0.7,1c0.3,0.2,0.7,0.3,1.1,0.3C457.2-9.5,457.6-9.6,457.9-9.8z"/>
		</g>
	</g>
	<g transform="translate(0,250.5)">
		<line class="st0" x1="469.1" y1="-12.1" x2="463.1" y2="-12.1"/>
		<g class="st1">
			<path class="st2" d="M447.7-9.3c-0.4-0.3-0.8-0.7-1-1.2c-0.2-0.5-0.4-1.2-0.4-1.9s0.1-1.4,0.4-1.9c0.2-0.5,0.6-0.9,1-1.2
				c0.4-0.3,0.9-0.4,1.4-0.4s1,0.1,1.4,0.4c0.4,0.3,0.8,0.7,1,1.2c0.2,0.5,0.4,1.2,0.4,1.9s-0.1,1.4-0.4,1.9c-0.2,0.5-0.6,0.9-1,1.2
				c-0.4,0.3-0.9,0.4-1.4,0.4S448.1-9,447.7-9.3z M450.2-9.8c0.3-0.2,0.6-0.6,0.7-1c0.2-0.4,0.3-1,0.3-1.6s-0.1-1.1-0.3-1.6
				c-0.2-0.4-0.4-0.8-0.7-1s-0.7-0.3-1.1-0.3c-0.4,0-0.8,0.1-1.1,0.3c-0.3,0.2-0.6,0.6-0.7,1c-0.2,0.4-0.3,1-0.3,1.6
				s0.1,1.1,0.3,1.6c0.2,0.4,0.4,0.8,0.7,1c0.3,0.2,0.7,0.3,1.1,0.3C449.6-9.5,449.9-9.6,450.2-9.8z"/>
			<path class="st2" d="M453-9c-0.1-0.1-0.2-0.2-0.2-0.4s0.1-0.3,0.2-0.4s0.2-0.2,0.4-0.2s0.3,0.1,0.4,0.2s0.2,0.2,0.2,0.4
				s-0.1,0.3-0.2,0.4c-0.1,0.1-0.2,0.2-0.4,0.2S453.2-8.9,453-9z"/>
			<path class="st2" d="M459.1-12.5c0.5,0.4,0.7,0.9,0.7,1.5c0,0.4-0.1,0.8-0.3,1.1c-0.2,0.3-0.5,0.6-0.9,0.8s-0.8,0.3-1.4,0.3
				c-0.5,0-1-0.1-1.4-0.2c-0.5-0.2-0.8-0.4-1.1-0.7l0.3-0.6c0.2,0.2,0.5,0.4,0.9,0.6c0.4,0.2,0.8,0.2,1.2,0.2c0.6,0,1-0.1,1.3-0.4
				s0.5-0.6,0.5-1c0-0.5-0.2-0.8-0.5-1.1c-0.4-0.2-1-0.4-1.8-0.4h-1.5l0.4-3.5h3.8v0.6h-3.2l-0.2,2.2h0.9
				C457.9-13,458.6-12.8,459.1-12.5z"/>
		</g>
	</g>
	<g transform="translate(0,225.5)">
		<line class="st0" x1="469.1" y1="-12.1" x2="463.1" y2="-12.1"/>
		<g class="st1">
			<path class="st2" d="M450.4-15.9v7h-0.7v-6.4H448v-0.6H450.4z"/>
			<path class="st2" d="M452.2-9c-0.1-0.1-0.2-0.2-0.2-0.4s0.1-0.3,0.2-0.4c0.1-0.1,0.2-0.2,0.4-0.2c0.1,0,0.3,0.1,0.4,0.2
				s0.2,0.2,0.2,0.4S453.1-9.1,453-9c-0.1,0.1-0.2,0.2-0.4,0.2C452.4-8.8,452.3-8.9,452.2-9z"/>
			<path class="st2" d="M455.4-9.3c-0.4-0.3-0.8-0.7-1-1.2c-0.2-0.5-0.4-1.2-0.4-1.9s0.1-1.4,0.4-1.9c0.2-0.5,0.6-0.9,1-1.2
				c0.4-0.3,0.9-0.4,1.4-0.4s1,0.1,1.4,0.4c0.4,0.3,0.8,0.7,1,1.2c0.2,0.5,0.4,1.2,0.4,1.9s-0.1,1.4-0.4,1.9c-0.2,0.5-0.6,0.9-1,1.2
				c-0.4,0.3-0.9,0.4-1.4,0.4S455.8-9,455.4-9.3z M457.9-9.8c0.3-0.2,0.6-0.6,0.7-1c0.2-0.4,0.3-1,0.3-1.6s-0.1-1.1-0.3-1.6
				c-0.2-0.4-0.4-0.8-0.7-1s-0.7-0.3-1.1-0.3c-0.4,0-0.8,0.1-1.1,0.3c-0.3,0.2-0.6,0.6-0.7,1c-0.2,0.4-0.3,1-0.3,1.6
				s0.1,1.1,0.3,1.6c0.2,0.4,0.4,0.8,0.7,1c0.3,0.2,0.7,0.3,1.1,0.3C457.2-9.5,457.6-9.6,457.9-9.8z"/>
		</g>
	</g>
	<g transform="translate(0,200.5)">
		<line class="st0" x1="469.1" y1="-12.1" x2="463.1" y2="-12.1"/>
		<g class="st1">
			<path class="st2" d="M451.2-15.9v7h-0.7v-6.4h-1.7v-0.6H451.2z"/>
			<path class="st2" d="M453-9c-0.1-0.1-0.2-0.2-0.2-0.4s0.1-0.3,0.2-0.4s0.2-0.2,0.4-0.2s0.3,0.1,0.4,0.2s0.2,0.2,0.2,0.4
				s-0.1,0.3-0.2,0.4c-0.1,0.1-0.2,0.2-0.4,0.2S453.2-8.9,453-9z"/>
			<path class="st2" d="M459.1-12.5c0.5,0.4,0.7,0.9,0.7,1.5c0,0.4-0.1,0.8-0.3,1.1c-0.2,0.3-0.5,0.6-0.9,0.8s-0.8,0.3-1.4,0.3
				c-0.5,0-1-0.1-1.4-0.2c-0.5-0.2-0.8-0.4-1.1-0.7l0.3-0.6c0.2,0.2,0.5,0.4,0.9,0.6c0.4,0.2,0.8,0.2,1.2,0.2c0.6,0,1-0.1,1.3-0.4
				s0.5-0.6,0.5-1c0-0.5-0.2-0.8-0.5-1.1c-0.4-0.2-1-0.4-1.8-0.4h-1.5l0.4-3.5h3.8v0.6h-3.2l-0.2,2.2h0.9
				C457.9-13,458.6-12.8,459.1-12.5z"/>
		</g>
	</g>
	<g transform="translate(0,175.5)">
		<line class="st0" x1="469.1" y1="-12.1" x2="463.1" y2="-12.1"/>
		<g class="st1">
			<path class="st2" d="M451-9.5v0.6h-4.9v-0.5l2.9-2.9c0.4-0.4,0.6-0.7,0.7-0.9s0.2-0.5,0.2-0.8c0-0.4-0.1-0.7-0.4-1
				c-0.3-0.2-0.7-0.3-1.2-0.3c-0.8,0-1.5,0.3-1.9,0.8l-0.5-0.4c0.3-0.3,0.6-0.6,1-0.7c0.4-0.2,0.9-0.3,1.4-0.3
				c0.7,0,1.3,0.2,1.7,0.5c0.4,0.3,0.6,0.8,0.6,1.4c0,0.4-0.1,0.7-0.2,1c-0.2,0.3-0.5,0.7-0.9,1.1l-2.4,2.3H451z"/>
			<path class="st2" d="M452.2-9c-0.1-0.1-0.2-0.2-0.2-0.4s0.1-0.3,0.2-0.4c0.1-0.1,0.2-0.2,0.4-0.2c0.1,0,0.3,0.1,0.4,0.2
				s0.2,0.2,0.2,0.4S453.1-9.1,453-9c-0.1,0.1-0.2,0.2-0.4,0.2C452.4-8.8,452.3-8.9,452.2-9z"/>
			<path class="st2" d="M455.4-9.3c-0.4-0.3-0.8-0.7-1-1.2c-0.2-0.5-0.4-1.2-0.4-1.9s0.1-1.4,0.4-1.9c0.2-0.5,0.6-0.9,1-1.2
				c0.4-0.3,0.9-0.4,1.4-0.4s1,0.1,1.4,0.4c0.4,0.3,0.8,0.7,1,1.2c0.2,0.5,0.4,1.2,0.4,1.9s-0.1,1.4-0.4,1.9c-0.2,0.5-0.6,0.9-1,1.2
				c-0.4,0.3-0.9,0.4-1.4,0.4S455.8-9,455.4-9.3z M457.9-9.8c0.3-0.2,0.6-0.6,0.7-1c0.2-0.4,0.3-1,0.3-1.6s-0.1-1.1-0.3-1.6
				c-0.2-0.4-0.4-0.8-0.7-1s-0.7-0.3-1.1-0.3c-0.4,0-0.8,0.1-1.1,0.3c-0.3,0.2-0.6,0.6-0.7,1c-0.2,0.4-0.3,1-0.3,1.6
				s0.1,1.1,0.3,1.6c0.2,0.4,0.4,0.8,0.7,1c0.3,0.2,0.7,0.3,1.1,0.3C457.2-9.5,457.6-9.6,457.9-9.8z"/>
		</g>
	</g>
	<g transform="translate(0,150.5)">
		<line class="st0" x1="469.1" y1="-12.1" x2="463.1" y2="-12.1"/>
		<g class="st1">
			<path class="st2" d="M451.9-9.5v0.6H447v-0.5l2.9-2.9c0.4-0.4,0.6-0.7,0.7-0.9s0.2-0.5,0.2-0.8c0-0.4-0.1-0.7-0.4-1
				c-0.3-0.2-0.7-0.3-1.2-0.3c-0.8,0-1.5,0.3-1.9,0.8l-0.5-0.4c0.3-0.3,0.6-0.6,1-0.7c0.4-0.2,0.9-0.3,1.4-0.3
				c0.7,0,1.3,0.2,1.7,0.5c0.4,0.3,0.6,0.8,0.6,1.4c0,0.4-0.1,0.7-0.2,1s-0.5,0.7-0.9,1.1L448-9.5H451.9z"/>
			<path class="st2" d="M453-9c-0.1-0.1-0.2-0.2-0.2-0.4s0.1-0.3,0.2-0.4s0.2-0.2,0.4-0.2s0.3,0.1,0.4,0.2s0.2,0.2,0.2,0.4
				s-0.1,0.3-0.2,0.4c-0.1,0.1-0.2,0.2-0.4,0.2S453.2-8.9,453-9z"/>
			<path class="st2" d="M459.1-12.5c0.5,0.4,0.7,0.9,0.7,1.5c0,0.4-0.1,0.8-0.3,1.1c-0.2,0.3-0.5,0.6-0.9,0.8s-0.8,0.3-1.4,0.3
				c-0.5,0-1-0.1-1.4-0.2c-0.5-0.2-0.8-0.4-1.1-0.7l0.3-0.6c0.2,0.2,0.5,0.4,0.9,0.6c0.4,0.2,0.8,0.2,1.2,0.2c0.6,0,1-0.1,1.3-0.4
				s0.5-0.6,0.5-1c0-0.5-0.2-0.8-0.5-1.1c-0.4-0.2-1-0.4-1.8-0.4h-1.5l0.4-3.5h3.8v0.6h-3.2l-0.2,2.2h0.9
				C457.9-13,458.6-12.8,459.1-12.5z"/>
		</g>
	</g>
	<g transform="translate(0,125.5)">
		<line class="st0" x1="469.1" y1="-12.1" x2="463.1" y2="-12.1"/>
		<g class="st1">
			<path class="st2" d="M450.4-12.3c0.4,0.4,0.6,0.8,0.6,1.4c0,0.4-0.1,0.8-0.3,1.1c-0.2,0.3-0.5,0.6-0.9,0.7s-0.8,0.3-1.4,0.3
				c-0.5,0-1-0.1-1.4-0.2c-0.4-0.2-0.8-0.4-1.1-0.7l0.4-0.6c0.2,0.2,0.5,0.4,0.9,0.6c0.4,0.2,0.8,0.2,1.2,0.2c0.6,0,1-0.1,1.3-0.4
				c0.3-0.2,0.5-0.6,0.5-1c0-0.4-0.2-0.8-0.5-1c-0.3-0.2-0.8-0.4-1.4-0.4h-0.5v-0.5l1.9-2.4h-3.6v-0.6h4.5v0.5l-2,2.5
				C449.5-12.9,450.1-12.7,450.4-12.3z"/>
			<path class="st2" d="M452.2-9c-0.1-0.1-0.2-0.2-0.2-0.4s0.1-0.3,0.2-0.4s0.2-0.2,0.4-0.2s0.3,0.1,0.4,0.2s0.2,0.2,0.2,0.4
				S453.1-9.1,453-9c-0.1,0.1-0.2,0.2-0.4,0.2S452.3-8.9,452.2-9z"/>
			<path class="st2" d="M455.4-9.3c-0.4-0.3-0.8-0.7-1-1.2c-0.2-0.5-0.4-1.2-0.4-1.9s0.1-1.4,0.4-1.9c0.2-0.5,0.6-0.9,1-1.2
				c0.4-0.3,0.9-0.4,1.4-0.4s1,0.1,1.4,0.4c0.4,0.3,0.8,0.7,1,1.2c0.2,0.5,0.4,1.2,0.4,1.9s-0.1,1.4-0.4,1.9c-0.2,0.5-0.6,0.9-1,1.2
				c-0.4,0.3-0.9,0.4-1.4,0.4S455.8-9,455.4-9.3z M457.9-9.8c0.3-0.2,0.6-0.6,0.7-1s0.3-1,0.3-1.6s-0.1-1.1-0.3-1.6
				c-0.2-0.4-0.4-0.8-0.7-1c-0.3-0.2-0.7-0.3-1.1-0.3s-0.8,0.1-1.1,0.3s-0.6,0.6-0.7,1c-0.2,0.4-0.3,1-0.3,1.6s0.1,1.1,0.3,1.6
				c0.2,0.4,0.4,0.8,0.7,1c0.3,0.2,0.7,0.3,1.1,0.3S457.6-9.6,457.9-9.8z"/>
		</g>
	</g>
	<g transform="translate(0,100.5)">
		<line class="st0" x1="469.1" y1="-12.1" x2="463.1" y2="-12.1"/>
		<g class="st1">
			<path class="st2" d="M451.3-12.3c0.4,0.4,0.6,0.8,0.6,1.4c0,0.4-0.1,0.8-0.3,1.1c-0.2,0.3-0.5,0.6-0.9,0.7s-0.8,0.3-1.4,0.3
				c-0.5,0-1-0.1-1.4-0.2c-0.4-0.2-0.8-0.4-1.1-0.7l0.4-0.6c0.2,0.2,0.5,0.4,0.9,0.6c0.4,0.2,0.8,0.2,1.2,0.2c0.6,0,1-0.1,1.3-0.4
				s0.5-0.6,0.5-1c0-0.4-0.2-0.8-0.5-1c-0.3-0.2-0.8-0.4-1.4-0.4h-0.5v-0.5l1.9-2.4h-3.6v-0.6h4.5v0.5l-2,2.5
				C450.4-12.9,450.9-12.7,451.3-12.3z"/>
			<path class="st2" d="M453-9c-0.1-0.1-0.2-0.2-0.2-0.4s0.1-0.3,0.2-0.4s0.2-0.2,0.4-0.2s0.3,0.1,0.4,0.2s0.2,0.2,0.2,0.4
				s-0.1,0.3-0.2,0.4c-0.1,0.1-0.2,0.2-0.4,0.2S453.2-8.9,453-9z"/>
			<path class="st2" d="M459.1-12.5c0.5,0.4,0.7,0.9,0.7,1.5c0,0.4-0.1,0.8-0.3,1.1c-0.2,0.3-0.5,0.6-0.9,0.8s-0.8,0.3-1.4,0.3
				c-0.5,0-1-0.1-1.4-0.2c-0.5-0.2-0.8-0.4-1.1-0.7l0.3-0.6c0.2,0.2,0.5,0.4,0.9,0.6c0.4,0.2,0.8,0.2,1.2,0.2c0.6,0,1-0.1,1.3-0.4
				c0.3-0.3,0.5-0.6,0.5-1c0-0.5-0.2-0.8-0.5-1.1c-0.4-0.2-1-0.4-1.8-0.4h-1.5l0.4-3.5h3.8v0.6h-3.2l-0.2,2.2h0.9
				C457.9-13,458.6-12.8,459.1-12.5z"/>
		</g>
	</g>
	<g transform="translate(0,75.5)">
		<line class="st0" x1="469.1" y1="-12.1" x2="463.1" y2="-12.1"/>
		<g class="st1">
			<path class="st2" d="M451.2-10.7h-1.4v1.8h-0.7v-1.8h-4v-0.5l3.7-4.6h0.8l-3.6,4.5h3V-13h0.7v1.6h1.4V-10.7z"/>
			<path class="st2" d="M452.2-9c-0.1-0.1-0.2-0.2-0.2-0.4s0.1-0.3,0.2-0.4s0.2-0.2,0.4-0.2s0.3,0.1,0.4,0.2s0.2,0.2,0.2,0.4
				S453.1-9.1,453-9c-0.1,0.1-0.2,0.2-0.4,0.2S452.3-8.9,452.2-9z"/>
			<path class="st2" d="M455.4-9.3c-0.4-0.3-0.8-0.7-1-1.2c-0.2-0.5-0.4-1.2-0.4-1.9s0.1-1.4,0.4-1.9c0.2-0.5,0.6-0.9,1-1.2
				c0.4-0.3,0.9-0.4,1.4-0.4s1,0.1,1.4,0.4c0.4,0.3,0.8,0.7,1,1.2c0.2,0.5,0.4,1.2,0.4,1.9s-0.1,1.4-0.4,1.9c-0.2,0.5-0.6,0.9-1,1.2
				c-0.4,0.3-0.9,0.4-1.4,0.4S455.8-9,455.4-9.3z M457.9-9.8c0.3-0.2,0.6-0.6,0.7-1c0.2-0.4,0.3-1,0.3-1.6s-0.1-1.1-0.3-1.6
				c-0.2-0.4-0.4-0.8-0.7-1s-0.7-0.3-1.1-0.3c-0.4,0-0.8,0.1-1.1,0.3c-0.3,0.2-0.6,0.6-0.7,1c-0.2,0.4-0.3,1-0.3,1.6
				s0.1,1.1,0.3,1.6c0.2,0.4,0.4,0.8,0.7,1c0.3,0.2,0.7,0.3,1.1,0.3C457.2-9.5,457.6-9.6,457.9-9.8z"/>
		</g>
	</g>
	<g transform="translate(0,50.5)">
		<line class="st0" x1="469.1" y1="-12.1" x2="463.1" y2="-12.1"/>
		<g class="st1">
			<path class="st2" d="M452-10.7h-1.4v1.8h-0.7v-1.8h-4v-0.5l3.7-4.6h0.8l-3.6,4.5h3V-13h0.7v1.6h1.4V-10.7z"/>
			<path class="st2" d="M453-9c-0.1-0.1-0.2-0.2-0.2-0.4s0.1-0.3,0.2-0.4s0.2-0.2,0.4-0.2s0.3,0.1,0.4,0.2c0.1,0.1,0.2,0.2,0.2,0.4
				s-0.1,0.3-0.2,0.4c-0.1,0.1-0.2,0.2-0.4,0.2S453.2-8.9,453-9z"/>
			<path class="st2" d="M459.1-12.5c0.5,0.4,0.7,0.9,0.7,1.5c0,0.4-0.1,0.8-0.3,1.1c-0.2,0.3-0.5,0.6-0.9,0.8
				c-0.4,0.2-0.8,0.3-1.4,0.3c-0.5,0-1-0.1-1.4-0.2c-0.5-0.2-0.8-0.4-1.1-0.7l0.3-0.6c0.2,0.2,0.5,0.4,0.9,0.6
				c0.4,0.2,0.8,0.2,1.2,0.2c0.6,0,1-0.1,1.3-0.4s0.5-0.6,0.5-1c0-0.5-0.2-0.8-0.5-1.1c-0.4-0.2-1-0.4-1.8-0.4h-1.5l0.4-3.5h3.8v0.6
				h-3.2l-0.2,2.2h0.9C457.9-13,458.6-12.8,459.1-12.5z"/>
		</g>
	</g>
	<g transform="translate(0,25.5)">
		<line class="st0" x1="469.1" y1="-12.1" x2="463.1" y2="-12.1"/>
		<g class="st1">
			<path class="st2" d="M450.4-12.5c0.5,0.4,0.7,0.9,0.7,1.5c0,0.4-0.1,0.8-0.3,1.1c-0.2,0.3-0.5,0.6-0.9,0.8s-0.8,0.3-1.4,0.3
				c-0.5,0-1-0.1-1.4-0.2c-0.5-0.2-0.8-0.4-1.1-0.7l0.3-0.6c0.2,0.2,0.5,0.4,0.9,0.6c0.4,0.2,0.8,0.2,1.2,0.2c0.6,0,1-0.1,1.3-0.4
				s0.5-0.6,0.5-1c0-0.5-0.2-0.8-0.5-1.1c-0.4-0.2-1-0.4-1.8-0.4h-1.5l0.4-3.5h3.8v0.6h-3.2l-0.2,2.2h0.9
				C449.2-13,450-12.8,450.4-12.5z"/>
			<path class="st2" d="M452.2-9c-0.1-0.1-0.2-0.2-0.2-0.4s0.1-0.3,0.2-0.4s0.2-0.2,0.4-0.2s0.3,0.1,0.4,0.2s0.2,0.2,0.2,0.4
				S453.1-9.1,453-9c-0.1,0.1-0.2,0.2-0.4,0.2S452.3-8.9,452.2-9z"/>
			<path class="st2" d="M455.4-9.3c-0.4-0.3-0.8-0.7-1-1.2c-0.2-0.5-0.4-1.2-0.4-1.9s0.1-1.4,0.4-1.9c0.2-0.5,0.6-0.9,1-1.2
				c0.4-0.3,0.9-0.4,1.4-0.4s1,0.1,1.4,0.4c0.4,0.3,0.8,0.7,1,1.2c0.2,0.5,0.4,1.2,0.4,1.9s-0.1,1.4-0.4,1.9c-0.2,0.5-0.6,0.9-1,1.2
				c-0.4,0.3-0.9,0.4-1.4,0.4S455.8-9,455.4-9.3z M457.9-9.8c0.3-0.2,0.6-0.6,0.7-1c0.2-0.4,0.3-1,0.3-1.6s-0.1-1.1-0.3-1.6
				c-0.2-0.4-0.4-0.8-0.7-1s-0.7-0.3-1.1-0.3c-0.4,0-0.8,0.1-1.1,0.3c-0.3,0.2-0.6,0.6-0.7,1c-0.2,0.4-0.3,1-0.3,1.6
				s0.1,1.1,0.3,1.6c0.2,0.4,0.4,0.8,0.7,1c0.3,0.2,0.7,0.3,1.1,0.3C457.2-9.5,457.6-9.6,457.9-9.8z"/>
		</g>
	</g>
	<rect x="459.1" y="12.9" pointer-events="all" class="st3" width="20" height="250"/>
	<polygon shape-rendering="crispEdges" class="st4" points="469.1,-12.1 469.1,-12.1 469.1,-12.1 	"/>
	<polygon class="st5" points="469.1,-12.1 469.1,-12.1 469.1,-12.1 	"/>
	<polygon class="st5" points="469.1,-12.1 469.1,-12.1 469.1,-12.1 	"/>
	<g class="st1">
		<path class="st2" d="M447.7,295.9c-0.7-0.4-1.2-0.9-1.6-1.5c-0.4-0.7-0.6-1.4-0.6-2.2c0-0.8,0.2-1.5,0.6-2.2
			c0.4-0.7,0.9-1.2,1.6-1.5c0.7-0.4,1.4-0.6,2.3-0.6c0.7,0,1.3,0.1,1.8,0.3c0.5,0.2,1,0.5,1.4,1l-0.8,0.8c-0.6-0.7-1.4-1-2.4-1
			c-0.6,0-1.2,0.1-1.7,0.4s-0.9,0.7-1.2,1.2c-0.3,0.5-0.4,1-0.4,1.6c0,0.6,0.1,1.2,0.4,1.7c0.3,0.5,0.7,0.9,1.2,1.2
			c0.5,0.3,1.1,0.4,1.7,0.4c0.9,0,1.7-0.3,2.4-1l0.8,0.8c-0.4,0.4-0.8,0.8-1.4,1c-0.5,0.2-1.1,0.3-1.8,0.3
			C449.2,296.4,448.4,296.2,447.7,295.9z"/>
		<path class="st2" d="M456.3,295.9c-0.7-0.4-1.2-0.9-1.6-1.5c-0.4-0.7-0.6-1.4-0.6-2.2c0-0.8,0.2-1.5,0.6-2.2
			c0.4-0.7,0.9-1.2,1.6-1.5c0.7-0.4,1.4-0.6,2.3-0.6c0.8,0,1.6,0.2,2.3,0.6c0.7,0.4,1.2,0.9,1.6,1.5c0.4,0.7,0.6,1.4,0.6,2.2
			c0,0.8-0.2,1.5-0.6,2.2s-0.9,1.2-1.6,1.5c-0.7,0.4-1.4,0.6-2.3,0.6C457.7,296.4,456.9,296.2,456.3,295.9z M460.2,294.9
			c0.5-0.3,0.9-0.7,1.2-1.2s0.4-1,0.4-1.7c0-0.6-0.1-1.2-0.4-1.6c-0.3-0.5-0.7-0.9-1.2-1.2s-1-0.4-1.7-0.4s-1.2,0.1-1.7,0.4
			s-0.9,0.7-1.2,1.2c-0.3,0.5-0.4,1-0.4,1.6c0,0.6,0.1,1.2,0.4,1.7c0.3,0.5,0.7,0.9,1.2,1.2c0.5,0.3,1.1,0.4,1.7,0.4
			S459.7,295.2,460.2,294.9z"/>
		<path class="st2" d="M469.9,295.3v1h-6v-0.8l3.4-3.3c0.4-0.4,0.7-0.7,0.8-1c0.1-0.3,0.2-0.6,0.2-0.9c0-0.4-0.2-0.8-0.5-1
			c-0.3-0.2-0.8-0.4-1.3-0.4c-0.9,0-1.6,0.3-2.1,0.9l-0.8-0.7c0.3-0.4,0.8-0.7,1.3-0.9c0.5-0.2,1.1-0.3,1.8-0.3
			c0.9,0,1.6,0.2,2.1,0.6c0.5,0.4,0.8,1,0.8,1.7c0,0.4-0.1,0.9-0.3,1.3c-0.2,0.4-0.6,0.9-1.1,1.4l-2.6,2.5H469.9z"/>
		<path class="st2" d="M480.9,295.3v1h-6.1v-8.4h5.9v1H476v2.6h4.2v1H476v2.7H480.9z"/>
		<path class="st2" d="M492.6,290.6c0.5,0.5,0.7,1.2,0.7,2.1v3.7h-1.2v-3.5c0-0.6-0.1-1.1-0.4-1.4c-0.3-0.3-0.7-0.5-1.2-0.5
			c-0.6,0-1,0.2-1.4,0.5c-0.3,0.4-0.5,0.9-0.5,1.6v3.3h-1.2v-3.5c0-0.6-0.1-1.1-0.4-1.4c-0.3-0.3-0.7-0.5-1.2-0.5
			c-0.6,0-1,0.2-1.4,0.5c-0.3,0.4-0.5,0.9-0.5,1.6v3.3h-1.2V290h1.1v0.9c0.2-0.3,0.5-0.6,0.9-0.8s0.8-0.3,1.3-0.3
			c0.5,0,0.9,0.1,1.3,0.3c0.4,0.2,0.7,0.5,0.9,0.9c0.2-0.4,0.6-0.7,1-0.9c0.4-0.2,0.9-0.3,1.4-0.3
			C491.5,289.9,492.1,290.1,492.6,290.6z"/>
		<path class="st2" d="M495.4,288.5c-0.1-0.1-0.2-0.3-0.2-0.5s0.1-0.4,0.2-0.5c0.1-0.1,0.3-0.2,0.6-0.2c0.2,0,0.4,0.1,0.6,0.2
			s0.2,0.3,0.2,0.5c0,0.2-0.1,0.4-0.2,0.5c-0.1,0.1-0.3,0.2-0.6,0.2C495.7,288.7,495.6,288.7,495.4,288.5z M495.4,290h1.2v6.4h-1.2
			V290z"/>
		<path class="st2" d="M499.1,296.2c-0.5-0.1-0.9-0.3-1.1-0.5l0.5-0.9c0.3,0.2,0.6,0.4,1,0.5c0.4,0.1,0.8,0.2,1.2,0.2
			c1,0,1.5-0.3,1.5-0.9c0-0.2-0.1-0.3-0.2-0.5c-0.1-0.1-0.3-0.2-0.5-0.2c-0.2-0.1-0.5-0.1-0.9-0.2c-0.5-0.1-0.9-0.2-1.3-0.3
			c-0.3-0.1-0.6-0.3-0.8-0.5c-0.2-0.2-0.3-0.6-0.3-1c0-0.6,0.2-1,0.7-1.4c0.5-0.3,1.1-0.5,1.9-0.5c0.4,0,0.8,0.1,1.3,0.2
			c0.4,0.1,0.8,0.2,1,0.4l-0.5,0.9c-0.5-0.3-1.1-0.5-1.8-0.5c-0.5,0-0.9,0.1-1.1,0.2c-0.3,0.2-0.4,0.4-0.4,0.6
			c0,0.2,0.1,0.4,0.2,0.5c0.1,0.1,0.3,0.2,0.5,0.3c0.2,0.1,0.5,0.1,0.9,0.2c0.5,0.1,0.9,0.2,1.2,0.3c0.3,0.1,0.6,0.3,0.8,0.5
			c0.2,0.2,0.3,0.6,0.3,1c0,0.6-0.2,1-0.7,1.4c-0.5,0.3-1.2,0.5-2,0.5C500,296.4,499.5,296.3,499.1,296.2z"/>
		<path class="st2" d="M505.1,296.2c-0.5-0.1-0.9-0.3-1.1-0.5l0.5-0.9c0.3,0.2,0.6,0.4,1,0.5c0.4,0.1,0.8,0.2,1.2,0.2
			c1,0,1.5-0.3,1.5-0.9c0-0.2-0.1-0.3-0.2-0.5c-0.1-0.1-0.3-0.2-0.5-0.2c-0.2-0.1-0.5-0.1-0.9-0.2c-0.5-0.1-0.9-0.2-1.3-0.3
			c-0.3-0.1-0.6-0.3-0.8-0.5c-0.2-0.2-0.3-0.6-0.3-1c0-0.6,0.2-1,0.7-1.4c0.5-0.3,1.1-0.5,1.9-0.5c0.4,0,0.8,0.1,1.3,0.2
			c0.4,0.1,0.8,0.2,1,0.4l-0.5,0.9c-0.5-0.3-1.1-0.5-1.8-0.5c-0.5,0-0.9,0.1-1.1,0.2c-0.3,0.2-0.4,0.4-0.4,0.6
			c0,0.2,0.1,0.4,0.2,0.5c0.1,0.1,0.3,0.2,0.5,0.3c0.2,0.1,0.5,0.1,0.9,0.2c0.5,0.1,0.9,0.2,1.2,0.3c0.3,0.1,0.6,0.3,0.8,0.5
			c0.2,0.2,0.3,0.6,0.3,1c0,0.6-0.2,1-0.7,1.4c-0.5,0.3-1.2,0.5-2,0.5C506.1,296.4,505.6,296.3,505.1,296.2z"/>
		<path class="st2" d="M510.8,288.5c-0.1-0.1-0.2-0.3-0.2-0.5s0.1-0.4,0.2-0.5c0.1-0.1,0.3-0.2,0.6-0.2c0.2,0,0.4,0.1,0.6,0.2
			c0.1,0.1,0.2,0.3,0.2,0.5c0,0.2-0.1,0.4-0.2,0.5c-0.1,0.1-0.3,0.2-0.6,0.2C511.1,288.7,510.9,288.7,510.8,288.5z M510.8,290h1.2
			v6.4h-1.2V290z"/>
		<path class="st2" d="M515.1,296c-0.5-0.3-0.9-0.7-1.2-1.2c-0.3-0.5-0.4-1-0.4-1.7s0.1-1.2,0.4-1.7c0.3-0.5,0.7-0.9,1.2-1.2
			c0.5-0.3,1.1-0.4,1.7-0.4s1.2,0.1,1.7,0.4c0.5,0.3,0.9,0.7,1.2,1.2c0.3,0.5,0.4,1,0.4,1.7s-0.1,1.2-0.4,1.7
			c-0.3,0.5-0.7,0.9-1.2,1.2c-0.5,0.3-1.1,0.4-1.7,0.4S515.6,296.3,515.1,296z M517.9,295.1c0.3-0.2,0.6-0.5,0.8-0.8
			c0.2-0.3,0.3-0.7,0.3-1.2c0-0.4-0.1-0.8-0.3-1.2c-0.2-0.3-0.4-0.6-0.8-0.8c-0.3-0.2-0.7-0.3-1.1-0.3s-0.8,0.1-1.1,0.3
			c-0.3,0.2-0.6,0.4-0.8,0.8c-0.2,0.3-0.3,0.7-0.3,1.2c0,0.4,0.1,0.8,0.3,1.2c0.2,0.3,0.4,0.6,0.8,0.8c0.3,0.2,0.7,0.3,1.1,0.3
			S517.6,295.3,517.9,295.1z"/>
		<path class="st2" d="M527.1,290.6c0.5,0.5,0.7,1.2,0.7,2.1v3.7h-1.2v-3.5c0-0.6-0.1-1.1-0.4-1.4c-0.3-0.3-0.7-0.5-1.3-0.5
			c-0.6,0-1.1,0.2-1.5,0.5s-0.5,0.9-0.5,1.6v3.3h-1.2V290h1.1v1c0.2-0.3,0.5-0.6,0.9-0.8c0.4-0.2,0.8-0.3,1.3-0.3
			C525.9,289.9,526.6,290.1,527.1,290.6z"/>
		<path class="st2" d="M530.2,296.2c-0.5-0.1-0.9-0.3-1.1-0.5l0.5-0.9c0.3,0.2,0.6,0.4,1,0.5c0.4,0.1,0.8,0.2,1.2,0.2
			c1,0,1.5-0.3,1.5-0.9c0-0.2-0.1-0.3-0.2-0.5c-0.1-0.1-0.3-0.2-0.5-0.2c-0.2-0.1-0.5-0.1-0.9-0.2c-0.5-0.1-0.9-0.2-1.3-0.3
			c-0.3-0.1-0.6-0.3-0.8-0.5c-0.2-0.2-0.3-0.6-0.3-1c0-0.6,0.2-1,0.7-1.4c0.5-0.3,1.1-0.5,1.9-0.5c0.4,0,0.8,0.1,1.3,0.2
			c0.4,0.1,0.8,0.2,1,0.4l-0.5,0.9c-0.5-0.3-1.1-0.5-1.8-0.5c-0.5,0-0.9,0.1-1.1,0.2c-0.3,0.2-0.4,0.4-0.4,0.6
			c0,0.2,0.1,0.4,0.2,0.5c0.1,0.1,0.3,0.2,0.5,0.3c0.2,0.1,0.5,0.1,0.9,0.2c0.5,0.1,0.9,0.2,1.2,0.3c0.3,0.1,0.6,0.3,0.8,0.5
			c0.2,0.2,0.3,0.6,0.3,1c0,0.6-0.2,1-0.7,1.4c-0.5,0.3-1.2,0.5-2,0.5C531.2,296.4,530.7,296.3,530.2,296.2z"/>
		<path class="st2" d="M446.5,310.5c-0.2-1-0.4-2-0.4-3.1c0-1.1,0.1-2.1,0.4-3.1s0.6-1.8,1.1-2.5h1.1c-0.5,0.8-0.8,1.7-1.1,2.6
			s-0.3,1.9-0.3,3c0,1.1,0.1,2.1,0.3,3c0.2,0.9,0.6,1.8,1.1,2.6h-1.1C447.1,312.3,446.8,311.5,446.5,310.5z"/>
		<path class="st2" d="M455.2,304.7c0.5,0.3,0.9,0.7,1.1,1.1c0.3,0.5,0.4,1.1,0.4,1.7c0,0.6-0.1,1.2-0.4,1.7
			c-0.3,0.5-0.7,0.9-1.1,1.1c-0.5,0.3-1,0.4-1.7,0.4c-0.5,0-0.9-0.1-1.3-0.3c-0.4-0.2-0.7-0.5-1-0.8v1h-1.1v-8.9h1.2v3.5
			c0.3-0.3,0.6-0.6,1-0.8c0.4-0.2,0.8-0.3,1.3-0.3C454.1,304.3,454.7,304.4,455.2,304.7z M454.5,309.5c0.3-0.2,0.6-0.5,0.8-0.8
			c0.2-0.3,0.3-0.7,0.3-1.2c0-0.4-0.1-0.8-0.3-1.2c-0.2-0.3-0.4-0.6-0.8-0.8c-0.3-0.2-0.7-0.3-1.1-0.3c-0.4,0-0.8,0.1-1.1,0.3
			c-0.3,0.2-0.6,0.4-0.8,0.8c-0.2,0.3-0.3,0.7-0.3,1.2c0,0.4,0.1,0.8,0.3,1.2c0.2,0.3,0.4,0.6,0.8,0.8c0.3,0.2,0.7,0.3,1.1,0.3
			C453.8,309.8,454.2,309.7,454.5,309.5z"/>
		<path class="st2" d="M458.3,302.9c-0.1-0.1-0.2-0.3-0.2-0.5s0.1-0.4,0.2-0.5c0.1-0.1,0.3-0.2,0.6-0.2c0.2,0,0.4,0.1,0.6,0.2
			s0.2,0.3,0.2,0.5c0,0.2-0.1,0.4-0.2,0.5c-0.1,0.1-0.3,0.2-0.6,0.2C458.7,303.1,458.5,303.1,458.3,302.9z M458.3,304.4h1.2v6.4
			h-1.2V304.4z"/>
		<path class="st2" d="M461.7,301.8h1.2v8.9h-1.2V301.8z"/>
		<path class="st2" d="M465,301.8h1.2v8.9H465V301.8z"/>
		<path class="st2" d="M468.4,302.9c-0.1-0.1-0.2-0.3-0.2-0.5s0.1-0.4,0.2-0.5c0.1-0.1,0.3-0.2,0.6-0.2c0.2,0,0.4,0.1,0.6,0.2
			s0.2,0.3,0.2,0.5c0,0.2-0.1,0.4-0.2,0.5c-0.1,0.1-0.3,0.2-0.6,0.2C468.7,303.1,468.5,303.1,468.4,302.9z M468.4,304.4h1.2v6.4
			h-1.2V304.4z"/>
		<path class="st2" d="M472.7,310.4c-0.5-0.3-0.9-0.7-1.2-1.2s-0.4-1-0.4-1.7s0.1-1.2,0.4-1.7c0.3-0.5,0.7-0.9,1.2-1.2
			c0.5-0.3,1.1-0.4,1.7-0.4s1.2,0.1,1.7,0.4c0.5,0.3,0.9,0.7,1.2,1.2c0.3,0.5,0.4,1,0.4,1.7s-0.1,1.2-0.4,1.7s-0.7,0.9-1.2,1.2
			c-0.5,0.3-1.1,0.4-1.7,0.4S473.2,310.7,472.7,310.4z M475.5,309.5c0.3-0.2,0.6-0.5,0.8-0.8c0.2-0.3,0.3-0.7,0.3-1.2
			c0-0.4-0.1-0.8-0.3-1.2c-0.2-0.3-0.4-0.6-0.8-0.8c-0.3-0.2-0.7-0.3-1.1-0.3c-0.4,0-0.8,0.1-1.1,0.3c-0.3,0.2-0.6,0.4-0.8,0.8
			c-0.2,0.3-0.3,0.7-0.3,1.2c0,0.4,0.1,0.8,0.3,1.2c0.2,0.3,0.4,0.6,0.8,0.8c0.3,0.2,0.7,0.3,1.1,0.3
			C474.8,309.8,475.2,309.7,475.5,309.5z"/>
		<path class="st2" d="M484.7,305c0.5,0.5,0.7,1.2,0.7,2.1v3.7h-1.2v-3.5c0-0.6-0.1-1.1-0.4-1.4c-0.3-0.3-0.7-0.5-1.3-0.5
			c-0.6,0-1.1,0.2-1.5,0.5c-0.4,0.4-0.5,0.9-0.5,1.6v3.3h-1.2v-6.4h1.1v1c0.2-0.3,0.5-0.6,0.9-0.8c0.4-0.2,0.8-0.3,1.3-0.3
			C483.5,304.3,484.2,304.5,484.7,305z"/>
		<path class="st2" d="M494.3,310.3c-0.2,0.1-0.4,0.3-0.6,0.3s-0.5,0.1-0.8,0.1c-0.6,0-1.1-0.2-1.5-0.5c-0.4-0.3-0.5-0.8-0.5-1.5
			v-3.5h-1.1v-0.9h1.1V303h1.2v1.4h1.8v0.9h-1.8v3.4c0,0.3,0.1,0.6,0.3,0.8c0.2,0.2,0.4,0.3,0.7,0.3c0.4,0,0.7-0.1,0.9-0.3
			L494.3,310.3z"/>
		<path class="st2" d="M496.5,310.4c-0.5-0.3-0.9-0.7-1.2-1.2c-0.3-0.5-0.4-1-0.4-1.7s0.1-1.2,0.4-1.7c0.3-0.5,0.7-0.9,1.2-1.2
			c0.5-0.3,1.1-0.4,1.7-0.4s1.2,0.1,1.7,0.4c0.5,0.3,0.9,0.7,1.2,1.2c0.3,0.5,0.4,1,0.4,1.7s-0.1,1.2-0.4,1.7
			c-0.3,0.5-0.7,0.9-1.2,1.2c-0.5,0.3-1.1,0.4-1.7,0.4S497,310.7,496.5,310.4z M499.3,309.5c0.3-0.2,0.6-0.5,0.8-0.8
			c0.2-0.3,0.3-0.7,0.3-1.2c0-0.4-0.1-0.8-0.3-1.2c-0.2-0.3-0.4-0.6-0.8-0.8c-0.3-0.2-0.7-0.3-1.1-0.3s-0.8,0.1-1.1,0.3
			c-0.3,0.2-0.6,0.4-0.8,0.8c-0.2,0.3-0.3,0.7-0.3,1.2c0,0.4,0.1,0.8,0.3,1.2c0.2,0.3,0.4,0.6,0.8,0.8c0.3,0.2,0.7,0.3,1.1,0.3
			S499,309.7,499.3,309.5z"/>
		<path class="st2" d="M508.4,305c0.5,0.5,0.7,1.2,0.7,2.1v3.7H508v-3.5c0-0.6-0.1-1.1-0.4-1.4c-0.3-0.3-0.7-0.5-1.3-0.5
			c-0.6,0-1.1,0.2-1.5,0.5s-0.5,0.9-0.5,1.6v3.3h-1.2v-6.4h1.1v1c0.2-0.3,0.5-0.6,0.9-0.8c0.4-0.2,0.8-0.3,1.3-0.3
			C507.3,304.3,508,304.5,508.4,305z"/>
		<path class="st2" d="M511.6,310.6c-0.5-0.1-0.9-0.3-1.1-0.5l0.5-0.9c0.3,0.2,0.6,0.4,1,0.5c0.4,0.1,0.8,0.2,1.2,0.2
			c1,0,1.5-0.3,1.5-0.9c0-0.2-0.1-0.3-0.2-0.5c-0.1-0.1-0.3-0.2-0.5-0.2c-0.2-0.1-0.5-0.1-0.9-0.2c-0.5-0.1-0.9-0.2-1.3-0.3
			c-0.3-0.1-0.6-0.3-0.8-0.5c-0.2-0.2-0.3-0.6-0.3-1c0-0.6,0.2-1,0.7-1.4c0.5-0.3,1.1-0.5,1.9-0.5c0.4,0,0.8,0.1,1.3,0.2
			c0.4,0.1,0.8,0.2,1,0.4l-0.5,0.9c-0.5-0.3-1.1-0.5-1.8-0.5c-0.5,0-0.9,0.1-1.1,0.2c-0.3,0.2-0.4,0.4-0.4,0.6
			c0,0.2,0.1,0.4,0.2,0.5c0.1,0.1,0.3,0.2,0.5,0.3c0.2,0.1,0.5,0.1,0.9,0.2c0.5,0.1,0.9,0.2,1.2,0.3c0.3,0.1,0.6,0.3,0.8,0.5
			c0.2,0.2,0.3,0.6,0.3,1c0,0.6-0.2,1-0.7,1.4c-0.5,0.3-1.2,0.5-2,0.5C512.6,310.8,512.1,310.7,511.6,310.6z"/>
		<path class="st2" d="M516.6,313c0.5-0.8,0.8-1.7,1.1-2.6c0.2-0.9,0.3-1.9,0.3-3c0-1.1-0.1-2.1-0.3-3c-0.2-0.9-0.6-1.8-1.1-2.6h1.1
			c0.5,0.7,0.8,1.6,1.1,2.5s0.4,2,0.4,3.1c0,1.1-0.1,2.1-0.4,3.1s-0.6,1.8-1.1,2.5H516.6z"/>
	</g>
	<path class="st0" d="M679.8,263.4h6.5v-250h-6.5"/>
	<g transform="translate(0,275.5)">
		<line class="st0" x1="685.8" y1="-12.1" x2="679.8" y2="-12.1"/>
		<g class="st1">
			<path class="st2" d="M672.1-9.3c-0.4-0.3-0.8-0.7-1-1.2c-0.2-0.5-0.4-1.2-0.4-1.9s0.1-1.4,0.4-1.9c0.2-0.5,0.6-0.9,1-1.2
				c0.4-0.3,0.9-0.4,1.4-0.4s1,0.1,1.4,0.4c0.4,0.3,0.8,0.7,1,1.2c0.2,0.5,0.4,1.2,0.4,1.9s-0.1,1.4-0.4,1.9c-0.2,0.5-0.6,0.9-1,1.2
				c-0.4,0.3-0.9,0.4-1.4,0.4S672.5-9,672.1-9.3z M674.6-9.8c0.3-0.2,0.6-0.6,0.7-1c0.2-0.4,0.3-1,0.3-1.6s-0.1-1.1-0.3-1.6
				c-0.2-0.4-0.4-0.8-0.7-1c-0.3-0.2-0.7-0.3-1.1-0.3c-0.4,0-0.8,0.1-1.1,0.3c-0.3,0.2-0.6,0.6-0.7,1c-0.2,0.4-0.3,1-0.3,1.6
				s0.1,1.1,0.3,1.6c0.2,0.4,0.4,0.8,0.7,1c0.3,0.2,0.7,0.3,1.1,0.3C673.9-9.5,674.3-9.6,674.6-9.8z"/>
		</g>
	</g>
	<g transform="translate(0,250.5)">
		<line class="st0" x1="685.8" y1="-12.1" x2="679.8" y2="-12.1"/>
		<g class="st1">
			<path class="st2" d="M675.7-15.9v7h-0.7v-6.4h-1.7v-0.6H675.7z"/>
		</g>
	</g>
	<g transform="translate(0,225.5)">
		<line class="st0" x1="685.8" y1="-12.1" x2="679.8" y2="-12.1"/>
		<g class="st1">
			<path class="st2" d="M676.4-9.5v0.6h-4.9v-0.5l2.9-2.9c0.4-0.4,0.6-0.7,0.7-0.9s0.2-0.5,0.2-0.8c0-0.4-0.1-0.7-0.4-1
				c-0.3-0.2-0.7-0.3-1.2-0.3c-0.8,0-1.5,0.3-1.9,0.8l-0.5-0.4c0.3-0.3,0.6-0.6,1-0.7c0.4-0.2,0.9-0.3,1.4-0.3
				c0.7,0,1.3,0.2,1.7,0.5c0.4,0.3,0.6,0.8,0.6,1.4c0,0.4-0.1,0.7-0.2,1c-0.2,0.3-0.5,0.7-0.9,1.1l-2.4,2.3H676.4z"/>
		</g>
	</g>
	<g transform="translate(0,200.5)">
		<line class="st0" x1="685.8" y1="-12.1" x2="679.8" y2="-12.1"/>
		<g class="st1">
			<path class="st2" d="M675.7-12.3c0.4,0.4,0.6,0.8,0.6,1.4c0,0.4-0.1,0.8-0.3,1.1c-0.2,0.3-0.5,0.6-0.9,0.7s-0.8,0.3-1.4,0.3
				c-0.5,0-1-0.1-1.4-0.2c-0.5-0.2-0.8-0.4-1.1-0.7l0.3-0.6c0.2,0.2,0.5,0.4,0.9,0.6c0.4,0.2,0.8,0.2,1.2,0.2c0.6,0,1-0.1,1.3-0.4
				s0.5-0.6,0.5-1c0-0.4-0.2-0.8-0.5-1c-0.3-0.2-0.8-0.4-1.4-0.4h-0.5v-0.5l1.9-2.4h-3.6v-0.6h4.5v0.5l-2,2.5
				C674.8-12.9,675.4-12.7,675.7-12.3z"/>
		</g>
	</g>
	<g transform="translate(0,175.5)">
		<line class="st0" x1="685.8" y1="-12.1" x2="679.8" y2="-12.1"/>
		<g class="st1">
			<path class="st2" d="M676.7-10.7h-1.4v1.8h-0.7v-1.8h-4v-0.5l3.7-4.6h0.8l-3.6,4.5h3V-13h0.7v1.6h1.4V-10.7z"/>
		</g>
	</g>
	<g transform="translate(0,150.5)">
		<line class="st0" x1="685.8" y1="-12.1" x2="679.8" y2="-12.1"/>
		<g class="st1">
			<path class="st2" d="M675.7-12.5c0.5,0.4,0.7,0.9,0.7,1.5c0,0.4-0.1,0.8-0.3,1.1c-0.2,0.3-0.5,0.6-0.9,0.8s-0.8,0.3-1.4,0.3
				c-0.5,0-1-0.1-1.4-0.2c-0.5-0.2-0.8-0.4-1.1-0.7l0.3-0.6c0.2,0.2,0.5,0.4,0.9,0.6c0.4,0.2,0.8,0.2,1.2,0.2c0.6,0,1-0.1,1.3-0.4
				c0.3-0.3,0.5-0.6,0.5-1c0-0.5-0.2-0.8-0.5-1.1c-0.4-0.2-1-0.4-1.8-0.4h-1.5l0.4-3.5h3.8v0.6h-3.2l-0.2,2.2h0.9
				C674.5-13,675.3-12.8,675.7-12.5z"/>
		</g>
	</g>
	<g transform="translate(0,125.5)">
		<line class="st0" x1="685.8" y1="-12.1" x2="679.8" y2="-12.1"/>
		<g class="st1">
			<path class="st2" d="M675.4-12.8c0.4,0.2,0.6,0.4,0.8,0.7c0.2,0.3,0.3,0.7,0.3,1.1c0,0.4-0.1,0.8-0.3,1.1
				c-0.2,0.3-0.5,0.6-0.9,0.8c-0.4,0.2-0.8,0.3-1.2,0.3c-0.9,0-1.6-0.3-2.1-0.9c-0.5-0.6-0.7-1.5-0.7-2.6c0-0.8,0.1-1.4,0.4-2
				s0.6-0.9,1.1-1.2c0.5-0.3,1-0.4,1.7-0.4c0.7,0,1.2,0.1,1.7,0.4l-0.3,0.6c-0.3-0.2-0.8-0.3-1.4-0.3c-0.8,0-1.4,0.2-1.8,0.7
				c-0.4,0.5-0.7,1.2-0.7,2.1c0,0.2,0,0.4,0,0.6c0.2-0.4,0.5-0.7,0.8-0.9c0.4-0.2,0.8-0.3,1.3-0.3C674.6-13.1,675-13,675.4-12.8z
				 M675.3-9.9c0.3-0.3,0.5-0.6,0.5-1.1s-0.2-0.8-0.5-1.1s-0.7-0.4-1.3-0.4c-0.4,0-0.7,0.1-0.9,0.2c-0.3,0.1-0.5,0.3-0.6,0.5
				c-0.2,0.2-0.2,0.5-0.2,0.8c0,0.3,0.1,0.5,0.2,0.7s0.4,0.4,0.6,0.5c0.3,0.1,0.6,0.2,1,0.2C674.6-9.4,675-9.6,675.3-9.9z"/>
		</g>
	</g>
	<g transform="translate(0,100.5)">
		<line class="st0" x1="685.8" y1="-12.1" x2="679.8" y2="-12.1"/>
		<g class="st1">
			<path class="st2" d="M676.4-15.9v0.5l-2.9,6.5h-0.8l2.9-6.4h-3.6v1.3h-0.7v-2H676.4z"/>
		</g>
	</g>
	<g transform="translate(0,75.5)">
		<line class="st0" x1="685.8" y1="-12.1" x2="679.8" y2="-12.1"/>
		<g class="st1">
			<path class="st2" d="M676-11.9c0.2,0.3,0.4,0.6,0.4,1.1c0,0.4-0.1,0.8-0.3,1.1c-0.2,0.3-0.5,0.5-0.9,0.7
				c-0.4,0.2-0.9,0.2-1.4,0.2c-0.8,0-1.5-0.2-2-0.5c-0.5-0.4-0.7-0.8-0.7-1.5c0-0.4,0.1-0.8,0.3-1.1s0.6-0.5,1-0.7
				c-0.4-0.1-0.6-0.3-0.8-0.6c-0.2-0.3-0.3-0.6-0.3-0.9c0-0.6,0.2-1,0.7-1.3c0.4-0.3,1-0.5,1.8-0.5c0.5,0,0.9,0.1,1.3,0.2
				c0.4,0.2,0.7,0.4,0.9,0.6c0.2,0.3,0.3,0.6,0.3,1c0,0.4-0.1,0.7-0.3,0.9c-0.2,0.3-0.5,0.5-0.8,0.6C675.4-12.4,675.7-12.2,676-11.9
				z M675.1-9.8c0.4-0.3,0.5-0.6,0.5-1s-0.2-0.8-0.5-1c-0.3-0.2-0.8-0.4-1.5-0.4c-0.6,0-1.1,0.1-1.4,0.4c-0.4,0.2-0.5,0.6-0.5,1
				c0,0.4,0.2,0.8,0.5,1c0.3,0.2,0.8,0.4,1.5,0.4C674.2-9.4,674.7-9.6,675.1-9.8z M672.3-13.2c0.3,0.2,0.7,0.3,1.3,0.3
				c0.5,0,1-0.1,1.3-0.3s0.5-0.5,0.5-0.9c0-0.4-0.2-0.7-0.5-0.9c-0.3-0.2-0.7-0.3-1.3-0.3c-0.5,0-1,0.1-1.3,0.3
				c-0.3,0.2-0.5,0.5-0.5,0.9C671.9-13.7,672-13.4,672.3-13.2z"/>
		</g>
	</g>
	<g transform="translate(0,50.5)">
		<line class="st0" x1="685.8" y1="-12.1" x2="679.8" y2="-12.1"/>
		<g class="st1">
			<path class="st2" d="M675.5-15c0.5,0.6,0.7,1.5,0.7,2.6c0,0.8-0.1,1.4-0.4,2s-0.6,0.9-1.1,1.2c-0.5,0.3-1,0.4-1.7,0.4
				c-0.7,0-1.2-0.1-1.7-0.4l0.3-0.6c0.3,0.2,0.8,0.3,1.4,0.3c0.8,0,1.4-0.2,1.8-0.7c0.4-0.5,0.7-1.2,0.7-2.1c0-0.2,0-0.4,0-0.6
				c-0.2,0.4-0.5,0.7-0.8,0.9s-0.8,0.3-1.3,0.3c-0.5,0-0.9-0.1-1.2-0.3c-0.4-0.2-0.6-0.4-0.8-0.7c-0.2-0.3-0.3-0.7-0.3-1.1
				c0-0.4,0.1-0.8,0.3-1.1c0.2-0.3,0.5-0.6,0.9-0.8s0.8-0.3,1.2-0.3C674.3-16,675.1-15.6,675.5-15z M674.4-12.5
				c0.3-0.1,0.5-0.3,0.6-0.5s0.2-0.5,0.2-0.8c0-0.3-0.1-0.5-0.2-0.7c-0.1-0.2-0.4-0.4-0.6-0.5c-0.3-0.1-0.6-0.2-1-0.2
				c-0.5,0-0.9,0.1-1.2,0.4c-0.3,0.3-0.5,0.6-0.5,1.1s0.2,0.8,0.5,1.1c0.3,0.3,0.7,0.4,1.3,0.4C673.9-12.3,674.2-12.4,674.4-12.5z"
				/>
		</g>
	</g>
	<g transform="translate(0,25.5)">
		<line class="st0" x1="685.8" y1="-12.1" x2="679.8" y2="-12.1"/>
		<g class="st1">
			<path class="st2" d="M669-15.9v7h-0.7v-6.4h-1.7v-0.6H669z"/>
			<path class="st2" d="M672.1-9.3c-0.4-0.3-0.8-0.7-1-1.2c-0.2-0.5-0.4-1.2-0.4-1.9s0.1-1.4,0.4-1.9c0.2-0.5,0.6-0.9,1-1.2
				c0.4-0.3,0.9-0.4,1.4-0.4s1,0.1,1.4,0.4c0.4,0.3,0.8,0.7,1,1.2c0.2,0.5,0.4,1.2,0.4,1.9s-0.1,1.4-0.4,1.9c-0.2,0.5-0.6,0.9-1,1.2
				c-0.4,0.3-0.9,0.4-1.4,0.4S672.5-9,672.1-9.3z M674.6-9.8c0.3-0.2,0.6-0.6,0.7-1c0.2-0.4,0.3-1,0.3-1.6s-0.1-1.1-0.3-1.6
				c-0.2-0.4-0.4-0.8-0.7-1c-0.3-0.2-0.7-0.3-1.1-0.3c-0.4,0-0.8,0.1-1.1,0.3c-0.3,0.2-0.6,0.6-0.7,1c-0.2,0.4-0.3,1-0.3,1.6
				s0.1,1.1,0.3,1.6c0.2,0.4,0.4,0.8,0.7,1c0.3,0.2,0.7,0.3,1.1,0.3C673.9-9.5,674.3-9.6,674.6-9.8z"/>
		</g>
	</g>
	<g pointer-events="all">
		<rect x="675.8" y="12.9" pointer-events="all" class="st3" width="20" height="250"/>
		<polygon shape-rendering="crispEdges" class="st4" points="685.8,-12.1 685.8,-12.1 685.8,-12.1 		"/>
		<polygon class="st5" points="685.8,-12.1 685.8,-12.1 685.8,-12.1 		"/>
		<polygon class="st5" points="685.8,-12.1 685.8,-12.1 685.8,-12.1 		"/>
	</g>
	<g class="st1">
		<path class="st2" d="M640.2,296.3l0-6.1l-3,5.1h-0.6l-3-5.1v6.1h-1.2v-8.4h1l3.5,5.9l3.5-5.9h1l0,8.4H640.2z"/>
		<path class="st2" d="M649.4,293.5h-5.2c0.1,0.6,0.3,1,0.7,1.3c0.4,0.3,0.9,0.5,1.6,0.5c0.8,0,1.4-0.3,1.8-0.8l0.6,0.7
			c-0.3,0.3-0.6,0.6-1.1,0.8c-0.4,0.2-0.9,0.3-1.4,0.3c-0.7,0-1.3-0.1-1.8-0.4c-0.5-0.3-0.9-0.7-1.2-1.2s-0.4-1.1-0.4-1.7
			c0-0.6,0.1-1.2,0.4-1.7c0.3-0.5,0.7-0.9,1.1-1.2c0.5-0.3,1-0.4,1.6-0.4c0.6,0,1.2,0.1,1.6,0.4c0.5,0.3,0.8,0.7,1.1,1.2
			c0.3,0.5,0.4,1.1,0.4,1.7C649.4,293.3,649.4,293.4,649.4,293.5z M644.9,291.4c-0.4,0.3-0.6,0.8-0.7,1.3h4.1
			c-0.1-0.5-0.3-1-0.7-1.3c-0.4-0.3-0.8-0.5-1.4-0.5C645.7,290.9,645.3,291,644.9,291.4z"/>
		<path class="st2" d="M654.6,295.9c-0.2,0.1-0.4,0.3-0.6,0.3s-0.5,0.1-0.8,0.1c-0.6,0-1.1-0.2-1.5-0.5c-0.4-0.3-0.5-0.8-0.5-1.5
			v-3.5h-1.1V290h1.1v-1.4h1.2v1.4h1.8v0.9h-1.8v3.4c0,0.3,0.1,0.6,0.3,0.8c0.2,0.2,0.4,0.3,0.7,0.3c0.4,0,0.7-0.1,0.9-0.3
			L654.6,295.9z"/>
		<path class="st2" d="M661.3,290.6c0.5,0.5,0.7,1.2,0.7,2.1v3.7h-1.2v-3.5c0-0.6-0.1-1.1-0.4-1.4c-0.3-0.3-0.7-0.5-1.3-0.5
			c-0.6,0-1.1,0.2-1.5,0.5c-0.4,0.4-0.5,0.9-0.5,1.6v3.3H656v-8.9h1.2v3.4c0.2-0.3,0.6-0.5,0.9-0.7s0.8-0.3,1.3-0.3
			C660.2,289.9,660.8,290.1,661.3,290.6z"/>
		<path class="st2" d="M668.5,290.5c0.5,0.4,0.7,1.1,0.7,1.9v3.8h-1.1v-0.8c-0.2,0.3-0.5,0.5-0.8,0.7c-0.4,0.2-0.8,0.2-1.3,0.2
			c-0.7,0-1.3-0.2-1.7-0.5c-0.4-0.3-0.6-0.8-0.6-1.4c0-0.6,0.2-1,0.6-1.4c0.4-0.3,1.1-0.5,1.9-0.5h1.8v-0.2c0-0.5-0.1-0.9-0.4-1.1
			c-0.3-0.3-0.7-0.4-1.3-0.4c-0.4,0-0.7,0.1-1.1,0.2c-0.4,0.1-0.7,0.3-0.9,0.5l-0.5-0.9c0.3-0.3,0.7-0.5,1.2-0.6s0.9-0.2,1.5-0.2
			C667.4,289.9,668,290.1,668.5,290.5z M667.4,295.2c0.3-0.2,0.6-0.5,0.7-0.8v-0.9h-1.8c-1,0-1.5,0.3-1.5,1c0,0.3,0.1,0.6,0.4,0.8
			c0.2,0.2,0.6,0.3,1,0.3C666.7,295.5,667,295.4,667.4,295.2z"/>
		<path class="st2" d="M676.7,290.6c0.5,0.5,0.7,1.2,0.7,2.1v3.7h-1.2v-3.5c0-0.6-0.1-1.1-0.4-1.4c-0.3-0.3-0.7-0.5-1.3-0.5
			c-0.6,0-1.1,0.2-1.5,0.5s-0.5,0.9-0.5,1.6v3.3h-1.2V290h1.1v1c0.2-0.3,0.5-0.6,0.9-0.8c0.4-0.2,0.8-0.3,1.3-0.3
			C675.6,289.9,676.2,290.1,676.7,290.6z"/>
		<path class="st2" d="M685.3,293.5h-5.2c0.1,0.6,0.3,1,0.7,1.3c0.4,0.3,0.9,0.5,1.6,0.5c0.8,0,1.4-0.3,1.8-0.8l0.6,0.7
			c-0.3,0.3-0.6,0.6-1.1,0.8c-0.4,0.2-0.9,0.3-1.4,0.3c-0.7,0-1.3-0.1-1.8-0.4c-0.5-0.3-0.9-0.7-1.2-1.2c-0.3-0.5-0.4-1.1-0.4-1.7
			c0-0.6,0.1-1.2,0.4-1.7c0.3-0.5,0.7-0.9,1.1-1.2c0.5-0.3,1-0.4,1.6-0.4c0.6,0,1.1,0.1,1.6,0.4c0.5,0.3,0.8,0.7,1.1,1.2
			c0.3,0.5,0.4,1.1,0.4,1.7C685.3,293.3,685.3,293.4,685.3,293.5z M680.8,291.4c-0.4,0.3-0.6,0.8-0.7,1.3h4.1
			c-0.1-0.5-0.3-1-0.7-1.3c-0.4-0.3-0.8-0.5-1.4-0.5S681.1,291,680.8,291.4z"/>
		<path class="st2" d="M631.9,309.7v1h-6.1v-8.4h5.9v1H627v2.6h4.2v1H627v2.7H631.9z"/>
		<path class="st2" d="M643.6,305c0.5,0.5,0.7,1.2,0.7,2.1v3.7h-1.2v-3.5c0-0.6-0.1-1.1-0.4-1.4c-0.3-0.3-0.7-0.5-1.2-0.5
			c-0.6,0-1,0.2-1.4,0.5c-0.3,0.4-0.5,0.9-0.5,1.6v3.3h-1.2v-3.5c0-0.6-0.1-1.1-0.4-1.4c-0.3-0.3-0.7-0.5-1.2-0.5
			c-0.6,0-1,0.2-1.4,0.5c-0.3,0.4-0.5,0.9-0.5,1.6v3.3h-1.2v-6.4h1.1v0.9c0.2-0.3,0.5-0.6,0.9-0.8s0.8-0.3,1.3-0.3
			c0.5,0,0.9,0.1,1.3,0.3c0.4,0.2,0.7,0.5,0.9,0.9c0.2-0.4,0.6-0.7,1-0.9c0.4-0.2,0.9-0.3,1.4-0.3
			C642.5,304.3,643.1,304.5,643.6,305z"/>
		<path class="st2" d="M646.4,302.9c-0.1-0.1-0.2-0.3-0.2-0.5s0.1-0.4,0.2-0.5c0.1-0.1,0.3-0.2,0.6-0.2c0.2,0,0.4,0.1,0.6,0.2
			c0.1,0.1,0.2,0.3,0.2,0.5c0,0.2-0.1,0.4-0.2,0.5c-0.1,0.1-0.3,0.2-0.6,0.2C646.7,303.1,646.5,303.1,646.4,302.9z M646.4,304.4h1.2
			v6.4h-1.2V304.4z"/>
		<path class="st2" d="M650.1,310.6c-0.5-0.1-0.9-0.3-1.1-0.5l0.5-0.9c0.3,0.2,0.6,0.4,1,0.5c0.4,0.1,0.8,0.2,1.2,0.2
			c1,0,1.5-0.3,1.5-0.9c0-0.2-0.1-0.3-0.2-0.5c-0.1-0.1-0.3-0.2-0.5-0.2c-0.2-0.1-0.5-0.1-0.9-0.2c-0.5-0.1-0.9-0.2-1.3-0.3
			c-0.3-0.1-0.6-0.3-0.8-0.5c-0.2-0.2-0.3-0.6-0.3-1c0-0.6,0.2-1,0.7-1.4c0.5-0.3,1.1-0.5,1.9-0.5c0.4,0,0.8,0.1,1.3,0.2
			c0.4,0.1,0.8,0.2,1,0.4l-0.5,0.9c-0.5-0.3-1.1-0.5-1.8-0.5c-0.5,0-0.9,0.1-1.1,0.2c-0.3,0.2-0.4,0.4-0.4,0.6
			c0,0.2,0.1,0.4,0.2,0.5c0.1,0.1,0.3,0.2,0.5,0.3c0.2,0.1,0.5,0.1,0.9,0.2c0.5,0.1,0.9,0.2,1.2,0.3c0.3,0.1,0.6,0.3,0.8,0.5
			c0.2,0.2,0.3,0.6,0.3,1c0,0.6-0.2,1-0.7,1.4c-0.5,0.3-1.2,0.5-2,0.5C651,310.8,650.5,310.7,650.1,310.6z"/>
		<path class="st2" d="M656.1,310.6c-0.5-0.1-0.9-0.3-1.1-0.5l0.5-0.9c0.3,0.2,0.6,0.4,1,0.5c0.4,0.1,0.8,0.2,1.2,0.2
			c1,0,1.5-0.3,1.5-0.9c0-0.2-0.1-0.3-0.2-0.5c-0.1-0.1-0.3-0.2-0.5-0.2c-0.2-0.1-0.5-0.1-0.9-0.2c-0.5-0.1-0.9-0.2-1.3-0.3
			c-0.3-0.1-0.6-0.3-0.8-0.5c-0.2-0.2-0.3-0.6-0.3-1c0-0.6,0.2-1,0.7-1.4c0.5-0.3,1.1-0.5,1.9-0.5c0.4,0,0.8,0.1,1.3,0.2
			c0.4,0.1,0.8,0.2,1,0.4l-0.5,0.9c-0.5-0.3-1.1-0.5-1.8-0.5c-0.5,0-0.9,0.1-1.1,0.2c-0.3,0.2-0.4,0.4-0.4,0.6
			c0,0.2,0.1,0.4,0.2,0.5c0.1,0.1,0.3,0.2,0.5,0.3c0.2,0.1,0.5,0.1,0.9,0.2c0.5,0.1,0.9,0.2,1.2,0.3c0.3,0.1,0.6,0.3,0.8,0.5
			c0.2,0.2,0.3,0.6,0.3,1c0,0.6-0.2,1-0.7,1.4c-0.5,0.3-1.2,0.5-2,0.5C657,310.8,656.5,310.7,656.1,310.6z"/>
		<path class="st2" d="M661.8,302.9c-0.1-0.1-0.2-0.3-0.2-0.5s0.1-0.4,0.2-0.5c0.1-0.1,0.3-0.2,0.6-0.2c0.2,0,0.4,0.1,0.6,0.2
			c0.1,0.1,0.2,0.3,0.2,0.5c0,0.2-0.1,0.4-0.2,0.5c-0.1,0.1-0.3,0.2-0.6,0.2C662.1,303.1,661.9,303.1,661.8,302.9z M661.7,304.4h1.2
			v6.4h-1.2V304.4z"/>
		<path class="st2" d="M666.1,310.4c-0.5-0.3-0.9-0.7-1.2-1.2c-0.3-0.5-0.4-1-0.4-1.7s0.1-1.2,0.4-1.7c0.3-0.5,0.7-0.9,1.2-1.2
			c0.5-0.3,1.1-0.4,1.7-0.4s1.2,0.1,1.7,0.4c0.5,0.3,0.9,0.7,1.2,1.2c0.3,0.5,0.4,1,0.4,1.7s-0.1,1.2-0.4,1.7
			c-0.3,0.5-0.7,0.9-1.2,1.2c-0.5,0.3-1.1,0.4-1.7,0.4S666.6,310.7,666.1,310.4z M668.9,309.5c0.3-0.2,0.6-0.5,0.8-0.8
			c0.2-0.3,0.3-0.7,0.3-1.2c0-0.4-0.1-0.8-0.3-1.2c-0.2-0.3-0.4-0.6-0.8-0.8c-0.3-0.2-0.7-0.3-1.1-0.3s-0.8,0.1-1.1,0.3
			c-0.3,0.2-0.6,0.4-0.8,0.8c-0.2,0.3-0.3,0.7-0.3,1.2c0,0.4,0.1,0.8,0.3,1.2c0.2,0.3,0.4,0.6,0.8,0.8c0.3,0.2,0.7,0.3,1.1,0.3
			S668.6,309.7,668.9,309.5z"/>
		<path class="st2" d="M678,305c0.5,0.5,0.7,1.2,0.7,2.1v3.7h-1.2v-3.5c0-0.6-0.1-1.1-0.4-1.4c-0.3-0.3-0.7-0.5-1.3-0.5
			c-0.6,0-1.1,0.2-1.5,0.5s-0.5,0.9-0.5,1.6v3.3h-1.2v-6.4h1.1v1c0.2-0.3,0.5-0.6,0.9-0.8c0.4-0.2,0.8-0.3,1.3-0.3
			C676.9,304.3,677.6,304.5,678,305z"/>
		<path class="st2" d="M681.2,310.6c-0.5-0.1-0.9-0.3-1.1-0.5l0.5-0.9c0.3,0.2,0.6,0.4,1,0.5c0.4,0.1,0.8,0.2,1.2,0.2
			c1,0,1.5-0.3,1.5-0.9c0-0.2-0.1-0.3-0.2-0.5c-0.1-0.1-0.3-0.2-0.5-0.2c-0.2-0.1-0.5-0.1-0.9-0.2c-0.5-0.1-0.9-0.2-1.3-0.3
			c-0.3-0.1-0.6-0.3-0.8-0.5c-0.2-0.2-0.3-0.6-0.3-1c0-0.6,0.2-1,0.7-1.4c0.5-0.3,1.1-0.5,1.9-0.5c0.4,0,0.8,0.1,1.3,0.2
			c0.4,0.1,0.8,0.2,1,0.4l-0.5,0.9c-0.5-0.3-1.1-0.5-1.8-0.5c-0.5,0-0.9,0.1-1.1,0.2c-0.3,0.2-0.4,0.4-0.4,0.6
			c0,0.2,0.1,0.4,0.2,0.5c0.1,0.1,0.3,0.2,0.5,0.3c0.2,0.1,0.5,0.1,0.9,0.2c0.5,0.1,0.9,0.2,1.2,0.3c0.3,0.1,0.6,0.3,0.8,0.5
			c0.2,0.2,0.3,0.6,0.3,1c0,0.6-0.2,1-0.7,1.4c-0.5,0.3-1.2,0.5-2,0.5C682.2,310.8,681.7,310.7,681.2,310.6z"/>
		<path class="st2" d="M607.6,324.9c-0.2-1-0.4-2-0.4-3.1c0-1.1,0.1-2.1,0.4-3.1c0.2-1,0.6-1.8,1.1-2.5h1.1
			c-0.5,0.8-0.8,1.7-1.1,2.6c-0.2,0.9-0.3,1.9-0.3,3c0,1.1,0.1,2.1,0.3,3c0.2,0.9,0.6,1.8,1.1,2.6h-1.1
			C608.2,326.7,607.8,325.9,607.6,324.9z"/>
		<path class="st2" d="M621.1,319.4c0.5,0.5,0.7,1.2,0.7,2.1v3.7h-1.2v-3.5c0-0.6-0.1-1.1-0.4-1.4c-0.3-0.3-0.7-0.5-1.2-0.5
			c-0.6,0-1,0.2-1.4,0.5c-0.3,0.4-0.5,0.9-0.5,1.6v3.3h-1.2v-3.5c0-0.6-0.1-1.1-0.4-1.4c-0.3-0.3-0.7-0.5-1.2-0.5
			c-0.6,0-1,0.2-1.4,0.5c-0.3,0.4-0.5,0.9-0.5,1.6v3.3h-1.2v-6.4h1.1v0.9c0.2-0.3,0.5-0.6,0.9-0.8s0.8-0.3,1.3-0.3
			c0.5,0,0.9,0.1,1.3,0.3c0.4,0.2,0.7,0.5,0.9,0.9c0.2-0.4,0.6-0.7,1-0.9c0.4-0.2,0.9-0.3,1.4-0.3
			C620,318.7,620.6,318.9,621.1,319.4z"/>
		<path class="st2" d="M623.9,317.3c-0.1-0.1-0.2-0.3-0.2-0.5s0.1-0.4,0.2-0.5c0.1-0.1,0.3-0.2,0.6-0.2c0.2,0,0.4,0.1,0.6,0.2
			c0.1,0.1,0.2,0.3,0.2,0.5c0,0.2-0.1,0.4-0.2,0.5c-0.1,0.1-0.3,0.2-0.6,0.2C624.2,317.5,624,317.5,623.9,317.3z M623.9,318.8h1.2
			v6.4h-1.2V318.8z"/>
		<path class="st2" d="M627.2,316.2h1.2v8.9h-1.2V316.2z"/>
		<path class="st2" d="M630.6,316.2h1.2v8.9h-1.2V316.2z"/>
		<path class="st2" d="M633.9,317.3c-0.1-0.1-0.2-0.3-0.2-0.5s0.1-0.4,0.2-0.5c0.1-0.1,0.3-0.2,0.6-0.2c0.2,0,0.4,0.1,0.6,0.2
			c0.1,0.1,0.2,0.3,0.2,0.5c0,0.2-0.1,0.4-0.2,0.5c-0.1,0.1-0.3,0.2-0.6,0.2C634.3,317.5,634.1,317.5,633.9,317.3z M633.9,318.8h1.2
			v6.4h-1.2V318.8z"/>
		<path class="st2" d="M638.3,324.8c-0.5-0.3-0.9-0.7-1.2-1.2c-0.3-0.5-0.4-1-0.4-1.7s0.1-1.2,0.4-1.7c0.3-0.5,0.7-0.9,1.2-1.2
			c0.5-0.3,1.1-0.4,1.7-0.4s1.2,0.1,1.7,0.4c0.5,0.3,0.9,0.7,1.2,1.2c0.3,0.5,0.4,1,0.4,1.7s-0.1,1.2-0.4,1.7
			c-0.3,0.5-0.7,0.9-1.2,1.2c-0.5,0.3-1.1,0.4-1.7,0.4S638.8,325.1,638.3,324.8z M641.1,323.9c0.3-0.2,0.6-0.5,0.8-0.8
			c0.2-0.3,0.3-0.7,0.3-1.2c0-0.4-0.1-0.8-0.3-1.2c-0.2-0.3-0.4-0.6-0.8-0.8c-0.3-0.2-0.7-0.3-1.1-0.3s-0.8,0.1-1.1,0.3
			c-0.3,0.2-0.6,0.4-0.8,0.8c-0.2,0.3-0.3,0.7-0.3,1.2c0,0.4,0.1,0.8,0.3,1.2c0.2,0.3,0.4,0.6,0.8,0.8c0.3,0.2,0.7,0.3,1.1,0.3
			S640.8,324.1,641.1,323.9z"/>
		<path class="st2" d="M650.2,319.4c0.5,0.5,0.7,1.2,0.7,2.1v3.7h-1.2v-3.5c0-0.6-0.1-1.1-0.4-1.4c-0.3-0.3-0.7-0.5-1.3-0.5
			c-0.6,0-1.1,0.2-1.5,0.5s-0.5,0.9-0.5,1.6v3.3h-1.2v-6.4h1.1v1c0.2-0.3,0.5-0.6,0.9-0.8c0.4-0.2,0.8-0.3,1.3-0.3
			C649.1,318.7,649.7,318.9,650.2,319.4z"/>
		<path class="st2" d="M659.9,324.7c-0.2,0.1-0.4,0.3-0.6,0.3s-0.5,0.1-0.8,0.1c-0.6,0-1.1-0.2-1.5-0.5c-0.4-0.3-0.5-0.8-0.5-1.5
			v-3.5h-1.1v-0.9h1.1v-1.4h1.2v1.4h1.8v0.9h-1.8v3.4c0,0.3,0.1,0.6,0.3,0.8c0.2,0.2,0.4,0.3,0.7,0.3c0.4,0,0.7-0.1,0.9-0.3
			L659.9,324.7z"/>
		<path class="st2" d="M662.1,324.8c-0.5-0.3-0.9-0.7-1.2-1.2s-0.4-1-0.4-1.7s0.1-1.2,0.4-1.7c0.3-0.5,0.7-0.9,1.2-1.2
			c0.5-0.3,1.1-0.4,1.7-0.4s1.2,0.1,1.7,0.4c0.5,0.3,0.9,0.7,1.2,1.2c0.3,0.5,0.4,1,0.4,1.7s-0.1,1.2-0.4,1.7s-0.7,0.9-1.2,1.2
			c-0.5,0.3-1.1,0.4-1.7,0.4S662.6,325.1,662.1,324.8z M664.9,323.9c0.3-0.2,0.6-0.5,0.8-0.8c0.2-0.3,0.3-0.7,0.3-1.2
			c0-0.4-0.1-0.8-0.3-1.2c-0.2-0.3-0.4-0.6-0.8-0.8c-0.3-0.2-0.7-0.3-1.1-0.3c-0.4,0-0.8,0.1-1.1,0.3c-0.3,0.2-0.6,0.4-0.8,0.8
			c-0.2,0.3-0.3,0.7-0.3,1.2c0,0.4,0.1,0.8,0.3,1.2c0.2,0.3,0.4,0.6,0.8,0.8c0.3,0.2,0.7,0.3,1.1,0.3
			C664.2,324.2,664.5,324.1,664.9,323.9z"/>
		<path class="st2" d="M674,319.4c0.5,0.5,0.7,1.2,0.7,2.1v3.7h-1.2v-3.5c0-0.6-0.1-1.1-0.4-1.4c-0.3-0.3-0.7-0.5-1.3-0.5
			c-0.6,0-1.1,0.2-1.5,0.5c-0.4,0.4-0.5,0.9-0.5,1.6v3.3h-1.2v-6.4h1.1v1c0.2-0.3,0.5-0.6,0.9-0.8c0.4-0.2,0.8-0.3,1.3-0.3
			C672.9,318.7,673.5,318.9,674,319.4z"/>
		<path class="st2" d="M677.2,325c-0.5-0.1-0.9-0.3-1.1-0.5l0.5-0.9c0.3,0.2,0.6,0.4,1,0.5c0.4,0.1,0.8,0.2,1.2,0.2
			c1,0,1.5-0.3,1.5-0.9c0-0.2-0.1-0.3-0.2-0.5c-0.1-0.1-0.3-0.2-0.5-0.2c-0.2-0.1-0.5-0.1-0.9-0.2c-0.5-0.1-0.9-0.2-1.3-0.3
			c-0.3-0.1-0.6-0.3-0.8-0.5c-0.2-0.2-0.3-0.6-0.3-1c0-0.6,0.2-1,0.7-1.4c0.5-0.3,1.1-0.5,1.9-0.5c0.4,0,0.8,0.1,1.3,0.2
			c0.4,0.1,0.8,0.2,1,0.4l-0.5,0.9c-0.5-0.3-1.1-0.5-1.8-0.5c-0.5,0-0.9,0.1-1.1,0.2c-0.3,0.2-0.4,0.4-0.4,0.6
			c0,0.2,0.1,0.4,0.2,0.5c0.1,0.1,0.3,0.2,0.5,0.3c0.2,0.1,0.5,0.1,0.9,0.2c0.5,0.1,0.9,0.2,1.2,0.3c0.3,0.1,0.6,0.3,0.8,0.5
			c0.2,0.2,0.3,0.6,0.3,1c0,0.6-0.2,1-0.7,1.4c-0.5,0.3-1.2,0.5-2,0.5C678.1,325.2,677.6,325.1,677.2,325z"/>
		<path class="st2" d="M682.1,327.4c0.5-0.8,0.8-1.7,1.1-2.6c0.2-0.9,0.3-1.9,0.3-3c0-1.1-0.1-2.1-0.3-3c-0.2-0.9-0.6-1.8-1.1-2.6
			h1.1c0.5,0.7,0.8,1.6,1.1,2.5s0.4,2,0.4,3.1c0,1.1-0.1,2.1-0.4,3.1s-0.6,1.8-1.1,2.5H682.1z"/>
	</g>
</g>
<g id="paths">
	<g>
		<path class="st6" d="M35.8,262.9L252.5,66l216.7,29.9l216.7-30.8"/>
		<path class="st6" d="M35.8,257.4L252.5,66l216.7,24.4l216.7-28.8"/>
		<path class="st6" d="M35.8,253.4L252.5,66l216.7,21.9l216.7-28.5"/>
		<path class="st6" d="M35.8,247.4L252.5,66.7l216.7,19.8l216.7-26.2"/>
		<path class="st6" d="M35.8,242.4L252.5,66.7l216.7,18.2l216.7-28.8"/>
		<path class="st6" d="M35.8,228.9L252.5,67.3l216.7,17.6l216.7-30"/>
		<path class="st6" d="M35.8,218.4L252.5,67.3l216.7,18.1l216.7-28.2"/>
		<path class="st6" d="M35.8,193.4L252.5,67.3l216.7,15.1l216.7-27.8"/>
		<path class="st6" d="M35.8,150.4l216.7-82.5l216.7,11l216.7-28.2"/>
		<path class="st6" d="M35.8,129.9l216.7-62l216.7,9.5l216.7-29.8"/>
		<path class="st6" d="M35.8,49.9l216.7,18l216.7,18.5"/>
	</g>
</g>
</svg>
