<?xml version="1.0" encoding="UTF-8"?><svg id="Layer_1" xmlns="http://www.w3.org/2000/svg" viewBox="0 0 403.5 39.24"><defs><style>.cls-1{fill:#f04e23;}</style></defs><path class="cls-1" d="M-.04,38.05V1.76H17.69c12.13,0,17.94,7.1,17.94,18.1v.1c0,10.99-5.81,18.1-17.94,18.1H-.04ZM20.65,19.85c0-7.47-1.19-9.28-5.03-9.28h-1.3V29.24h1.3c3.84,0,5.03-1.81,5.03-9.28v-.1Z"/><path class="cls-1" d="M57,32.55h-8.97l-1.3,5.5h-12.24L44.71,1.76h17.99l10.21,36.29h-14.62l-1.3-5.5Zm-4.46-19.29l-2.49,10.63h4.92l-2.44-10.63Z"/><path class="cls-1" d="M94.07,12.07v25.98h-14.47V12.07h-8.81V1.76h32.09V12.07h-8.81Z"/><path class="cls-1" d="M123.27,32.55h-8.97l-1.3,5.5h-12.24L110.98,1.76h17.99l10.21,36.29h-14.62l-1.3-5.5Zm-4.46-19.29l-2.49,10.63h4.93l-2.44-10.63Z"/><path class="cls-1" d="M149.87,33.7l4.87-8.4c4.3,2.96,8.4,4.36,11.56,4.36,1.92,0,2.75-.67,2.75-1.66,0-.93-.62-1.5-2.96-1.97l-4.04-.83c-7.41-1.5-10.94-5.03-10.94-11.56,0-7.41,6.07-12.65,17.06-12.65,5.08,0,10.27,1.35,14.98,4.15l-4.77,8.19c-3.63-2.33-7.1-3.47-10.06-3.47-2.13,0-2.9,.57-2.9,1.45,0,.78,.57,1.24,2.44,1.61l4.04,.78c8.92,1.71,12.24,5.86,12.24,12.03,0,7.73-5.91,13.12-16.59,13.12-6.79,0-13.48-2.02-17.68-5.13Z"/><path class="cls-1" d="M186.06,19.96v-.1c0-11.93,7.1-18.87,18.35-18.87s18.35,6.95,18.35,18.87v.1c0,11.93-7.1,18.87-18.35,18.87s-18.35-6.95-18.35-18.87Zm21.72,0v-.1c0-7.98-1.14-9.96-3.37-9.96s-3.37,1.97-3.37,9.96v.1c0,7.98,1.14,9.96,3.37,9.96s3.37-1.97,3.37-9.96Z"/><path class="cls-1" d="M242.63,29.13c1.87,0,2.85-1.24,2.85-4.2V1.76h13.84V23.01c0,10.32-6.12,15.81-16.9,15.81s-16.96-5.5-16.96-15.81V1.76h14.31V24.93c0,2.96,1.04,4.2,2.85,4.2Z"/><path class="cls-1" d="M278.82,26.18h-1.61v11.87h-14.36V1.76h19.13c11.15,0,15.76,4.67,15.76,12.13,0,4.25-1.97,7.31-6.27,9.38l7.26,14.78h-14.98l-4.93-11.87Zm-1.61-8.66h2.02c2.59,0,3.58-1.04,3.58-3.63s-.98-3.63-3.58-3.63h-2.02v7.26Z"/><path class="cls-1" d="M317.81,.98c10.99,0,15.87,5.7,16.85,14.41l-13.07,1.04c-.42-4.93-1.3-6.53-3.53-6.53-2.54,0-3.68,1.71-3.68,9.96v.1c0,8.09,1.09,9.96,3.68,9.96,2.12,0,3.21-1.14,3.63-6.79l13.17,1.04c-.83,10.11-6.9,14.67-17.06,14.67-11.77,0-18.41-7.36-18.41-18.87v-.1c0-11.51,6.69-18.87,18.41-18.87Z"/><path class="cls-1" d="M337.78,1.76h28.93V11.09h-14.57v3.89h12.13v9.18h-12.13v4.56h14.57v9.33h-28.93V1.76Z"/><path class="cls-1" d="M368.37,33.7l4.87-8.4c4.3,2.96,8.4,4.36,11.56,4.36,1.92,0,2.75-.67,2.75-1.66,0-.93-.62-1.5-2.96-1.97l-4.04-.83c-7.41-1.5-10.94-5.03-10.94-11.56,0-7.41,6.07-12.65,17.06-12.65,5.08,0,10.27,1.35,14.98,4.15l-4.77,8.19c-3.63-2.33-7.1-3.47-10.06-3.47-2.13,0-2.9,.57-2.9,1.45,0,.78,.57,1.24,2.44,1.61l4.04,.78c8.92,1.71,12.24,5.86,12.24,12.03,0,7.73-5.91,13.12-16.59,13.12-6.79,0-13.48-2.02-17.68-5.13Z"/></svg>