<?xml version="1.0" encoding="UTF-8"?><svg id="Layer_1" xmlns="http://www.w3.org/2000/svg" viewBox="0 0 269.33 38.61"><defs><style>.cls-1{fill:#f04e23;}</style></defs><path class="cls-1" d="M.2,1.28H29.13V10.61H14.56v3.89h12.13v9.18H14.56v4.56h14.57v9.33H.2V1.28Z"/><path class="cls-1" d="M48.68,.5c10.99,0,15.87,5.7,16.85,14.41l-13.07,1.04c-.42-4.93-1.3-6.53-3.53-6.53-2.54,0-3.68,1.71-3.68,9.96v.1c0,8.09,1.09,9.96,3.68,9.96,2.12,0,3.21-1.14,3.63-6.79l13.17,1.04c-.83,10.11-6.9,14.67-17.06,14.67-11.77,0-18.41-7.36-18.41-18.87v-.1C30.28,7.86,36.96,.5,48.68,.5Z"/><path class="cls-1" d="M67.82,19.48v-.1c0-11.93,7.1-18.87,18.35-18.87s18.35,6.95,18.35,18.87v.1c0,11.93-7.1,18.87-18.35,18.87s-18.35-6.95-18.35-18.87Zm21.72,0v-.1c0-7.98-1.14-9.96-3.37-9.96s-3.37,1.97-3.37,9.96v.1c0,7.98,1.14,9.96,3.37,9.96s3.37-1.97,3.37-9.96Z"/><path class="cls-1" d="M107.43,37.57V1.28h12.5l9.33,13.95V1.28h12.13V37.57h-11.98l-9.8-14.62v14.62h-12.18Z"/><path class="cls-1" d="M144.35,19.48v-.1c0-11.93,7.1-18.87,18.35-18.87s18.35,6.95,18.35,18.87v.1c0,11.93-7.1,18.87-18.35,18.87s-18.35-6.95-18.35-18.87Zm21.72,0v-.1c0-7.98-1.14-9.96-3.37-9.96s-3.37,1.97-3.37,9.96v.1c0,7.98,1.14,9.96,3.37,9.96s3.37-1.97,3.37-9.96Z"/><path class="cls-1" d="M183.96,37.57V1.28h19.29l3.47,18.61,3.47-18.61h19.03V37.57h-13.38V14.76l-4.72,22.81h-11.15l-4.67-22.71v22.71h-11.36Z"/><path class="cls-1" d="M242.97,37.57v-11.41L231.46,1.28h14.83l5.08,11.87,5.03-11.87h12.44l-11.56,24.89v11.41h-14.31Z"/></svg>