<?xml version="1.0" encoding="utf-8"?>
<!-- Generator: Adobe Illustrator 26.5.0, SVG Export Plug-In . SVG Version: 6.00 Build 0)  -->
<svg version="1.1" xmlns="http://www.w3.org/2000/svg" xmlns:xlink="http://www.w3.org/1999/xlink" x="0px" y="0px"
	 viewBox="0 0 710.6 320.4" style="enable-background:new 0 0 710.6 320.4;" xml:space="preserve">
<style type="text/css">
	.st0{fill:none;stroke:#999999;}
	.st1{enable-background:new    ;}
	.st2{fill:#212121;}
	.st3{fill:none;}
	.st4{display:none;fill:#990000;fill-opacity:0.3;stroke:#FFFFFF;}
	.st5{display:none;fill:none;}
	.st6{fill:none;stroke:#F04E23;stroke-miterlimit:10;}
</style>
<g id="Layer_1">
	<path class="st0" d="M44.6,263.2h6.5v-250h-6.5"/>
	<g transform="translate(0,275.5)">
		<line class="st0" x1="50.6" y1="-12.3" x2="44.6" y2="-12.3"/>
		<g class="st1">
			<path class="st2" d="M12.1-16.1v7h-0.7v-6.4H9.7v-0.6H12.1z"/>
			<path class="st2" d="M15.1-9.5c-0.4-0.3-0.8-0.7-1-1.2c-0.2-0.5-0.4-1.2-0.4-1.9s0.1-1.4,0.4-1.9c0.2-0.5,0.6-0.9,1-1.2
				c0.4-0.3,0.9-0.4,1.4-0.4s1,0.1,1.4,0.4c0.4,0.3,0.8,0.7,1,1.2c0.2,0.5,0.4,1.2,0.4,1.9s-0.1,1.4-0.4,1.9c-0.2,0.5-0.6,0.9-1,1.2
				c-0.4,0.3-0.9,0.4-1.4,0.4S15.5-9.2,15.1-9.5z M17.6-10.1c0.3-0.2,0.6-0.6,0.7-1s0.3-1,0.3-1.6s-0.1-1.1-0.3-1.6
				c-0.2-0.4-0.4-0.8-0.7-1c-0.3-0.2-0.7-0.3-1.1-0.3s-0.8,0.1-1.1,0.3s-0.6,0.6-0.7,1c-0.2,0.4-0.3,1-0.3,1.6s0.1,1.1,0.3,1.6
				s0.4,0.8,0.7,1c0.3,0.2,0.7,0.3,1.1,0.3S17.3-9.9,17.6-10.1z"/>
			<path class="st2" d="M21.2-10c0.1,0.1,0.1,0.2,0.1,0.4c0,0.1,0,0.2,0,0.3c0,0.1-0.1,0.2-0.1,0.3l-0.4,1.4h-0.5l0.3-1.5
				c-0.1,0-0.2-0.1-0.3-0.2c-0.1-0.1-0.1-0.2-0.1-0.3c0-0.2,0-0.3,0.1-0.4s0.2-0.2,0.4-0.2S21.1-10.1,21.2-10z"/>
			<path class="st2" d="M23.6-9.5c-0.4-0.3-0.8-0.7-1-1.2c-0.2-0.5-0.4-1.2-0.4-1.9s0.1-1.4,0.4-1.9c0.2-0.5,0.6-0.9,1-1.2
				c0.4-0.3,0.9-0.4,1.4-0.4s1,0.1,1.4,0.4c0.4,0.3,0.8,0.7,1,1.2c0.2,0.5,0.4,1.2,0.4,1.9s-0.1,1.4-0.4,1.9c-0.2,0.5-0.6,0.9-1,1.2
				c-0.4,0.3-0.9,0.4-1.4,0.4S24-9.2,23.6-9.5z M26.1-10.1c0.3-0.2,0.6-0.6,0.7-1s0.3-1,0.3-1.6s-0.1-1.1-0.3-1.6
				c-0.2-0.4-0.4-0.8-0.7-1c-0.3-0.2-0.7-0.3-1.1-0.3s-0.8,0.1-1.1,0.3s-0.6,0.6-0.7,1c-0.2,0.4-0.3,1-0.3,1.6s0.1,1.1,0.3,1.6
				s0.4,0.8,0.7,1c0.3,0.2,0.7,0.3,1.1,0.3S25.8-9.9,26.1-10.1z"/>
			<path class="st2" d="M30.2-9.5c-0.4-0.3-0.8-0.7-1-1.2c-0.2-0.5-0.4-1.2-0.4-1.9s0.1-1.4,0.4-1.9c0.2-0.5,0.6-0.9,1-1.2
				c0.4-0.3,0.9-0.4,1.4-0.4c0.5,0,1,0.1,1.4,0.4c0.4,0.3,0.8,0.7,1,1.2c0.2,0.5,0.4,1.2,0.4,1.9s-0.1,1.4-0.4,1.9
				c-0.2,0.5-0.6,0.9-1,1.2c-0.4,0.3-0.9,0.4-1.4,0.4C31.2-9.1,30.7-9.2,30.2-9.5z M32.8-10.1c0.3-0.2,0.6-0.6,0.7-1s0.3-1,0.3-1.6
				s-0.1-1.1-0.3-1.6c-0.2-0.4-0.4-0.8-0.7-1c-0.3-0.2-0.7-0.3-1.1-0.3c-0.4,0-0.8,0.1-1.1,0.3s-0.6,0.6-0.7,1
				c-0.2,0.4-0.3,1-0.3,1.6s0.1,1.1,0.3,1.6s0.4,0.8,0.7,1c0.3,0.2,0.7,0.3,1.1,0.3C32.1-9.7,32.5-9.9,32.8-10.1z"/>
			<path class="st2" d="M36.9-9.5c-0.4-0.3-0.8-0.7-1-1.2c-0.2-0.5-0.4-1.2-0.4-1.9s0.1-1.4,0.4-1.9c0.2-0.5,0.6-0.9,1-1.2
				c0.4-0.3,0.9-0.4,1.4-0.4s1,0.1,1.4,0.4c0.4,0.3,0.8,0.7,1,1.2c0.2,0.5,0.4,1.2,0.4,1.9s-0.1,1.4-0.4,1.9c-0.2,0.5-0.6,0.9-1,1.2
				c-0.4,0.3-0.9,0.4-1.4,0.4S37.3-9.2,36.9-9.5z M39.4-10.1c0.3-0.2,0.6-0.6,0.7-1s0.3-1,0.3-1.6s-0.1-1.1-0.3-1.6
				c-0.2-0.4-0.4-0.8-0.7-1c-0.3-0.2-0.7-0.3-1.1-0.3s-0.8,0.1-1.1,0.3s-0.6,0.6-0.7,1c-0.2,0.4-0.3,1-0.3,1.6s0.1,1.1,0.3,1.6
				s0.4,0.8,0.7,1c0.3,0.2,0.7,0.3,1.1,0.3S39.1-9.9,39.4-10.1z"/>
		</g>
	</g>
	<g transform="translate(0,244.25)">
		<line class="st0" x1="50.6" y1="-12.3" x2="44.6" y2="-12.3"/>
		<g class="st1">
			<path class="st2" d="M15-16.1v7h-0.7v-6.4h-1.7v-0.6H15z"/>
			<path class="st2" d="M18.6-16.1v7h-0.7v-6.4h-1.7v-0.6H18.6z"/>
			<path class="st2" d="M21.2-10c0.1,0.1,0.1,0.2,0.1,0.4c0,0.1,0,0.2,0,0.3c0,0.1-0.1,0.2-0.1,0.3l-0.4,1.4h-0.5l0.3-1.5
				c-0.1,0-0.2-0.1-0.3-0.2c-0.1-0.1-0.1-0.2-0.1-0.3c0-0.2,0-0.3,0.1-0.4s0.2-0.2,0.4-0.2S21.1-10.1,21.2-10z"/>
			<path class="st2" d="M23.6-9.5c-0.4-0.3-0.8-0.7-1-1.2c-0.2-0.5-0.4-1.2-0.4-1.9s0.1-1.4,0.4-1.9c0.2-0.5,0.6-0.9,1-1.2
				c0.4-0.3,0.9-0.4,1.4-0.4s1,0.1,1.4,0.4c0.4,0.3,0.8,0.7,1,1.2c0.2,0.5,0.4,1.2,0.4,1.9s-0.1,1.4-0.4,1.9c-0.2,0.5-0.6,0.9-1,1.2
				c-0.4,0.3-0.9,0.4-1.4,0.4S24-9.2,23.6-9.5z M26.1-10.1c0.3-0.2,0.6-0.6,0.7-1s0.3-1,0.3-1.6s-0.1-1.1-0.3-1.6
				c-0.2-0.4-0.4-0.8-0.7-1c-0.3-0.2-0.7-0.3-1.1-0.3s-0.8,0.1-1.1,0.3s-0.6,0.6-0.7,1c-0.2,0.4-0.3,1-0.3,1.6s0.1,1.1,0.3,1.6
				s0.4,0.8,0.7,1c0.3,0.2,0.7,0.3,1.1,0.3S25.8-9.9,26.1-10.1z"/>
			<path class="st2" d="M30.2-9.5c-0.4-0.3-0.8-0.7-1-1.2c-0.2-0.5-0.4-1.2-0.4-1.9s0.1-1.4,0.4-1.9c0.2-0.5,0.6-0.9,1-1.2
				c0.4-0.3,0.9-0.4,1.4-0.4c0.5,0,1,0.1,1.4,0.4c0.4,0.3,0.8,0.7,1,1.2c0.2,0.5,0.4,1.2,0.4,1.9s-0.1,1.4-0.4,1.9
				c-0.2,0.5-0.6,0.9-1,1.2c-0.4,0.3-0.9,0.4-1.4,0.4C31.2-9.1,30.7-9.2,30.2-9.5z M32.8-10.1c0.3-0.2,0.6-0.6,0.7-1s0.3-1,0.3-1.6
				s-0.1-1.1-0.3-1.6c-0.2-0.4-0.4-0.8-0.7-1c-0.3-0.2-0.7-0.3-1.1-0.3c-0.4,0-0.8,0.1-1.1,0.3s-0.6,0.6-0.7,1
				c-0.2,0.4-0.3,1-0.3,1.6s0.1,1.1,0.3,1.6s0.4,0.8,0.7,1c0.3,0.2,0.7,0.3,1.1,0.3C32.1-9.7,32.5-9.9,32.8-10.1z"/>
			<path class="st2" d="M36.9-9.5c-0.4-0.3-0.8-0.7-1-1.2c-0.2-0.5-0.4-1.2-0.4-1.9s0.1-1.4,0.4-1.9c0.2-0.5,0.6-0.9,1-1.2
				c0.4-0.3,0.9-0.4,1.4-0.4s1,0.1,1.4,0.4c0.4,0.3,0.8,0.7,1,1.2c0.2,0.5,0.4,1.2,0.4,1.9s-0.1,1.4-0.4,1.9c-0.2,0.5-0.6,0.9-1,1.2
				c-0.4,0.3-0.9,0.4-1.4,0.4S37.3-9.2,36.9-9.5z M39.4-10.1c0.3-0.2,0.6-0.6,0.7-1s0.3-1,0.3-1.6s-0.1-1.1-0.3-1.6
				c-0.2-0.4-0.4-0.8-0.7-1c-0.3-0.2-0.7-0.3-1.1-0.3s-0.8,0.1-1.1,0.3s-0.6,0.6-0.7,1c-0.2,0.4-0.3,1-0.3,1.6s0.1,1.1,0.3,1.6
				s0.4,0.8,0.7,1c0.3,0.2,0.7,0.3,1.1,0.3S39.1-9.9,39.4-10.1z"/>
		</g>
	</g>
	<g transform="translate(0,213)">
		<line class="st0" x1="50.6" y1="-12.3" x2="44.6" y2="-12.3"/>
		<g class="st1">
			<path class="st2" d="M12.8-16.1v7h-0.7v-6.4h-1.7v-0.6H12.8z"/>
			<path class="st2" d="M19.3-9.8v0.6h-4.9v-0.5l2.9-2.9c0.4-0.4,0.6-0.7,0.7-0.9s0.2-0.5,0.2-0.8c0-0.4-0.1-0.7-0.4-1
				c-0.3-0.2-0.7-0.3-1.2-0.3c-0.8,0-1.5,0.3-1.9,0.8l-0.5-0.4c0.3-0.3,0.6-0.6,1-0.7c0.4-0.2,0.9-0.3,1.4-0.3
				c0.7,0,1.3,0.2,1.7,0.5c0.4,0.3,0.6,0.8,0.6,1.4c0,0.4-0.1,0.7-0.2,1c-0.2,0.3-0.5,0.7-0.9,1.1l-2.4,2.3H19.3z"/>
			<path class="st2" d="M21.2-10c0.1,0.1,0.1,0.2,0.1,0.4c0,0.1,0,0.2,0,0.3c0,0.1-0.1,0.2-0.1,0.3l-0.4,1.4h-0.5l0.3-1.5
				c-0.1,0-0.2-0.1-0.3-0.2c-0.1-0.1-0.1-0.2-0.1-0.3c0-0.2,0-0.3,0.1-0.4s0.2-0.2,0.4-0.2S21.1-10.1,21.2-10z"/>
			<path class="st2" d="M23.6-9.5c-0.4-0.3-0.8-0.7-1-1.2c-0.2-0.5-0.4-1.2-0.4-1.9s0.1-1.4,0.4-1.9c0.2-0.5,0.6-0.9,1-1.2
				c0.4-0.3,0.9-0.4,1.4-0.4s1,0.1,1.4,0.4c0.4,0.3,0.8,0.7,1,1.2c0.2,0.5,0.4,1.2,0.4,1.9s-0.1,1.4-0.4,1.9c-0.2,0.5-0.6,0.9-1,1.2
				c-0.4,0.3-0.9,0.4-1.4,0.4S24-9.2,23.6-9.5z M26.1-10.1c0.3-0.2,0.6-0.6,0.7-1s0.3-1,0.3-1.6s-0.1-1.1-0.3-1.6
				c-0.2-0.4-0.4-0.8-0.7-1c-0.3-0.2-0.7-0.3-1.1-0.3s-0.8,0.1-1.1,0.3s-0.6,0.6-0.7,1c-0.2,0.4-0.3,1-0.3,1.6s0.1,1.1,0.3,1.6
				s0.4,0.8,0.7,1c0.3,0.2,0.7,0.3,1.1,0.3S25.8-9.9,26.1-10.1z"/>
			<path class="st2" d="M30.2-9.5c-0.4-0.3-0.8-0.7-1-1.2c-0.2-0.5-0.4-1.2-0.4-1.9s0.1-1.4,0.4-1.9c0.2-0.5,0.6-0.9,1-1.2
				c0.4-0.3,0.9-0.4,1.4-0.4c0.5,0,1,0.1,1.4,0.4c0.4,0.3,0.8,0.7,1,1.2c0.2,0.5,0.4,1.2,0.4,1.9s-0.1,1.4-0.4,1.9
				c-0.2,0.5-0.6,0.9-1,1.2c-0.4,0.3-0.9,0.4-1.4,0.4C31.2-9.1,30.7-9.2,30.2-9.5z M32.8-10.1c0.3-0.2,0.6-0.6,0.7-1s0.3-1,0.3-1.6
				s-0.1-1.1-0.3-1.6c-0.2-0.4-0.4-0.8-0.7-1c-0.3-0.2-0.7-0.3-1.1-0.3c-0.4,0-0.8,0.1-1.1,0.3s-0.6,0.6-0.7,1
				c-0.2,0.4-0.3,1-0.3,1.6s0.1,1.1,0.3,1.6s0.4,0.8,0.7,1c0.3,0.2,0.7,0.3,1.1,0.3C32.1-9.7,32.5-9.9,32.8-10.1z"/>
			<path class="st2" d="M36.9-9.5c-0.4-0.3-0.8-0.7-1-1.2c-0.2-0.5-0.4-1.2-0.4-1.9s0.1-1.4,0.4-1.9c0.2-0.5,0.6-0.9,1-1.2
				c0.4-0.3,0.9-0.4,1.4-0.4s1,0.1,1.4,0.4c0.4,0.3,0.8,0.7,1,1.2c0.2,0.5,0.4,1.2,0.4,1.9s-0.1,1.4-0.4,1.9c-0.2,0.5-0.6,0.9-1,1.2
				c-0.4,0.3-0.9,0.4-1.4,0.4S37.3-9.2,36.9-9.5z M39.4-10.1c0.3-0.2,0.6-0.6,0.7-1s0.3-1,0.3-1.6s-0.1-1.1-0.3-1.6
				c-0.2-0.4-0.4-0.8-0.7-1c-0.3-0.2-0.7-0.3-1.1-0.3s-0.8,0.1-1.1,0.3s-0.6,0.6-0.7,1c-0.2,0.4-0.3,1-0.3,1.6s0.1,1.1,0.3,1.6
				s0.4,0.8,0.7,1c0.3,0.2,0.7,0.3,1.1,0.3S39.1-9.9,39.4-10.1z"/>
		</g>
	</g>
	<g transform="translate(0,181.75)">
		<line class="st0" x1="50.6" y1="-12.3" x2="44.6" y2="-12.3"/>
		<g class="st1">
			<path class="st2" d="M13-16.1v7h-0.7v-6.4h-1.7v-0.6H13z"/>
			<path class="st2" d="M18.7-12.5c0.4,0.4,0.6,0.8,0.6,1.4c0,0.4-0.1,0.8-0.3,1.1c-0.2,0.3-0.5,0.6-0.9,0.7s-0.8,0.3-1.4,0.3
				c-0.5,0-1-0.1-1.4-0.2c-0.4-0.2-0.8-0.4-1.1-0.7l0.4-0.6c0.2,0.2,0.5,0.4,0.9,0.6c0.4,0.2,0.8,0.2,1.2,0.2c0.6,0,1-0.1,1.3-0.4
				s0.5-0.6,0.5-1c0-0.4-0.2-0.8-0.5-1c-0.3-0.2-0.8-0.4-1.4-0.4h-0.5v-0.5l1.9-2.4h-3.6v-0.6H19v0.5l-2,2.5
				C17.7-13.1,18.3-12.9,18.7-12.5z"/>
			<path class="st2" d="M21.2-10c0.1,0.1,0.1,0.2,0.1,0.4c0,0.1,0,0.2,0,0.3c0,0.1-0.1,0.2-0.1,0.3l-0.4,1.4h-0.5l0.3-1.5
				c-0.1,0-0.2-0.1-0.3-0.2c-0.1-0.1-0.1-0.2-0.1-0.3c0-0.2,0-0.3,0.1-0.4s0.2-0.2,0.4-0.2S21.1-10.1,21.2-10z"/>
			<path class="st2" d="M23.6-9.5c-0.4-0.3-0.8-0.7-1-1.2c-0.2-0.5-0.4-1.2-0.4-1.9s0.1-1.4,0.4-1.9c0.2-0.5,0.6-0.9,1-1.2
				c0.4-0.3,0.9-0.4,1.4-0.4s1,0.1,1.4,0.4c0.4,0.3,0.8,0.7,1,1.2c0.2,0.5,0.4,1.2,0.4,1.9s-0.1,1.4-0.4,1.9c-0.2,0.5-0.6,0.9-1,1.2
				c-0.4,0.3-0.9,0.4-1.4,0.4S24-9.2,23.6-9.5z M26.1-10.1c0.3-0.2,0.6-0.6,0.7-1s0.3-1,0.3-1.6s-0.1-1.1-0.3-1.6
				c-0.2-0.4-0.4-0.8-0.7-1c-0.3-0.2-0.7-0.3-1.1-0.3s-0.8,0.1-1.1,0.3s-0.6,0.6-0.7,1c-0.2,0.4-0.3,1-0.3,1.6s0.1,1.1,0.3,1.6
				s0.4,0.8,0.7,1c0.3,0.2,0.7,0.3,1.1,0.3S25.8-9.9,26.1-10.1z"/>
			<path class="st2" d="M30.2-9.5c-0.4-0.3-0.8-0.7-1-1.2c-0.2-0.5-0.4-1.2-0.4-1.9s0.1-1.4,0.4-1.9c0.2-0.5,0.6-0.9,1-1.2
				c0.4-0.3,0.9-0.4,1.4-0.4c0.5,0,1,0.1,1.4,0.4c0.4,0.3,0.8,0.7,1,1.2c0.2,0.5,0.4,1.2,0.4,1.9s-0.1,1.4-0.4,1.9
				c-0.2,0.5-0.6,0.9-1,1.2c-0.4,0.3-0.9,0.4-1.4,0.4C31.2-9.1,30.7-9.2,30.2-9.5z M32.8-10.1c0.3-0.2,0.6-0.6,0.7-1s0.3-1,0.3-1.6
				s-0.1-1.1-0.3-1.6c-0.2-0.4-0.4-0.8-0.7-1c-0.3-0.2-0.7-0.3-1.1-0.3c-0.4,0-0.8,0.1-1.1,0.3s-0.6,0.6-0.7,1
				c-0.2,0.4-0.3,1-0.3,1.6s0.1,1.1,0.3,1.6s0.4,0.8,0.7,1c0.3,0.2,0.7,0.3,1.1,0.3C32.1-9.7,32.5-9.9,32.8-10.1z"/>
			<path class="st2" d="M36.9-9.5c-0.4-0.3-0.8-0.7-1-1.2c-0.2-0.5-0.4-1.2-0.4-1.9s0.1-1.4,0.4-1.9c0.2-0.5,0.6-0.9,1-1.2
				c0.4-0.3,0.9-0.4,1.4-0.4s1,0.1,1.4,0.4c0.4,0.3,0.8,0.7,1,1.2c0.2,0.5,0.4,1.2,0.4,1.9s-0.1,1.4-0.4,1.9c-0.2,0.5-0.6,0.9-1,1.2
				c-0.4,0.3-0.9,0.4-1.4,0.4S37.3-9.2,36.9-9.5z M39.4-10.1c0.3-0.2,0.6-0.6,0.7-1s0.3-1,0.3-1.6s-0.1-1.1-0.3-1.6
				c-0.2-0.4-0.4-0.8-0.7-1c-0.3-0.2-0.7-0.3-1.1-0.3s-0.8,0.1-1.1,0.3s-0.6,0.6-0.7,1c-0.2,0.4-0.3,1-0.3,1.6s0.1,1.1,0.3,1.6
				s0.4,0.8,0.7,1c0.3,0.2,0.7,0.3,1.1,0.3S39.1-9.9,39.4-10.1z"/>
		</g>
	</g>
	<g transform="translate(0,150.5)">
		<line class="st0" x1="50.6" y1="-12.3" x2="44.6" y2="-12.3"/>
		<g class="st1">
			<path class="st2" d="M11.8-16.1v7h-0.7v-6.4H9.4v-0.6H11.8z"/>
			<path class="st2" d="M19.4-11H18v1.8h-0.7V-11h-4v-0.5l3.7-4.6h0.8l-3.6,4.5h3v-1.6H18v1.6h1.4V-11z"/>
			<path class="st2" d="M21.2-10c0.1,0.1,0.1,0.2,0.1,0.4c0,0.1,0,0.2,0,0.3c0,0.1-0.1,0.2-0.1,0.3l-0.4,1.4h-0.5l0.3-1.5
				c-0.1,0-0.2-0.1-0.3-0.2c-0.1-0.1-0.1-0.2-0.1-0.3c0-0.2,0-0.3,0.1-0.4s0.2-0.2,0.4-0.2S21.1-10.1,21.2-10z"/>
			<path class="st2" d="M23.6-9.5c-0.4-0.3-0.8-0.7-1-1.2c-0.2-0.5-0.4-1.2-0.4-1.9c0-0.7,0.1-1.4,0.4-1.9c0.2-0.5,0.6-0.9,1-1.2
				c0.4-0.3,0.9-0.4,1.4-0.4s1,0.1,1.4,0.4c0.4,0.3,0.8,0.7,1,1.2c0.2,0.5,0.4,1.2,0.4,1.9c0,0.7-0.1,1.4-0.4,1.9
				c-0.2,0.5-0.6,0.9-1,1.2c-0.4,0.3-0.9,0.4-1.4,0.4S24-9.2,23.6-9.5z M26.1-10.1c0.3-0.2,0.6-0.6,0.7-1s0.3-1,0.3-1.6
				s-0.1-1.1-0.3-1.6c-0.2-0.4-0.4-0.8-0.7-1c-0.3-0.2-0.7-0.3-1.1-0.3s-0.8,0.1-1.1,0.3s-0.6,0.6-0.7,1c-0.2,0.4-0.3,1-0.3,1.6
				s0.1,1.1,0.3,1.6s0.4,0.8,0.7,1c0.3,0.2,0.7,0.3,1.1,0.3S25.8-9.9,26.1-10.1z"/>
			<path class="st2" d="M30.2-9.5c-0.4-0.3-0.8-0.7-1-1.2c-0.2-0.5-0.4-1.2-0.4-1.9c0-0.7,0.1-1.4,0.4-1.9c0.2-0.5,0.6-0.9,1-1.2
				c0.4-0.3,0.9-0.4,1.4-0.4c0.5,0,1,0.1,1.4,0.4c0.4,0.3,0.8,0.7,1,1.2c0.2,0.5,0.4,1.2,0.4,1.9c0,0.7-0.1,1.4-0.4,1.9
				c-0.2,0.5-0.6,0.9-1,1.2c-0.4,0.3-0.9,0.4-1.4,0.4C31.2-9.1,30.7-9.2,30.2-9.5z M32.8-10.1c0.3-0.2,0.6-0.6,0.7-1s0.3-1,0.3-1.6
				s-0.1-1.1-0.3-1.6c-0.2-0.4-0.4-0.8-0.7-1c-0.3-0.2-0.7-0.3-1.1-0.3c-0.4,0-0.8,0.1-1.1,0.3s-0.6,0.6-0.7,1
				c-0.2,0.4-0.3,1-0.3,1.6s0.1,1.1,0.3,1.6s0.4,0.8,0.7,1c0.3,0.2,0.7,0.3,1.1,0.3C32.1-9.7,32.5-9.9,32.8-10.1z"/>
			<path class="st2" d="M36.9-9.5c-0.4-0.3-0.8-0.7-1-1.2c-0.2-0.5-0.4-1.2-0.4-1.9c0-0.7,0.1-1.4,0.4-1.9c0.2-0.5,0.6-0.9,1-1.2
				c0.4-0.3,0.9-0.4,1.4-0.4s1,0.1,1.4,0.4c0.4,0.3,0.8,0.7,1,1.2c0.2,0.5,0.4,1.2,0.4,1.9c0,0.7-0.1,1.4-0.4,1.9
				c-0.2,0.5-0.6,0.9-1,1.2c-0.4,0.3-0.9,0.4-1.4,0.4S37.3-9.2,36.9-9.5z M39.4-10.1c0.3-0.2,0.6-0.6,0.7-1s0.3-1,0.3-1.6
				s-0.1-1.1-0.3-1.6c-0.2-0.4-0.4-0.8-0.7-1c-0.3-0.2-0.7-0.3-1.1-0.3s-0.8,0.1-1.1,0.3s-0.6,0.6-0.7,1c-0.2,0.4-0.3,1-0.3,1.6
				s0.1,1.1,0.3,1.6s0.4,0.8,0.7,1c0.3,0.2,0.7,0.3,1.1,0.3S39.1-9.9,39.4-10.1z"/>
		</g>
	</g>
	<g transform="translate(0,119.25)">
		<line class="st0" x1="50.6" y1="-12.3" x2="44.6" y2="-12.3"/>
		<g class="st1">
			<path class="st2" d="M12.9-16.1v7h-0.7v-6.4h-1.7v-0.6H12.9z"/>
			<path class="st2" d="M18.7-12.7c0.5,0.4,0.7,0.9,0.7,1.5c0,0.4-0.1,0.8-0.3,1.1c-0.2,0.3-0.5,0.6-0.9,0.8s-0.8,0.3-1.4,0.3
				c-0.5,0-1-0.1-1.4-0.2c-0.5-0.2-0.8-0.4-1.1-0.7l0.3-0.6c0.2,0.2,0.5,0.4,0.9,0.6c0.4,0.2,0.8,0.2,1.2,0.2c0.6,0,1-0.1,1.3-0.4
				c0.3-0.3,0.5-0.6,0.5-1c0-0.5-0.2-0.8-0.5-1.1c-0.4-0.2-1-0.4-1.8-0.4h-1.5l0.4-3.5H19v0.6h-3.2l-0.2,2.2h0.9
				C17.5-13.3,18.2-13.1,18.7-12.7z"/>
			<path class="st2" d="M21.2-10c0.1,0.1,0.1,0.2,0.1,0.4c0,0.1,0,0.2,0,0.3c0,0.1-0.1,0.2-0.1,0.3l-0.4,1.4h-0.5l0.3-1.5
				c-0.1,0-0.2-0.1-0.3-0.2c-0.1-0.1-0.1-0.2-0.1-0.3c0-0.2,0-0.3,0.1-0.4s0.2-0.2,0.4-0.2S21.1-10.1,21.2-10z"/>
			<path class="st2" d="M23.6-9.5c-0.4-0.3-0.8-0.7-1-1.2c-0.2-0.5-0.4-1.2-0.4-1.9s0.1-1.4,0.4-1.9c0.2-0.5,0.6-0.9,1-1.2
				c0.4-0.3,0.9-0.4,1.4-0.4s1,0.1,1.4,0.4c0.4,0.3,0.8,0.7,1,1.2c0.2,0.5,0.4,1.2,0.4,1.9s-0.1,1.4-0.4,1.9c-0.2,0.5-0.6,0.9-1,1.2
				c-0.4,0.3-0.9,0.4-1.4,0.4S24-9.2,23.6-9.5z M26.1-10.1c0.3-0.2,0.6-0.6,0.7-1s0.3-1,0.3-1.6s-0.1-1.1-0.3-1.6
				c-0.2-0.4-0.4-0.8-0.7-1c-0.3-0.2-0.7-0.3-1.1-0.3s-0.8,0.1-1.1,0.3s-0.6,0.6-0.7,1c-0.2,0.4-0.3,1-0.3,1.6s0.1,1.1,0.3,1.6
				s0.4,0.8,0.7,1c0.3,0.2,0.7,0.3,1.1,0.3S25.8-9.9,26.1-10.1z"/>
			<path class="st2" d="M30.2-9.5c-0.4-0.3-0.8-0.7-1-1.2c-0.2-0.5-0.4-1.2-0.4-1.9s0.1-1.4,0.4-1.9c0.2-0.5,0.6-0.9,1-1.2
				c0.4-0.3,0.9-0.4,1.4-0.4c0.5,0,1,0.1,1.4,0.4c0.4,0.3,0.8,0.7,1,1.2c0.2,0.5,0.4,1.2,0.4,1.9s-0.1,1.4-0.4,1.9
				c-0.2,0.5-0.6,0.9-1,1.2c-0.4,0.3-0.9,0.4-1.4,0.4C31.2-9.1,30.7-9.2,30.2-9.5z M32.8-10.1c0.3-0.2,0.6-0.6,0.7-1s0.3-1,0.3-1.6
				s-0.1-1.1-0.3-1.6c-0.2-0.4-0.4-0.8-0.7-1c-0.3-0.2-0.7-0.3-1.1-0.3c-0.4,0-0.8,0.1-1.1,0.3s-0.6,0.6-0.7,1
				c-0.2,0.4-0.3,1-0.3,1.6s0.1,1.1,0.3,1.6s0.4,0.8,0.7,1c0.3,0.2,0.7,0.3,1.1,0.3C32.1-9.7,32.5-9.9,32.8-10.1z"/>
			<path class="st2" d="M36.9-9.5c-0.4-0.3-0.8-0.7-1-1.2c-0.2-0.5-0.4-1.2-0.4-1.9s0.1-1.4,0.4-1.9c0.2-0.5,0.6-0.9,1-1.2
				c0.4-0.3,0.9-0.4,1.4-0.4s1,0.1,1.4,0.4c0.4,0.3,0.8,0.7,1,1.2c0.2,0.5,0.4,1.2,0.4,1.9s-0.1,1.4-0.4,1.9c-0.2,0.5-0.6,0.9-1,1.2
				c-0.4,0.3-0.9,0.4-1.4,0.4S37.3-9.2,36.9-9.5z M39.4-10.1c0.3-0.2,0.6-0.6,0.7-1s0.3-1,0.3-1.6s-0.1-1.1-0.3-1.6
				c-0.2-0.4-0.4-0.8-0.7-1c-0.3-0.2-0.7-0.3-1.1-0.3s-0.8,0.1-1.1,0.3s-0.6,0.6-0.7,1c-0.2,0.4-0.3,1-0.3,1.6s0.1,1.1,0.3,1.6
				s0.4,0.8,0.7,1c0.3,0.2,0.7,0.3,1.1,0.3S39.1-9.9,39.4-10.1z"/>
		</g>
	</g>
	<g transform="translate(0,88)">
		<line class="st0" x1="50.6" y1="-12.3" x2="44.6" y2="-12.3"/>
		<g class="st1">
			<path class="st2" d="M12.4-16.1v7h-0.7v-6.4H10v-0.6H12.4z"/>
			<path class="st2" d="M18.2-13.1c0.4,0.2,0.6,0.4,0.8,0.7c0.2,0.3,0.3,0.7,0.3,1.1c0,0.4-0.1,0.8-0.3,1.1
				c-0.2,0.3-0.5,0.6-0.9,0.8c-0.4,0.2-0.8,0.3-1.2,0.3c-0.9,0-1.6-0.3-2.1-0.9c-0.5-0.6-0.7-1.5-0.7-2.6c0-0.8,0.1-1.4,0.4-2
				s0.6-0.9,1.1-1.2c0.5-0.3,1-0.4,1.7-0.4c0.7,0,1.2,0.1,1.7,0.4l-0.3,0.6c-0.3-0.2-0.8-0.3-1.4-0.3c-0.8,0-1.4,0.2-1.8,0.7
				c-0.4,0.5-0.7,1.2-0.7,2.1c0,0.2,0,0.4,0,0.6c0.2-0.4,0.5-0.7,0.8-0.9c0.4-0.2,0.8-0.3,1.3-0.3C17.4-13.3,17.8-13.2,18.2-13.1z
				 M18.2-10.1c0.3-0.3,0.5-0.6,0.5-1.1s-0.2-0.8-0.5-1.1c-0.3-0.3-0.7-0.4-1.3-0.4c-0.4,0-0.7,0.1-0.9,0.2s-0.5,0.3-0.6,0.5
				c-0.2,0.2-0.2,0.5-0.2,0.8c0,0.3,0.1,0.5,0.2,0.7c0.1,0.2,0.4,0.4,0.6,0.5c0.3,0.1,0.6,0.2,1,0.2C17.4-9.7,17.8-9.8,18.2-10.1z"
				/>
			<path class="st2" d="M21.2-10c0.1,0.1,0.1,0.2,0.1,0.4c0,0.1,0,0.2,0,0.3c0,0.1-0.1,0.2-0.1,0.3l-0.4,1.4h-0.5l0.3-1.5
				c-0.1,0-0.2-0.1-0.3-0.2c-0.1-0.1-0.1-0.2-0.1-0.3c0-0.2,0-0.3,0.1-0.4s0.2-0.2,0.4-0.2S21.1-10.1,21.2-10z"/>
			<path class="st2" d="M23.6-9.5c-0.4-0.3-0.8-0.7-1-1.2c-0.2-0.5-0.4-1.2-0.4-1.9s0.1-1.4,0.4-1.9c0.2-0.5,0.6-0.9,1-1.2
				c0.4-0.3,0.9-0.4,1.4-0.4s1,0.1,1.4,0.4c0.4,0.3,0.8,0.7,1,1.2c0.2,0.5,0.4,1.2,0.4,1.9s-0.1,1.4-0.4,1.9c-0.2,0.5-0.6,0.9-1,1.2
				c-0.4,0.3-0.9,0.4-1.4,0.4S24-9.2,23.6-9.5z M26.1-10.1c0.3-0.2,0.6-0.6,0.7-1s0.3-1,0.3-1.6s-0.1-1.1-0.3-1.6
				c-0.2-0.4-0.4-0.8-0.7-1c-0.3-0.2-0.7-0.3-1.1-0.3s-0.8,0.1-1.1,0.3s-0.6,0.6-0.7,1c-0.2,0.4-0.3,1-0.3,1.6s0.1,1.1,0.3,1.6
				s0.4,0.8,0.7,1c0.3,0.2,0.7,0.3,1.1,0.3S25.8-9.9,26.1-10.1z"/>
			<path class="st2" d="M30.2-9.5c-0.4-0.3-0.8-0.7-1-1.2c-0.2-0.5-0.4-1.2-0.4-1.9s0.1-1.4,0.4-1.9c0.2-0.5,0.6-0.9,1-1.2
				c0.4-0.3,0.9-0.4,1.4-0.4c0.5,0,1,0.1,1.4,0.4c0.4,0.3,0.8,0.7,1,1.2c0.2,0.5,0.4,1.2,0.4,1.9s-0.1,1.4-0.4,1.9
				c-0.2,0.5-0.6,0.9-1,1.2c-0.4,0.3-0.9,0.4-1.4,0.4C31.2-9.1,30.7-9.2,30.2-9.5z M32.8-10.1c0.3-0.2,0.6-0.6,0.7-1s0.3-1,0.3-1.6
				s-0.1-1.1-0.3-1.6c-0.2-0.4-0.4-0.8-0.7-1c-0.3-0.2-0.7-0.3-1.1-0.3c-0.4,0-0.8,0.1-1.1,0.3s-0.6,0.6-0.7,1
				c-0.2,0.4-0.3,1-0.3,1.6s0.1,1.1,0.3,1.6s0.4,0.8,0.7,1c0.3,0.2,0.7,0.3,1.1,0.3C32.1-9.7,32.5-9.9,32.8-10.1z"/>
			<path class="st2" d="M36.9-9.5c-0.4-0.3-0.8-0.7-1-1.2c-0.2-0.5-0.4-1.2-0.4-1.9s0.1-1.4,0.4-1.9c0.2-0.5,0.6-0.9,1-1.2
				c0.4-0.3,0.9-0.4,1.4-0.4s1,0.1,1.4,0.4c0.4,0.3,0.8,0.7,1,1.2c0.2,0.5,0.4,1.2,0.4,1.9s-0.1,1.4-0.4,1.9c-0.2,0.5-0.6,0.9-1,1.2
				c-0.4,0.3-0.9,0.4-1.4,0.4S37.3-9.2,36.9-9.5z M39.4-10.1c0.3-0.2,0.6-0.6,0.7-1s0.3-1,0.3-1.6s-0.1-1.1-0.3-1.6
				c-0.2-0.4-0.4-0.8-0.7-1c-0.3-0.2-0.7-0.3-1.1-0.3s-0.8,0.1-1.1,0.3s-0.6,0.6-0.7,1c-0.2,0.4-0.3,1-0.3,1.6s0.1,1.1,0.3,1.6
				s0.4,0.8,0.7,1c0.3,0.2,0.7,0.3,1.1,0.3S39.1-9.9,39.4-10.1z"/>
		</g>
	</g>
	<g transform="translate(0,56.75)">
		<line class="st0" x1="50.6" y1="-12.3" x2="44.6" y2="-12.3"/>
		<g class="st1">
			<path class="st2" d="M13.2-16.1v7h-0.7v-6.4h-1.7v-0.6H13.2z"/>
			<path class="st2" d="M19.9-16.1v0.5l-2.9,6.5h-0.8l2.9-6.4h-3.6v1.3h-0.7v-2H19.9z"/>
			<path class="st2" d="M21.2-10c0.1,0.1,0.1,0.2,0.1,0.4c0,0.1,0,0.2,0,0.3c0,0.1-0.1,0.2-0.1,0.3l-0.4,1.4h-0.5l0.3-1.5
				c-0.1,0-0.2-0.1-0.3-0.2c-0.1-0.1-0.1-0.2-0.1-0.3c0-0.2,0-0.3,0.1-0.4s0.2-0.2,0.4-0.2S21.1-10.1,21.2-10z"/>
			<path class="st2" d="M23.6-9.5c-0.4-0.3-0.8-0.7-1-1.2c-0.2-0.5-0.4-1.2-0.4-1.9s0.1-1.4,0.4-1.9c0.2-0.5,0.6-0.9,1-1.2
				c0.4-0.3,0.9-0.4,1.4-0.4s1,0.1,1.4,0.4c0.4,0.3,0.8,0.7,1,1.2c0.2,0.5,0.4,1.2,0.4,1.9s-0.1,1.4-0.4,1.9c-0.2,0.5-0.6,0.9-1,1.2
				c-0.4,0.3-0.9,0.4-1.4,0.4S24-9.2,23.6-9.5z M26.1-10.1c0.3-0.2,0.6-0.6,0.7-1s0.3-1,0.3-1.6s-0.1-1.1-0.3-1.6
				c-0.2-0.4-0.4-0.8-0.7-1c-0.3-0.2-0.7-0.3-1.1-0.3s-0.8,0.1-1.1,0.3s-0.6,0.6-0.7,1c-0.2,0.4-0.3,1-0.3,1.6s0.1,1.1,0.3,1.6
				s0.4,0.8,0.7,1c0.3,0.2,0.7,0.3,1.1,0.3S25.8-9.9,26.1-10.1z"/>
			<path class="st2" d="M30.2-9.5c-0.4-0.3-0.8-0.7-1-1.2c-0.2-0.5-0.4-1.2-0.4-1.9s0.1-1.4,0.4-1.9c0.2-0.5,0.6-0.9,1-1.2
				c0.4-0.3,0.9-0.4,1.4-0.4c0.5,0,1,0.1,1.4,0.4c0.4,0.3,0.8,0.7,1,1.2c0.2,0.5,0.4,1.2,0.4,1.9s-0.1,1.4-0.4,1.9
				c-0.2,0.5-0.6,0.9-1,1.2c-0.4,0.3-0.9,0.4-1.4,0.4C31.2-9.1,30.7-9.2,30.2-9.5z M32.8-10.1c0.3-0.2,0.6-0.6,0.7-1s0.3-1,0.3-1.6
				s-0.1-1.1-0.3-1.6c-0.2-0.4-0.4-0.8-0.7-1c-0.3-0.2-0.7-0.3-1.1-0.3c-0.4,0-0.8,0.1-1.1,0.3s-0.6,0.6-0.7,1
				c-0.2,0.4-0.3,1-0.3,1.6s0.1,1.1,0.3,1.6s0.4,0.8,0.7,1c0.3,0.2,0.7,0.3,1.1,0.3C32.1-9.7,32.5-9.9,32.8-10.1z"/>
			<path class="st2" d="M36.9-9.5c-0.4-0.3-0.8-0.7-1-1.2c-0.2-0.5-0.4-1.2-0.4-1.9s0.1-1.4,0.4-1.9c0.2-0.5,0.6-0.9,1-1.2
				c0.4-0.3,0.9-0.4,1.4-0.4s1,0.1,1.4,0.4c0.4,0.3,0.8,0.7,1,1.2c0.2,0.5,0.4,1.2,0.4,1.9s-0.1,1.4-0.4,1.9c-0.2,0.5-0.6,0.9-1,1.2
				c-0.4,0.3-0.9,0.4-1.4,0.4S37.3-9.2,36.9-9.5z M39.4-10.1c0.3-0.2,0.6-0.6,0.7-1s0.3-1,0.3-1.6s-0.1-1.1-0.3-1.6
				c-0.2-0.4-0.4-0.8-0.7-1c-0.3-0.2-0.7-0.3-1.1-0.3s-0.8,0.1-1.1,0.3s-0.6,0.6-0.7,1c-0.2,0.4-0.3,1-0.3,1.6s0.1,1.1,0.3,1.6
				s0.4,0.8,0.7,1c0.3,0.2,0.7,0.3,1.1,0.3S39.1-9.9,39.4-10.1z"/>
		</g>
	</g>
	<g transform="translate(0,25.5)">
		<line class="st0" x1="50.6" y1="-12.3" x2="44.6" y2="-12.3"/>
		<g class="st1">
			<path class="st2" d="M12.1-16.1v7h-0.7v-6.4H9.8v-0.6H12.1z"/>
			<path class="st2" d="M18.8-12.1c0.2,0.3,0.4,0.6,0.4,1.1c0,0.4-0.1,0.8-0.3,1.1c-0.2,0.3-0.5,0.5-0.9,0.7
				c-0.4,0.2-0.9,0.2-1.4,0.2c-0.8,0-1.5-0.2-2-0.5c-0.5-0.4-0.7-0.8-0.7-1.5c0-0.4,0.1-0.8,0.3-1.1s0.6-0.5,1-0.7
				c-0.4-0.1-0.6-0.3-0.8-0.6C14.1-13.7,14-14,14-14.3c0-0.6,0.2-1,0.7-1.3c0.4-0.3,1-0.5,1.8-0.5c0.5,0,0.9,0.1,1.3,0.2
				c0.4,0.2,0.7,0.4,0.9,0.6c0.2,0.3,0.3,0.6,0.3,1c0,0.4-0.1,0.7-0.3,0.9c-0.2,0.3-0.5,0.5-0.8,0.6C18.2-12.7,18.6-12.4,18.8-12.1z
				 M17.9-10.1c0.4-0.3,0.5-0.6,0.5-1s-0.2-0.8-0.5-1c-0.3-0.2-0.8-0.4-1.5-0.4c-0.6,0-1.1,0.1-1.4,0.4s-0.5,0.6-0.5,1
				c0,0.4,0.2,0.8,0.5,1s0.8,0.4,1.5,0.4C17.1-9.7,17.6-9.8,17.9-10.1z M15.2-13.4c0.3,0.2,0.7,0.3,1.3,0.3s1-0.1,1.3-0.3
				s0.5-0.5,0.5-0.9c0-0.4-0.2-0.7-0.5-0.9c-0.3-0.2-0.7-0.3-1.3-0.3c-0.5,0-1,0.1-1.3,0.3c-0.3,0.2-0.5,0.5-0.5,0.9
				C14.7-13.9,14.9-13.6,15.2-13.4z"/>
			<path class="st2" d="M21.2-10c0.1,0.1,0.1,0.2,0.1,0.4c0,0.1,0,0.2,0,0.3c0,0.1-0.1,0.2-0.1,0.3l-0.4,1.4h-0.5l0.3-1.5
				c-0.1,0-0.2-0.1-0.3-0.2c-0.1-0.1-0.1-0.2-0.1-0.3c0-0.2,0-0.3,0.1-0.4s0.2-0.2,0.4-0.2S21.1-10.1,21.2-10z"/>
			<path class="st2" d="M23.6-9.5c-0.4-0.3-0.8-0.7-1-1.2c-0.2-0.5-0.4-1.2-0.4-1.9s0.1-1.4,0.4-1.9c0.2-0.5,0.6-0.9,1-1.2
				c0.4-0.3,0.9-0.4,1.4-0.4s1,0.1,1.4,0.4c0.4,0.3,0.8,0.7,1,1.2c0.2,0.5,0.4,1.2,0.4,1.9s-0.1,1.4-0.4,1.9c-0.2,0.5-0.6,0.9-1,1.2
				c-0.4,0.3-0.9,0.4-1.4,0.4S24-9.2,23.6-9.5z M26.1-10.1c0.3-0.2,0.6-0.6,0.7-1s0.3-1,0.3-1.6s-0.1-1.1-0.3-1.6
				c-0.2-0.4-0.4-0.8-0.7-1c-0.3-0.2-0.7-0.3-1.1-0.3s-0.8,0.1-1.1,0.3s-0.6,0.6-0.7,1c-0.2,0.4-0.3,1-0.3,1.6s0.1,1.1,0.3,1.6
				s0.4,0.8,0.7,1c0.3,0.2,0.7,0.3,1.1,0.3S25.8-9.9,26.1-10.1z"/>
			<path class="st2" d="M30.2-9.5c-0.4-0.3-0.8-0.7-1-1.2c-0.2-0.5-0.4-1.2-0.4-1.9s0.1-1.4,0.4-1.9c0.2-0.5,0.6-0.9,1-1.2
				c0.4-0.3,0.9-0.4,1.4-0.4c0.5,0,1,0.1,1.4,0.4c0.4,0.3,0.8,0.7,1,1.2c0.2,0.5,0.4,1.2,0.4,1.9s-0.1,1.4-0.4,1.9
				c-0.2,0.5-0.6,0.9-1,1.2c-0.4,0.3-0.9,0.4-1.4,0.4C31.2-9.1,30.7-9.2,30.2-9.5z M32.8-10.1c0.3-0.2,0.6-0.6,0.7-1s0.3-1,0.3-1.6
				s-0.1-1.1-0.3-1.6c-0.2-0.4-0.4-0.8-0.7-1c-0.3-0.2-0.7-0.3-1.1-0.3c-0.4,0-0.8,0.1-1.1,0.3s-0.6,0.6-0.7,1
				c-0.2,0.4-0.3,1-0.3,1.6s0.1,1.1,0.3,1.6s0.4,0.8,0.7,1c0.3,0.2,0.7,0.3,1.1,0.3C32.1-9.7,32.5-9.9,32.8-10.1z"/>
			<path class="st2" d="M36.9-9.5c-0.4-0.3-0.8-0.7-1-1.2c-0.2-0.5-0.4-1.2-0.4-1.9s0.1-1.4,0.4-1.9c0.2-0.5,0.6-0.9,1-1.2
				c0.4-0.3,0.9-0.4,1.4-0.4s1,0.1,1.4,0.4c0.4,0.3,0.8,0.7,1,1.2c0.2,0.5,0.4,1.2,0.4,1.9s-0.1,1.4-0.4,1.9c-0.2,0.5-0.6,0.9-1,1.2
				c-0.4,0.3-0.9,0.4-1.4,0.4S37.3-9.2,36.9-9.5z M39.4-10.1c0.3-0.2,0.6-0.6,0.7-1s0.3-1,0.3-1.6s-0.1-1.1-0.3-1.6
				c-0.2-0.4-0.4-0.8-0.7-1c-0.3-0.2-0.7-0.3-1.1-0.3s-0.8,0.1-1.1,0.3s-0.6,0.6-0.7,1c-0.2,0.4-0.3,1-0.3,1.6s0.1,1.1,0.3,1.6
				s0.4,0.8,0.7,1c0.3,0.2,0.7,0.3,1.1,0.3S39.1-9.9,39.4-10.1z"/>
		</g>
	</g>
	<g pointer-events="all">
		<rect x="40.6" y="12.7" pointer-events="all" class="st3" width="20" height="250"/>
		<polygon shape-rendering="crispEdges" class="st4" points="50.6,-12.3 50.6,-12.3 50.6,-12.3 		"/>
		<polygon class="st5" points="50.6,-12.3 50.6,-12.3 50.6,-12.3 		"/>
		<polygon class="st5" points="50.6,-12.3 50.6,-12.3 50.6,-12.3 		"/>
	</g>
	<g class="st1">
		<path class="st2" d="M17.2,292.6h1.2v3.3c-0.4,0.3-0.9,0.6-1.5,0.8c-0.6,0.2-1.1,0.3-1.7,0.3c-0.8,0-1.6-0.2-2.3-0.6
			s-1.2-0.9-1.6-1.5c-0.4-0.7-0.6-1.4-0.6-2.2c0-0.8,0.2-1.6,0.6-2.2c0.4-0.7,0.9-1.2,1.6-1.5c0.7-0.4,1.5-0.6,2.3-0.6
			c0.7,0,1.3,0.1,1.8,0.3c0.5,0.2,1,0.5,1.4,1l-0.7,0.7c-0.7-0.6-1.5-1-2.4-1c-0.6,0-1.2,0.1-1.7,0.4c-0.5,0.3-0.9,0.7-1.2,1.2
			c-0.3,0.5-0.4,1-0.4,1.7c0,0.6,0.1,1.2,0.4,1.7s0.7,0.9,1.2,1.2c0.5,0.3,1.1,0.4,1.7,0.4c0.8,0,1.4-0.2,2-0.5V292.6z"/>
		<path class="st2" d="M20.7,288.4h3.5c0.9,0,1.7,0.2,2.4,0.5c0.7,0.4,1.2,0.8,1.6,1.5c0.4,0.6,0.6,1.4,0.6,2.2
			c0,0.8-0.2,1.6-0.6,2.2c-0.4,0.6-0.9,1.1-1.6,1.5c-0.7,0.4-1.5,0.5-2.4,0.5h-3.5V288.4z M24.1,295.8c0.7,0,1.3-0.1,1.8-0.4
			c0.5-0.3,0.9-0.6,1.2-1.1s0.4-1,0.4-1.7s-0.1-1.2-0.4-1.6c-0.3-0.5-0.7-0.8-1.2-1.1c-0.5-0.3-1.1-0.4-1.8-0.4h-2.3v6.3H24.1z"/>
		<path class="st2" d="M36.4,289.2c0.6,0.5,0.9,1.2,0.9,2.1s-0.3,1.6-0.9,2.1c-0.6,0.5-1.5,0.8-2.6,0.8h-2.1v2.5h-1.2v-8.4h3.3
			C35,288.4,35.8,288.7,36.4,289.2z M35.6,292.7c0.4-0.3,0.6-0.8,0.6-1.4c0-0.6-0.2-1.1-0.6-1.4c-0.4-0.3-1-0.5-1.7-0.5h-2v3.8h2
			C34.6,293.2,35.2,293.1,35.6,292.7z"/>
		<path class="st2" d="M47.3,290.8c0.5,0.3,0.9,0.7,1.1,1.1c0.3,0.5,0.4,1.1,0.4,1.7c0,0.6-0.1,1.2-0.4,1.7
			c-0.3,0.5-0.7,0.9-1.1,1.1c-0.5,0.3-1,0.4-1.7,0.4c-0.5,0-0.9-0.1-1.3-0.3c-0.4-0.2-0.7-0.4-1-0.8v3.3h-1.2v-8.7h1.1v1
			c0.3-0.4,0.6-0.6,1-0.8c0.4-0.2,0.8-0.3,1.3-0.3C46.3,290.4,46.9,290.5,47.3,290.8z M46.7,295.6c0.3-0.2,0.6-0.5,0.8-0.8
			c0.2-0.3,0.3-0.7,0.3-1.2c0-0.4-0.1-0.8-0.3-1.2c-0.2-0.3-0.4-0.6-0.8-0.8c-0.3-0.2-0.7-0.3-1.1-0.3c-0.4,0-0.8,0.1-1.1,0.3
			c-0.3,0.2-0.6,0.5-0.8,0.8s-0.3,0.7-0.3,1.2c0,0.4,0.1,0.8,0.3,1.2c0.2,0.3,0.4,0.6,0.8,0.8c0.3,0.2,0.7,0.3,1.1,0.3
			C46,295.9,46.4,295.8,46.7,295.6z"/>
		<path class="st2" d="M56.2,294h-5.2c0.1,0.6,0.3,1,0.7,1.3c0.4,0.3,0.9,0.5,1.6,0.5c0.8,0,1.4-0.3,1.8-0.8l0.6,0.7
			c-0.3,0.3-0.6,0.6-1.1,0.8c-0.4,0.2-0.9,0.3-1.4,0.3c-0.7,0-1.3-0.1-1.8-0.4c-0.5-0.3-0.9-0.7-1.2-1.2c-0.3-0.5-0.4-1.1-0.4-1.7
			c0-0.6,0.1-1.2,0.4-1.7c0.3-0.5,0.7-0.9,1.1-1.2c0.5-0.3,1-0.4,1.6-0.4c0.6,0,1.1,0.1,1.6,0.4c0.5,0.3,0.8,0.7,1.1,1.2
			c0.3,0.5,0.4,1.1,0.4,1.7C56.2,293.8,56.2,293.9,56.2,294z M51.7,291.9c-0.4,0.3-0.6,0.8-0.7,1.3h4.1c-0.1-0.5-0.3-1-0.7-1.3
			c-0.4-0.3-0.8-0.5-1.4-0.5S52.1,291.5,51.7,291.9z"/>
		<path class="st2" d="M59.8,290.7c0.4-0.2,0.9-0.3,1.4-0.3v1.1c-0.1,0-0.2,0-0.3,0c-0.6,0-1.1,0.2-1.5,0.6
			c-0.4,0.4-0.5,0.9-0.5,1.6v3.2h-1.2v-6.4h1.1v1.1C59.1,291.1,59.4,290.9,59.8,290.7z"/>
		<path class="st2" d="M67.6,296.3c-0.7-0.4-1.2-0.9-1.6-1.5c-0.4-0.7-0.6-1.4-0.6-2.2c0-0.8,0.2-1.5,0.6-2.2
			c0.4-0.7,0.9-1.2,1.6-1.5c0.7-0.4,1.4-0.6,2.3-0.6c0.7,0,1.3,0.1,1.8,0.3c0.5,0.2,1,0.5,1.4,1l-0.8,0.8c-0.6-0.7-1.4-1-2.4-1
			c-0.6,0-1.2,0.1-1.7,0.4s-0.9,0.7-1.2,1.2c-0.3,0.5-0.4,1-0.4,1.6c0,0.6,0.1,1.2,0.4,1.7c0.3,0.5,0.7,0.9,1.2,1.2
			c0.5,0.3,1.1,0.4,1.7,0.4c0.9,0,1.7-0.3,2.4-1l0.8,0.8c-0.4,0.4-0.8,0.8-1.4,1c-0.5,0.2-1.1,0.3-1.8,0.3
			C69.1,296.9,68.3,296.7,67.6,296.3z"/>
		<path class="st2" d="M78.9,291c0.5,0.4,0.7,1.1,0.7,1.9v3.8h-1.1V296c-0.2,0.3-0.5,0.5-0.8,0.7c-0.4,0.2-0.8,0.2-1.3,0.2
			c-0.7,0-1.3-0.2-1.7-0.5c-0.4-0.3-0.6-0.8-0.6-1.4c0-0.6,0.2-1,0.6-1.4c0.4-0.3,1.1-0.5,1.9-0.5h1.8v-0.2c0-0.5-0.1-0.9-0.4-1.1
			c-0.3-0.3-0.7-0.4-1.3-0.4c-0.4,0-0.7,0.1-1.1,0.2c-0.4,0.1-0.7,0.3-0.9,0.5l-0.5-0.9c0.3-0.3,0.7-0.5,1.2-0.6s0.9-0.2,1.5-0.2
			C77.8,290.4,78.5,290.6,78.9,291z M77.8,295.7c0.3-0.2,0.6-0.5,0.7-0.8V294h-1.8c-1,0-1.5,0.3-1.5,1c0,0.3,0.1,0.6,0.4,0.8
			c0.2,0.2,0.6,0.3,1,0.3C77.1,296,77.5,295.9,77.8,295.7z"/>
		<path class="st2" d="M86.8,290.8c0.5,0.3,0.9,0.7,1.1,1.1c0.3,0.5,0.4,1.1,0.4,1.7c0,0.6-0.1,1.2-0.4,1.7
			c-0.3,0.5-0.7,0.9-1.1,1.1c-0.5,0.3-1,0.4-1.7,0.4c-0.5,0-0.9-0.1-1.3-0.3c-0.4-0.2-0.7-0.4-1-0.8v3.3h-1.2v-8.7h1.1v1
			c0.3-0.4,0.6-0.6,1-0.8c0.4-0.2,0.8-0.3,1.3-0.3C85.7,290.4,86.3,290.5,86.8,290.8z M86.1,295.6c0.3-0.2,0.6-0.5,0.8-0.8
			c0.2-0.3,0.3-0.7,0.3-1.2c0-0.4-0.1-0.8-0.3-1.2c-0.2-0.3-0.4-0.6-0.8-0.8c-0.3-0.2-0.7-0.3-1.1-0.3c-0.4,0-0.8,0.1-1.1,0.3
			c-0.3,0.2-0.6,0.5-0.8,0.8c-0.2,0.3-0.3,0.7-0.3,1.2c0,0.4,0.1,0.8,0.3,1.2c0.2,0.3,0.4,0.6,0.8,0.8c0.3,0.2,0.7,0.3,1.1,0.3
			C85.4,295.9,85.8,295.8,86.1,295.6z"/>
		<path class="st2" d="M90,289c-0.1-0.1-0.2-0.3-0.2-0.5s0.1-0.4,0.2-0.5c0.1-0.1,0.3-0.2,0.6-0.2c0.2,0,0.4,0.1,0.6,0.2
			s0.2,0.3,0.2,0.5c0,0.2-0.1,0.4-0.2,0.5c-0.1,0.1-0.3,0.2-0.6,0.2C90.3,289.2,90.1,289.2,90,289z M89.9,290.4h1.2v6.4h-1.2V290.4z
			"/>
		<path class="st2" d="M96.9,296.4c-0.2,0.1-0.4,0.3-0.6,0.3s-0.5,0.1-0.8,0.1c-0.6,0-1.1-0.2-1.5-0.5c-0.4-0.3-0.5-0.8-0.5-1.5
			v-3.5h-1.1v-0.9h1.1v-1.4h1.2v1.4h1.8v0.9h-1.8v3.4c0,0.3,0.1,0.6,0.3,0.8c0.2,0.2,0.4,0.3,0.7,0.3c0.4,0,0.7-0.1,0.9-0.3
			L96.9,296.4z"/>
		<path class="st2" d="M102.6,291c0.5,0.4,0.7,1.1,0.7,1.9v3.8h-1.1V296c-0.2,0.3-0.5,0.5-0.8,0.7c-0.4,0.2-0.8,0.2-1.3,0.2
			c-0.7,0-1.3-0.2-1.7-0.5c-0.4-0.3-0.6-0.8-0.6-1.4c0-0.6,0.2-1,0.6-1.4c0.4-0.3,1.1-0.5,1.9-0.5h1.8v-0.2c0-0.5-0.1-0.9-0.4-1.1
			c-0.3-0.3-0.7-0.4-1.3-0.4c-0.4,0-0.7,0.1-1.1,0.2s-0.7,0.3-0.9,0.5l-0.5-0.9c0.3-0.3,0.7-0.5,1.2-0.6s0.9-0.2,1.5-0.2
			C101.5,290.4,102.1,290.6,102.6,291z M101.5,295.7c0.3-0.2,0.6-0.5,0.7-0.8V294h-1.8c-1,0-1.5,0.3-1.5,1c0,0.3,0.1,0.6,0.4,0.8
			c0.2,0.2,0.6,0.3,1,0.3C100.8,296,101.1,295.9,101.5,295.7z"/>
		<path class="st2" d="M11.4,308.6c-0.2-0.8-0.3-1.7-0.3-2.6c0-0.9,0.1-1.8,0.3-2.6c0.2-0.8,0.5-1.5,0.9-2.1h0.9
			c-0.4,0.7-0.7,1.4-0.9,2.2s-0.3,1.6-0.3,2.5s0.1,1.7,0.3,2.5s0.5,1.5,0.9,2.2h-0.9C11.9,310.1,11.6,309.4,11.4,308.6z"/>
		<path class="st2" d="M15.3,308.1c-0.5-0.5-0.8-1.3-0.8-2.3v-4h1v3.9c0,1.5,0.7,2.2,2,2.2c0.6,0,1.1-0.2,1.5-0.6s0.5-0.9,0.5-1.7
			v-3.9h1v4c0,1-0.3,1.8-0.8,2.3c-0.5,0.5-1.2,0.8-2.2,0.8C16.5,308.9,15.8,308.6,15.3,308.1z"/>
		<path class="st2" d="M23,308.6c-0.5-0.2-0.9-0.4-1.2-0.6l0.4-0.8c0.3,0.2,0.6,0.4,1,0.6c0.4,0.2,0.8,0.2,1.3,0.2
			c0.6,0,1-0.1,1.3-0.3c0.3-0.2,0.4-0.5,0.4-0.8c0-0.2-0.1-0.4-0.2-0.6c-0.2-0.2-0.3-0.3-0.6-0.3c-0.2-0.1-0.6-0.2-1-0.3
			c-0.5-0.1-1-0.3-1.3-0.4c-0.3-0.1-0.6-0.3-0.8-0.6c-0.2-0.3-0.3-0.6-0.3-1.1c0-0.4,0.1-0.7,0.3-1c0.2-0.3,0.5-0.5,0.9-0.7
			c0.4-0.2,0.9-0.3,1.5-0.3c0.4,0,0.8,0.1,1.2,0.2c0.4,0.1,0.7,0.3,1,0.5l-0.3,0.8c-0.3-0.2-0.6-0.3-0.9-0.4s-0.7-0.1-1-0.1
			c-0.6,0-1,0.1-1.3,0.3s-0.4,0.5-0.4,0.8c0,0.2,0.1,0.4,0.2,0.6c0.2,0.2,0.4,0.3,0.6,0.4c0.2,0.1,0.6,0.2,1,0.3
			c0.5,0.1,1,0.3,1.3,0.4c0.3,0.1,0.6,0.3,0.8,0.6c0.2,0.3,0.3,0.6,0.3,1c0,0.4-0.1,0.7-0.3,1c-0.2,0.3-0.5,0.5-0.9,0.7
			c-0.4,0.2-0.9,0.3-1.5,0.3C24,308.9,23.5,308.8,23,308.6z"/>
		<path class="st2" d="M28.7,301.8h3c0.7,0,1.4,0.1,2,0.4c0.6,0.3,1,0.7,1.3,1.2c0.3,0.5,0.5,1.1,0.5,1.8s-0.2,1.3-0.5,1.8
			c-0.3,0.5-0.8,0.9-1.3,1.2c-0.6,0.3-1.2,0.4-2,0.4h-3V301.8z M31.6,307.9c0.6,0,1.1-0.1,1.5-0.3c0.4-0.2,0.8-0.5,1-0.9
			c0.2-0.4,0.3-0.9,0.3-1.4s-0.1-1-0.3-1.4c-0.2-0.4-0.6-0.7-1-0.9c-0.4-0.2-0.9-0.3-1.5-0.3h-1.9v5.3H31.6z"/>
		<path class="st2" d="M36.3,310.7c0.4-0.7,0.7-1.4,0.9-2.2c0.2-0.8,0.3-1.6,0.3-2.5s-0.1-1.7-0.3-2.5c-0.2-0.8-0.5-1.5-0.9-2.2h0.9
			c0.4,0.6,0.7,1.3,0.9,2.1c0.2,0.8,0.3,1.7,0.3,2.6c0,0.9-0.1,1.8-0.3,2.6s-0.5,1.5-0.9,2.1H36.3z"/>
	</g>
	<path class="st0" d="M261.3,263.2h6.5v-250h-6.5"/>
	<g transform="translate(0,275.5)">
		<line class="st0" x1="267.3" y1="-12.3" x2="261.3" y2="-12.3"/>
		<g class="st1">
			<path class="st2" d="M245-9.5c-0.4-0.3-0.8-0.7-1-1.2c-0.2-0.5-0.4-1.2-0.4-1.9s0.1-1.4,0.4-1.9c0.2-0.5,0.6-0.9,1-1.2
				c0.4-0.3,0.9-0.4,1.4-0.4s1,0.1,1.4,0.4c0.4,0.3,0.8,0.7,1,1.2c0.2,0.5,0.4,1.2,0.4,1.9s-0.1,1.4-0.4,1.9c-0.2,0.5-0.6,0.9-1,1.2
				c-0.4,0.3-0.9,0.4-1.4,0.4S245.4-9.2,245-9.5z M247.5-10.1c0.3-0.2,0.6-0.6,0.7-1s0.3-1,0.3-1.6s-0.1-1.1-0.3-1.6
				c-0.2-0.4-0.4-0.8-0.7-1c-0.3-0.2-0.7-0.3-1.1-0.3s-0.8,0.1-1.1,0.3s-0.6,0.6-0.7,1c-0.2,0.4-0.3,1-0.3,1.6s0.1,1.1,0.3,1.6
				s0.4,0.8,0.7,1c0.3,0.2,0.7,0.3,1.1,0.3S247.2-9.9,247.5-10.1z"/>
			<path class="st2" d="M250.3-9.2c-0.1-0.1-0.2-0.2-0.2-0.4s0.1-0.3,0.2-0.4c0.1-0.1,0.2-0.2,0.4-0.2c0.1,0,0.3,0.1,0.4,0.2
				s0.2,0.2,0.2,0.4s-0.1,0.3-0.2,0.4c-0.1,0.1-0.2,0.2-0.4,0.2C250.6-9.1,250.4-9.1,250.3-9.2z"/>
			<path class="st2" d="M253.5-9.5c-0.4-0.3-0.8-0.7-1-1.2c-0.2-0.5-0.4-1.2-0.4-1.9s0.1-1.4,0.4-1.9c0.2-0.5,0.6-0.9,1-1.2
				c0.4-0.3,0.9-0.4,1.4-0.4s1,0.1,1.4,0.4c0.4,0.3,0.8,0.7,1,1.2c0.2,0.5,0.4,1.2,0.4,1.9s-0.1,1.4-0.4,1.9c-0.2,0.5-0.6,0.9-1,1.2
				c-0.4,0.3-0.9,0.4-1.4,0.4S254-9.2,253.5-9.5z M256.1-10.1c0.3-0.2,0.6-0.6,0.7-1s0.3-1,0.3-1.6s-0.1-1.1-0.3-1.6
				c-0.2-0.4-0.4-0.8-0.7-1c-0.3-0.2-0.7-0.3-1.1-0.3s-0.8,0.1-1.1,0.3s-0.6,0.6-0.7,1c-0.2,0.4-0.3,1-0.3,1.6s0.1,1.1,0.3,1.6
				s0.4,0.8,0.7,1c0.3,0.2,0.7,0.3,1.1,0.3S255.7-9.9,256.1-10.1z"/>
		</g>
	</g>
	<g transform="translate(0,250.5)">
		<line class="st0" x1="267.3" y1="-12.3" x2="261.3" y2="-12.3"/>
		<g class="st1">
			<path class="st2" d="M245.9-9.5c-0.4-0.3-0.8-0.7-1-1.2c-0.2-0.5-0.4-1.2-0.4-1.9s0.1-1.4,0.4-1.9c0.2-0.5,0.6-0.9,1-1.2
				c0.4-0.3,0.9-0.4,1.4-0.4s1,0.1,1.4,0.4c0.4,0.3,0.8,0.7,1,1.2c0.2,0.5,0.4,1.2,0.4,1.9s-0.1,1.4-0.4,1.9c-0.2,0.5-0.6,0.9-1,1.2
				c-0.4,0.3-0.9,0.4-1.4,0.4S246.3-9.2,245.9-9.5z M248.4-10.1c0.3-0.2,0.6-0.6,0.7-1s0.3-1,0.3-1.6s-0.1-1.1-0.3-1.6
				c-0.2-0.4-0.4-0.8-0.7-1c-0.3-0.2-0.7-0.3-1.1-0.3s-0.8,0.1-1.1,0.3s-0.6,0.6-0.7,1c-0.2,0.4-0.3,1-0.3,1.6s0.1,1.1,0.3,1.6
				s0.4,0.8,0.7,1c0.3,0.2,0.7,0.3,1.1,0.3S248.1-9.9,248.4-10.1z"/>
			<path class="st2" d="M251.2-9.2c-0.1-0.1-0.2-0.2-0.2-0.4s0.1-0.3,0.2-0.4c0.1-0.1,0.2-0.2,0.4-0.2c0.1,0,0.3,0.1,0.4,0.2
				s0.2,0.2,0.2,0.4s-0.1,0.3-0.2,0.4c-0.1,0.1-0.2,0.2-0.4,0.2C251.4-9.1,251.3-9.1,251.2-9.2z"/>
			<path class="st2" d="M257.2-12.7c0.5,0.4,0.7,0.9,0.7,1.5c0,0.4-0.1,0.8-0.3,1.1c-0.2,0.3-0.5,0.6-0.9,0.8s-0.8,0.3-1.4,0.3
				c-0.5,0-1-0.1-1.4-0.2c-0.5-0.2-0.8-0.4-1.1-0.7l0.3-0.6c0.2,0.2,0.5,0.4,0.9,0.6c0.4,0.2,0.8,0.2,1.2,0.2c0.6,0,1-0.1,1.3-0.4
				c0.3-0.3,0.5-0.6,0.5-1c0-0.5-0.2-0.8-0.5-1.1c-0.4-0.2-1-0.4-1.8-0.4h-1.5l0.4-3.5h3.8v0.6h-3.2l-0.2,2.2h0.9
				C256-13.3,256.7-13.1,257.2-12.7z"/>
		</g>
	</g>
	<g transform="translate(0,225.5)">
		<line class="st0" x1="267.3" y1="-12.3" x2="261.3" y2="-12.3"/>
		<g class="st1">
			<path class="st2" d="M248.5-16.1v7h-0.7v-6.4h-1.7v-0.6H248.5z"/>
			<path class="st2" d="M250.3-9.2c-0.1-0.1-0.2-0.2-0.2-0.4s0.1-0.3,0.2-0.4c0.1-0.1,0.2-0.2,0.4-0.2c0.1,0,0.3,0.1,0.4,0.2
				s0.2,0.2,0.2,0.4s-0.1,0.3-0.2,0.4c-0.1,0.1-0.2,0.2-0.4,0.2C250.6-9.1,250.4-9.1,250.3-9.2z"/>
			<path class="st2" d="M253.5-9.5c-0.4-0.3-0.8-0.7-1-1.2c-0.2-0.5-0.4-1.2-0.4-1.9s0.1-1.4,0.4-1.9c0.2-0.5,0.6-0.9,1-1.2
				c0.4-0.3,0.9-0.4,1.4-0.4s1,0.1,1.4,0.4c0.4,0.3,0.8,0.7,1,1.2c0.2,0.5,0.4,1.2,0.4,1.9s-0.1,1.4-0.4,1.9c-0.2,0.5-0.6,0.9-1,1.2
				c-0.4,0.3-0.9,0.4-1.4,0.4S254-9.2,253.5-9.5z M256.1-10.1c0.3-0.2,0.6-0.6,0.7-1s0.3-1,0.3-1.6s-0.1-1.1-0.3-1.6
				c-0.2-0.4-0.4-0.8-0.7-1c-0.3-0.2-0.7-0.3-1.1-0.3s-0.8,0.1-1.1,0.3s-0.6,0.6-0.7,1c-0.2,0.4-0.3,1-0.3,1.6s0.1,1.1,0.3,1.6
				s0.4,0.8,0.7,1c0.3,0.2,0.7,0.3,1.1,0.3S255.7-9.9,256.1-10.1z"/>
		</g>
	</g>
	<g transform="translate(0,200.5)">
		<line class="st0" x1="267.3" y1="-12.3" x2="261.3" y2="-12.3"/>
		<g class="st1">
			<path class="st2" d="M249.4-16.1v7h-0.7v-6.4H247v-0.6H249.4z"/>
			<path class="st2" d="M251.2-9.2c-0.1-0.1-0.2-0.2-0.2-0.4s0.1-0.3,0.2-0.4c0.1-0.1,0.2-0.2,0.4-0.2c0.1,0,0.3,0.1,0.4,0.2
				s0.2,0.2,0.2,0.4s-0.1,0.3-0.2,0.4c-0.1,0.1-0.2,0.2-0.4,0.2C251.4-9.1,251.3-9.1,251.2-9.2z"/>
			<path class="st2" d="M257.2-12.7c0.5,0.4,0.7,0.9,0.7,1.5c0,0.4-0.1,0.8-0.3,1.1c-0.2,0.3-0.5,0.6-0.9,0.8s-0.8,0.3-1.4,0.3
				c-0.5,0-1-0.1-1.4-0.2c-0.5-0.2-0.8-0.4-1.1-0.7l0.3-0.6c0.2,0.2,0.5,0.4,0.9,0.6c0.4,0.2,0.8,0.2,1.2,0.2c0.6,0,1-0.1,1.3-0.4
				c0.3-0.3,0.5-0.6,0.5-1c0-0.5-0.2-0.8-0.5-1.1c-0.4-0.2-1-0.4-1.8-0.4h-1.5l0.4-3.5h3.8v0.6h-3.2l-0.2,2.2h0.9
				C256-13.3,256.7-13.1,257.2-12.7z"/>
		</g>
	</g>
	<g transform="translate(0,175.5)">
		<line class="st0" x1="267.3" y1="-12.3" x2="261.3" y2="-12.3"/>
		<g class="st1">
			<path class="st2" d="M249.2-9.8v0.6h-4.9v-0.5l2.9-2.9c0.4-0.4,0.6-0.7,0.7-0.9s0.2-0.5,0.2-0.8c0-0.4-0.1-0.7-0.4-1
				c-0.3-0.2-0.7-0.3-1.2-0.3c-0.8,0-1.5,0.3-1.9,0.8l-0.5-0.4c0.3-0.3,0.6-0.6,1-0.7c0.4-0.2,0.9-0.3,1.4-0.3
				c0.7,0,1.3,0.2,1.7,0.5c0.4,0.3,0.6,0.8,0.6,1.4c0,0.4-0.1,0.7-0.2,1c-0.2,0.3-0.5,0.7-0.9,1.1l-2.4,2.3H249.2z"/>
			<path class="st2" d="M250.3-9.2c-0.1-0.1-0.2-0.2-0.2-0.4s0.1-0.3,0.2-0.4c0.1-0.1,0.2-0.2,0.4-0.2c0.1,0,0.3,0.1,0.4,0.2
				s0.2,0.2,0.2,0.4s-0.1,0.3-0.2,0.4c-0.1,0.1-0.2,0.2-0.4,0.2C250.6-9.1,250.4-9.1,250.3-9.2z"/>
			<path class="st2" d="M253.5-9.5c-0.4-0.3-0.8-0.7-1-1.2c-0.2-0.5-0.4-1.2-0.4-1.9s0.1-1.4,0.4-1.9c0.2-0.5,0.6-0.9,1-1.2
				c0.4-0.3,0.9-0.4,1.4-0.4s1,0.1,1.4,0.4c0.4,0.3,0.8,0.7,1,1.2c0.2,0.5,0.4,1.2,0.4,1.9s-0.1,1.4-0.4,1.9c-0.2,0.5-0.6,0.9-1,1.2
				c-0.4,0.3-0.9,0.4-1.4,0.4S254-9.2,253.5-9.5z M256.1-10.1c0.3-0.2,0.6-0.6,0.7-1s0.3-1,0.3-1.6s-0.1-1.1-0.3-1.6
				c-0.2-0.4-0.4-0.8-0.7-1c-0.3-0.2-0.7-0.3-1.1-0.3s-0.8,0.1-1.1,0.3s-0.6,0.6-0.7,1c-0.2,0.4-0.3,1-0.3,1.6s0.1,1.1,0.3,1.6
				s0.4,0.8,0.7,1c0.3,0.2,0.7,0.3,1.1,0.3S255.7-9.9,256.1-10.1z"/>
		</g>
	</g>
	<g transform="translate(0,150.5)">
		<line class="st0" x1="267.3" y1="-12.3" x2="261.3" y2="-12.3"/>
		<g class="st1">
			<path class="st2" d="M250-9.8v0.6h-4.9v-0.5l2.9-2.9c0.4-0.4,0.6-0.7,0.7-0.9s0.2-0.5,0.2-0.8c0-0.4-0.1-0.7-0.4-1
				c-0.3-0.2-0.7-0.3-1.2-0.3c-0.8,0-1.5,0.3-1.9,0.8l-0.5-0.4c0.3-0.3,0.6-0.6,1-0.7c0.4-0.2,0.9-0.3,1.4-0.3
				c0.7,0,1.3,0.2,1.7,0.5c0.4,0.3,0.6,0.8,0.6,1.4c0,0.4-0.1,0.7-0.2,1c-0.2,0.3-0.5,0.7-0.9,1.1l-2.4,2.3H250z"/>
			<path class="st2" d="M251.2-9.2c-0.1-0.1-0.2-0.2-0.2-0.4s0.1-0.3,0.2-0.4c0.1-0.1,0.2-0.2,0.4-0.2c0.1,0,0.3,0.1,0.4,0.2
				s0.2,0.2,0.2,0.4s-0.1,0.3-0.2,0.4c-0.1,0.1-0.2,0.2-0.4,0.2C251.4-9.1,251.3-9.1,251.2-9.2z"/>
			<path class="st2" d="M257.2-12.7c0.5,0.4,0.7,0.9,0.7,1.5c0,0.4-0.1,0.8-0.3,1.1c-0.2,0.3-0.5,0.6-0.9,0.8s-0.8,0.3-1.4,0.3
				c-0.5,0-1-0.1-1.4-0.2c-0.5-0.2-0.8-0.4-1.1-0.7l0.3-0.6c0.2,0.2,0.5,0.4,0.9,0.6c0.4,0.2,0.8,0.2,1.2,0.2c0.6,0,1-0.1,1.3-0.4
				c0.3-0.3,0.5-0.6,0.5-1c0-0.5-0.2-0.8-0.5-1.1c-0.4-0.2-1-0.4-1.8-0.4h-1.5l0.4-3.5h3.8v0.6h-3.2l-0.2,2.2h0.9
				C256-13.3,256.7-13.1,257.2-12.7z"/>
		</g>
	</g>
	<g transform="translate(0,125.5)">
		<line class="st0" x1="267.3" y1="-12.3" x2="261.3" y2="-12.3"/>
		<g class="st1">
			<path class="st2" d="M248.6-12.5c0.4,0.4,0.6,0.8,0.6,1.4c0,0.4-0.1,0.8-0.3,1.1c-0.2,0.3-0.5,0.6-0.9,0.7s-0.8,0.3-1.4,0.3
				c-0.5,0-1-0.1-1.4-0.2c-0.4-0.2-0.8-0.4-1.1-0.7l0.4-0.6c0.2,0.2,0.5,0.4,0.9,0.6c0.4,0.2,0.8,0.2,1.2,0.2c0.6,0,1-0.1,1.3-0.4
				s0.5-0.6,0.5-1c0-0.4-0.2-0.8-0.5-1c-0.3-0.2-0.8-0.4-1.4-0.4H246v-0.5l1.9-2.4h-3.6v-0.6h4.5v0.5l-2,2.5
				C247.7-13.1,248.2-12.9,248.6-12.5z"/>
			<path class="st2" d="M250.3-9.2c-0.1-0.1-0.2-0.2-0.2-0.4s0.1-0.3,0.2-0.4c0.1-0.1,0.2-0.2,0.4-0.2c0.1,0,0.3,0.1,0.4,0.2
				s0.2,0.2,0.2,0.4s-0.1,0.3-0.2,0.4c-0.1,0.1-0.2,0.2-0.4,0.2C250.6-9.1,250.4-9.1,250.3-9.2z"/>
			<path class="st2" d="M253.5-9.5c-0.4-0.3-0.8-0.7-1-1.2c-0.2-0.5-0.4-1.2-0.4-1.9s0.1-1.4,0.4-1.9c0.2-0.5,0.6-0.9,1-1.2
				c0.4-0.3,0.9-0.4,1.4-0.4s1,0.1,1.4,0.4c0.4,0.3,0.8,0.7,1,1.2c0.2,0.5,0.4,1.2,0.4,1.9s-0.1,1.4-0.4,1.9c-0.2,0.5-0.6,0.9-1,1.2
				c-0.4,0.3-0.9,0.4-1.4,0.4S254-9.2,253.5-9.5z M256.1-10.1c0.3-0.2,0.6-0.6,0.7-1s0.3-1,0.3-1.6s-0.1-1.1-0.3-1.6
				c-0.2-0.4-0.4-0.8-0.7-1c-0.3-0.2-0.7-0.3-1.1-0.3s-0.8,0.1-1.1,0.3s-0.6,0.6-0.7,1c-0.2,0.4-0.3,1-0.3,1.6s0.1,1.1,0.3,1.6
				s0.4,0.8,0.7,1c0.3,0.2,0.7,0.3,1.1,0.3S255.7-9.9,256.1-10.1z"/>
		</g>
	</g>
	<g transform="translate(0,100.5)">
		<line class="st0" x1="267.3" y1="-12.3" x2="261.3" y2="-12.3"/>
		<g class="st1">
			<path class="st2" d="M249.4-12.5c0.4,0.4,0.6,0.8,0.6,1.4c0,0.4-0.1,0.8-0.3,1.1c-0.2,0.3-0.5,0.6-0.9,0.7s-0.8,0.3-1.4,0.3
				c-0.5,0-1-0.1-1.4-0.2c-0.4-0.2-0.8-0.4-1.1-0.7l0.4-0.6c0.2,0.2,0.5,0.4,0.9,0.6c0.4,0.2,0.8,0.2,1.2,0.2c0.6,0,1-0.1,1.3-0.4
				s0.5-0.6,0.5-1c0-0.4-0.2-0.8-0.5-1c-0.3-0.2-0.8-0.4-1.4-0.4h-0.5v-0.5l1.9-2.4h-3.6v-0.6h4.5v0.5l-2,2.5
				C248.5-13.1,249.1-12.9,249.4-12.5z"/>
			<path class="st2" d="M251.2-9.2c-0.1-0.1-0.2-0.2-0.2-0.4s0.1-0.3,0.2-0.4c0.1-0.1,0.2-0.2,0.4-0.2c0.1,0,0.3,0.1,0.4,0.2
				s0.2,0.2,0.2,0.4s-0.1,0.3-0.2,0.4c-0.1,0.1-0.2,0.2-0.4,0.2C251.4-9.1,251.3-9.1,251.2-9.2z"/>
			<path class="st2" d="M257.2-12.7c0.5,0.4,0.7,0.9,0.7,1.5c0,0.4-0.1,0.8-0.3,1.1c-0.2,0.3-0.5,0.6-0.9,0.8s-0.8,0.3-1.4,0.3
				c-0.5,0-1-0.1-1.4-0.2c-0.5-0.2-0.8-0.4-1.1-0.7l0.3-0.6c0.2,0.2,0.5,0.4,0.9,0.6c0.4,0.2,0.8,0.2,1.2,0.2c0.6,0,1-0.1,1.3-0.4
				c0.3-0.3,0.5-0.6,0.5-1c0-0.5-0.2-0.8-0.5-1.1c-0.4-0.2-1-0.4-1.8-0.4h-1.5l0.4-3.5h3.8v0.6h-3.2l-0.2,2.2h0.9
				C256-13.3,256.7-13.1,257.2-12.7z"/>
		</g>
	</g>
	<g transform="translate(0,75.5)">
		<line class="st0" x1="267.3" y1="-12.3" x2="261.3" y2="-12.3"/>
		<g class="st1">
			<path class="st2" d="M249.3-11h-1.4v1.8h-0.7V-11h-4v-0.5l3.7-4.6h0.8l-3.6,4.5h3v-1.6h0.7v1.6h1.4V-11z"/>
			<path class="st2" d="M250.3-9.2c-0.1-0.1-0.2-0.2-0.2-0.4s0.1-0.3,0.2-0.4c0.1-0.1,0.2-0.2,0.4-0.2c0.1,0,0.3,0.1,0.4,0.2
				s0.2,0.2,0.2,0.4s-0.1,0.3-0.2,0.4c-0.1,0.1-0.2,0.2-0.4,0.2C250.6-9.1,250.4-9.1,250.3-9.2z"/>
			<path class="st2" d="M253.5-9.5c-0.4-0.3-0.8-0.7-1-1.2c-0.2-0.5-0.4-1.2-0.4-1.9s0.1-1.4,0.4-1.9c0.2-0.5,0.6-0.9,1-1.2
				c0.4-0.3,0.9-0.4,1.4-0.4s1,0.1,1.4,0.4c0.4,0.3,0.8,0.7,1,1.2c0.2,0.5,0.4,1.2,0.4,1.9s-0.1,1.4-0.4,1.9c-0.2,0.5-0.6,0.9-1,1.2
				c-0.4,0.3-0.9,0.4-1.4,0.4S254-9.2,253.5-9.5z M256.1-10.1c0.3-0.2,0.6-0.6,0.7-1s0.3-1,0.3-1.6s-0.1-1.1-0.3-1.6
				c-0.2-0.4-0.4-0.8-0.7-1c-0.3-0.2-0.7-0.3-1.1-0.3s-0.8,0.1-1.1,0.3s-0.6,0.6-0.7,1c-0.2,0.4-0.3,1-0.3,1.6s0.1,1.1,0.3,1.6
				s0.4,0.8,0.7,1c0.3,0.2,0.7,0.3,1.1,0.3S255.7-9.9,256.1-10.1z"/>
		</g>
	</g>
	<g transform="translate(0,50.5)">
		<line class="st0" x1="267.3" y1="-12.3" x2="261.3" y2="-12.3"/>
		<g class="st1">
			<path class="st2" d="M250.2-11h-1.4v1.8H248V-11h-4v-0.5l3.7-4.6h0.8l-3.6,4.5h3v-1.6h0.7v1.6h1.4V-11z"/>
			<path class="st2" d="M251.2-9.2c-0.1-0.1-0.2-0.2-0.2-0.4s0.1-0.3,0.2-0.4c0.1-0.1,0.2-0.2,0.4-0.2c0.1,0,0.3,0.1,0.4,0.2
				s0.2,0.2,0.2,0.4s-0.1,0.3-0.2,0.4c-0.1,0.1-0.2,0.2-0.4,0.2C251.4-9.1,251.3-9.1,251.2-9.2z"/>
			<path class="st2" d="M257.2-12.7c0.5,0.4,0.7,0.9,0.7,1.5c0,0.4-0.1,0.8-0.3,1.1c-0.2,0.3-0.5,0.6-0.9,0.8s-0.8,0.3-1.4,0.3
				c-0.5,0-1-0.1-1.4-0.2c-0.5-0.2-0.8-0.4-1.1-0.7l0.3-0.6c0.2,0.2,0.5,0.4,0.9,0.6c0.4,0.2,0.8,0.2,1.2,0.2c0.6,0,1-0.1,1.3-0.4
				c0.3-0.3,0.5-0.6,0.5-1c0-0.5-0.2-0.8-0.5-1.1c-0.4-0.2-1-0.4-1.8-0.4h-1.5l0.4-3.5h3.8v0.6h-3.2l-0.2,2.2h0.9
				C256-13.3,256.7-13.1,257.2-12.7z"/>
		</g>
	</g>
	<g transform="translate(0,25.5)">
		<line class="st0" x1="267.3" y1="-12.3" x2="261.3" y2="-12.3"/>
		<g class="st1">
			<path class="st2" d="M248.6-12.7c0.5,0.4,0.7,0.9,0.7,1.5c0,0.4-0.1,0.8-0.3,1.1c-0.2,0.3-0.5,0.6-0.9,0.8s-0.8,0.3-1.4,0.3
				c-0.5,0-1-0.1-1.4-0.2c-0.5-0.2-0.8-0.4-1.1-0.7l0.3-0.6c0.2,0.2,0.5,0.4,0.9,0.6c0.4,0.2,0.8,0.2,1.2,0.2c0.6,0,1-0.1,1.3-0.4
				c0.3-0.3,0.5-0.6,0.5-1c0-0.5-0.2-0.8-0.5-1.1c-0.4-0.2-1-0.4-1.8-0.4h-1.5l0.4-3.5h3.8v0.6h-3.2l-0.2,2.2h0.9
				C247.4-13.3,248.1-13.1,248.6-12.7z"/>
			<path class="st2" d="M250.3-9.2c-0.1-0.1-0.2-0.2-0.2-0.4s0.1-0.3,0.2-0.4c0.1-0.1,0.2-0.2,0.4-0.2c0.1,0,0.3,0.1,0.4,0.2
				s0.2,0.2,0.2,0.4s-0.1,0.3-0.2,0.4c-0.1,0.1-0.2,0.2-0.4,0.2C250.6-9.1,250.4-9.1,250.3-9.2z"/>
			<path class="st2" d="M253.5-9.5c-0.4-0.3-0.8-0.7-1-1.2c-0.2-0.5-0.4-1.2-0.4-1.9s0.1-1.4,0.4-1.9c0.2-0.5,0.6-0.9,1-1.2
				c0.4-0.3,0.9-0.4,1.4-0.4s1,0.1,1.4,0.4c0.4,0.3,0.8,0.7,1,1.2c0.2,0.5,0.4,1.2,0.4,1.9s-0.1,1.4-0.4,1.9c-0.2,0.5-0.6,0.9-1,1.2
				c-0.4,0.3-0.9,0.4-1.4,0.4S254-9.2,253.5-9.5z M256.1-10.1c0.3-0.2,0.6-0.6,0.7-1s0.3-1,0.3-1.6s-0.1-1.1-0.3-1.6
				c-0.2-0.4-0.4-0.8-0.7-1c-0.3-0.2-0.7-0.3-1.1-0.3s-0.8,0.1-1.1,0.3s-0.6,0.6-0.7,1c-0.2,0.4-0.3,1-0.3,1.6s0.1,1.1,0.3,1.6
				s0.4,0.8,0.7,1c0.3,0.2,0.7,0.3,1.1,0.3S255.7-9.9,256.1-10.1z"/>
		</g>
	</g>
	<g pointer-events="all">
		<rect x="257.3" y="12.7" pointer-events="all" class="st3" width="20" height="250"/>
		<polygon shape-rendering="crispEdges" class="st4" points="267.3,-12.3 267.3,-12.3 267.3,-12.3 		"/>
		<polygon class="st5" points="267.3,-12.3 267.3,-12.3 267.3,-12.3 		"/>
		<polygon class="st5" points="267.3,-12.3 267.3,-12.3 267.3,-12.3 		"/>
	</g>
	<g class="st1">
		<path class="st2" d="M244.7,288.4v2.9h4.2v1h-4.2v3.4h-1.2v-8.4h5.9v1H244.7z"/>
		<path class="st2" d="M251.8,295.5c-0.5-0.3-0.9-0.7-1.2-1.2c-0.3-0.5-0.4-1-0.4-1.7s0.1-1.2,0.4-1.7c0.3-0.5,0.7-0.9,1.2-1.2
			c0.5-0.3,1.1-0.4,1.7-0.4s1.2,0.1,1.7,0.4c0.5,0.3,0.9,0.7,1.2,1.2c0.3,0.5,0.4,1,0.4,1.7s-0.1,1.2-0.4,1.7
			c-0.3,0.5-0.7,0.9-1.2,1.2c-0.5,0.3-1.1,0.4-1.7,0.4S252.3,295.7,251.8,295.5z M254.6,294.6c0.3-0.2,0.6-0.5,0.8-0.8
			s0.3-0.7,0.3-1.2c0-0.4-0.1-0.8-0.3-1.2s-0.4-0.6-0.8-0.8c-0.3-0.2-0.7-0.3-1.1-0.3c-0.4,0-0.8,0.1-1.1,0.3
			c-0.3,0.2-0.6,0.4-0.8,0.8c-0.2,0.3-0.3,0.7-0.3,1.2c0,0.4,0.1,0.8,0.3,1.2c0.2,0.3,0.4,0.6,0.8,0.8c0.3,0.2,0.7,0.3,1.1,0.3
			C253.9,294.9,254.3,294.8,254.6,294.6z"/>
		<path class="st2" d="M260.4,289.7c0.4-0.2,0.9-0.3,1.4-0.3v1.1c-0.1,0-0.2,0-0.3,0c-0.6,0-1.1,0.2-1.5,0.6s-0.5,0.9-0.5,1.6v3.2
			h-1.2v-6.4h1.1v1.1C259.7,290.1,260,289.9,260.4,289.7z"/>
		<path class="st2" d="M268.9,293h-5.2c0.1,0.6,0.3,1,0.7,1.3c0.4,0.3,0.9,0.5,1.6,0.5c0.8,0,1.4-0.3,1.8-0.8l0.6,0.7
			c-0.3,0.3-0.6,0.6-1.1,0.8c-0.4,0.2-0.9,0.3-1.4,0.3c-0.7,0-1.3-0.1-1.8-0.4c-0.5-0.3-0.9-0.7-1.2-1.2c-0.3-0.5-0.4-1.1-0.4-1.7
			c0-0.6,0.1-1.2,0.4-1.7s0.7-0.9,1.1-1.2c0.5-0.3,1-0.4,1.6-0.4s1.1,0.1,1.6,0.4c0.5,0.3,0.8,0.7,1.1,1.2s0.4,1.1,0.4,1.7
			C268.9,292.7,268.9,292.9,268.9,293z M264.4,290.9c-0.4,0.3-0.6,0.8-0.7,1.3h4.1c-0.1-0.5-0.3-1-0.7-1.3c-0.4-0.3-0.8-0.5-1.4-0.5
			C265.2,290.4,264.8,290.5,264.4,290.9z"/>
		<path class="st2" d="M270.5,288c-0.1-0.1-0.2-0.3-0.2-0.5s0.1-0.4,0.2-0.5c0.1-0.1,0.3-0.2,0.6-0.2s0.4,0.1,0.6,0.2
			c0.1,0.1,0.2,0.3,0.2,0.5c0,0.2-0.1,0.4-0.2,0.5c-0.1,0.1-0.3,0.2-0.6,0.2S270.7,288.1,270.5,288z M270.5,289.4h1.2v6.4h-1.2
			V289.4z"/>
		<path class="st2" d="M279.9,289.4v5.5c0,1.1-0.3,1.9-0.8,2.5c-0.6,0.5-1.4,0.8-2.5,0.8c-0.6,0-1.2-0.1-1.7-0.2
			c-0.5-0.2-1-0.4-1.3-0.7l0.6-0.9c0.3,0.3,0.7,0.5,1.1,0.6c0.4,0.1,0.9,0.2,1.3,0.2c0.7,0,1.3-0.2,1.7-0.5c0.4-0.4,0.5-0.9,0.5-1.6
			v-0.5c-0.3,0.3-0.6,0.6-1,0.7s-0.8,0.2-1.3,0.2c-0.6,0-1.2-0.1-1.6-0.4c-0.5-0.3-0.9-0.6-1.2-1.1c-0.3-0.5-0.4-1-0.4-1.6
			c0-0.6,0.1-1.1,0.4-1.6c0.3-0.5,0.7-0.8,1.2-1.1s1-0.4,1.6-0.4c0.5,0,0.9,0.1,1.3,0.3c0.4,0.2,0.8,0.4,1,0.8v-1H279.9z
			 M277.8,294.3c0.3-0.2,0.6-0.4,0.8-0.7c0.2-0.3,0.3-0.7,0.3-1.1c0-0.6-0.2-1.1-0.6-1.5s-0.9-0.6-1.6-0.6c-0.6,0-1.2,0.2-1.6,0.6
			c-0.4,0.4-0.6,0.9-0.6,1.5c0,0.4,0.1,0.8,0.3,1.1c0.2,0.3,0.4,0.6,0.8,0.7s0.7,0.3,1.1,0.3C277.1,294.5,277.4,294.4,277.8,294.3z"
			/>
		<path class="st2" d="M287.5,290.1c0.5,0.5,0.7,1.2,0.7,2.1v3.7H287v-3.5c0-0.6-0.1-1.1-0.4-1.4c-0.3-0.3-0.7-0.5-1.3-0.5
			c-0.6,0-1.1,0.2-1.5,0.5c-0.4,0.4-0.5,0.9-0.5,1.6v3.3h-1.2v-6.4h1.1v1c0.2-0.3,0.5-0.6,0.9-0.8c0.4-0.2,0.8-0.3,1.3-0.3
			C286.3,289.4,287,289.6,287.5,290.1z"/>
		<path class="st2" d="M299.1,293.7h-4.5l-0.9,2.1h-1.2l3.8-8.4h1.2l3.8,8.4H300L299.1,293.7z M298.6,292.7l-1.8-4.1l-1.8,4.1H298.6
			z"/>
		<path class="st2" d="M302.3,288c-0.1-0.1-0.2-0.3-0.2-0.5s0.1-0.4,0.2-0.5c0.1-0.1,0.3-0.2,0.6-0.2s0.4,0.1,0.6,0.2
			c0.1,0.1,0.2,0.3,0.2,0.5c0,0.2-0.1,0.4-0.2,0.5c-0.1,0.1-0.3,0.2-0.6,0.2S302.5,288.1,302.3,288z M302.3,289.4h1.2v6.4h-1.2
			V289.4z"/>
		<path class="st2" d="M311.7,286.9v8.9h-1.1v-1c-0.3,0.4-0.6,0.6-1,0.8c-0.4,0.2-0.8,0.3-1.3,0.3c-0.6,0-1.2-0.1-1.7-0.4
			c-0.5-0.3-0.9-0.7-1.1-1.1c-0.3-0.5-0.4-1.1-0.4-1.7c0-0.6,0.1-1.2,0.4-1.7s0.7-0.9,1.1-1.1c0.5-0.3,1-0.4,1.7-0.4
			c0.5,0,0.9,0.1,1.3,0.3s0.7,0.4,1,0.8v-3.5H311.7z M309.5,294.6c0.3-0.2,0.6-0.5,0.8-0.8s0.3-0.7,0.3-1.2c0-0.4-0.1-0.8-0.3-1.2
			s-0.4-0.6-0.8-0.8c-0.3-0.2-0.7-0.3-1.1-0.3c-0.4,0-0.8,0.1-1.1,0.3c-0.3,0.2-0.6,0.4-0.8,0.8c-0.2,0.3-0.3,0.7-0.3,1.2
			c0,0.4,0.1,0.8,0.3,1.2c0.2,0.3,0.4,0.6,0.8,0.8c0.3,0.2,0.7,0.3,1.1,0.3C308.8,294.9,309.2,294.8,309.5,294.6z"/>
		<path class="st2" d="M243.5,307.6c-0.2-0.8-0.3-1.7-0.3-2.6c0-0.9,0.1-1.8,0.3-2.6c0.2-0.8,0.5-1.5,0.9-2.1h0.9
			c-0.4,0.7-0.7,1.4-0.9,2.2s-0.3,1.6-0.3,2.5s0.1,1.7,0.3,2.5s0.5,1.5,0.9,2.2h-0.9C244,309.1,243.7,308.4,243.5,307.6z"/>
		<path class="st2" d="M250.7,302.8c0.4,0.2,0.7,0.5,1,1c0.2,0.4,0.3,0.9,0.3,1.4c0,0.5-0.1,1-0.3,1.4c-0.2,0.4-0.5,0.7-1,1
			c-0.4,0.2-0.9,0.3-1.4,0.3c-0.4,0-0.8-0.1-1.1-0.2s-0.6-0.4-0.8-0.7v0.8h-0.9v-7.4h1v2.9c0.2-0.3,0.5-0.5,0.8-0.6
			c0.3-0.1,0.7-0.2,1.1-0.2C249.9,302.4,250.3,302.6,250.7,302.8z M250.2,306.8c0.3-0.2,0.5-0.4,0.6-0.7s0.2-0.6,0.2-1
			c0-0.4-0.1-0.7-0.2-1s-0.4-0.5-0.6-0.7s-0.6-0.2-0.9-0.2c-0.3,0-0.6,0.1-0.9,0.2s-0.5,0.4-0.6,0.7s-0.2,0.6-0.2,1
			c0,0.4,0.1,0.7,0.2,1s0.4,0.5,0.6,0.7c0.3,0.2,0.6,0.2,0.9,0.2C249.6,307,249.9,306.9,250.2,306.8z"/>
		<path class="st2" d="M253.4,301.3c-0.1-0.1-0.2-0.3-0.2-0.4c0-0.2,0.1-0.3,0.2-0.4c0.1-0.1,0.3-0.2,0.5-0.2c0.2,0,0.3,0.1,0.5,0.2
			c0.1,0.1,0.2,0.3,0.2,0.4c0,0.2-0.1,0.3-0.2,0.5s-0.3,0.2-0.5,0.2C253.7,301.5,253.5,301.4,253.4,301.3z M253.4,302.5h1v5.3h-1
			V302.5z"/>
		<path class="st2" d="M256.2,300.4h1v7.4h-1V300.4z"/>
		<path class="st2" d="M258.9,300.4h1v7.4h-1V300.4z"/>
		<path class="st2" d="M261.8,301.3c-0.1-0.1-0.2-0.3-0.2-0.4c0-0.2,0.1-0.3,0.2-0.4c0.1-0.1,0.3-0.2,0.5-0.2c0.2,0,0.3,0.1,0.5,0.2
			c0.1,0.1,0.2,0.3,0.2,0.4c0,0.2-0.1,0.3-0.2,0.5s-0.3,0.2-0.5,0.2C262,301.5,261.9,301.4,261.8,301.3z M261.7,302.5h1v5.3h-1
			V302.5z"/>
		<path class="st2" d="M265.4,307.5c-0.4-0.2-0.7-0.6-1-1s-0.4-0.9-0.4-1.4c0-0.5,0.1-1,0.4-1.4s0.6-0.7,1-1
			c0.4-0.2,0.9-0.3,1.4-0.3c0.5,0,1,0.1,1.4,0.3c0.4,0.2,0.7,0.5,1,1c0.2,0.4,0.4,0.9,0.4,1.4c0,0.5-0.1,1-0.4,1.4
			c-0.2,0.4-0.6,0.7-1,1c-0.4,0.2-0.9,0.3-1.4,0.3C266.3,307.9,265.8,307.7,265.4,307.5z M267.7,306.8c0.3-0.2,0.5-0.4,0.6-0.7
			s0.2-0.6,0.2-1c0-0.4-0.1-0.7-0.2-1s-0.4-0.5-0.6-0.7s-0.6-0.2-0.9-0.2c-0.3,0-0.6,0.1-0.9,0.2s-0.5,0.4-0.6,0.7s-0.2,0.6-0.2,1
			c0,0.4,0.1,0.7,0.2,1s0.4,0.5,0.6,0.7c0.3,0.2,0.6,0.2,0.9,0.2C267.1,307,267.4,306.9,267.7,306.8z"/>
		<path class="st2" d="M275.3,303c0.4,0.4,0.6,1,0.6,1.7v3h-1v-2.9c0-0.5-0.1-0.9-0.4-1.2c-0.2-0.3-0.6-0.4-1.1-0.4
			c-0.5,0-0.9,0.2-1.2,0.5c-0.3,0.3-0.4,0.7-0.4,1.3v2.7h-1v-5.3h0.9v0.8c0.2-0.3,0.5-0.5,0.8-0.6c0.3-0.1,0.7-0.2,1.1-0.2
			C274.4,302.4,274.9,302.6,275.3,303z"/>
		<path class="st2" d="M278,307.7c-0.4-0.1-0.7-0.3-0.9-0.4l0.4-0.8c0.2,0.2,0.5,0.3,0.9,0.4c0.3,0.1,0.7,0.2,1,0.2
			c0.8,0,1.3-0.2,1.3-0.7c0-0.2-0.1-0.3-0.2-0.4c-0.1-0.1-0.3-0.2-0.4-0.2c-0.2,0-0.4-0.1-0.7-0.1c-0.4-0.1-0.8-0.1-1-0.2
			c-0.3-0.1-0.5-0.2-0.7-0.4c-0.2-0.2-0.3-0.5-0.3-0.9c0-0.5,0.2-0.9,0.6-1.2c0.4-0.3,0.9-0.4,1.6-0.4c0.4,0,0.7,0,1.1,0.1
			c0.4,0.1,0.6,0.2,0.9,0.3l-0.4,0.8c-0.4-0.3-0.9-0.4-1.5-0.4c-0.4,0-0.7,0.1-0.9,0.2c-0.2,0.1-0.3,0.3-0.3,0.5
			c0,0.2,0.1,0.3,0.2,0.4c0.1,0.1,0.3,0.2,0.4,0.2s0.4,0.1,0.7,0.2c0.4,0.1,0.8,0.2,1,0.2c0.3,0.1,0.5,0.2,0.7,0.4
			c0.2,0.2,0.3,0.5,0.3,0.8c0,0.5-0.2,0.9-0.6,1.1s-1,0.4-1.7,0.4C278.8,307.9,278.4,307.8,278,307.7z"/>
		<path class="st2" d="M286.2,307.1c-0.5-0.5-0.8-1.3-0.8-2.3v-4h1v3.9c0,1.5,0.7,2.2,2,2.2c0.6,0,1.1-0.2,1.5-0.6
			c0.3-0.4,0.5-0.9,0.5-1.7v-3.9h1v4c0,1-0.3,1.8-0.8,2.3s-1.2,0.8-2.2,0.8C287.5,307.9,286.8,307.6,286.2,307.1z"/>
		<path class="st2" d="M294,307.6c-0.5-0.2-0.9-0.4-1.2-0.6l0.4-0.8c0.3,0.2,0.6,0.4,1,0.6c0.4,0.2,0.8,0.2,1.3,0.2
			c0.6,0,1-0.1,1.3-0.3c0.3-0.2,0.4-0.5,0.4-0.8c0-0.2-0.1-0.4-0.2-0.6c-0.2-0.2-0.4-0.3-0.6-0.3s-0.6-0.2-1-0.3
			c-0.5-0.1-1-0.3-1.3-0.4c-0.3-0.1-0.6-0.3-0.8-0.6c-0.2-0.3-0.3-0.6-0.3-1.1c0-0.4,0.1-0.7,0.3-1s0.5-0.5,0.9-0.7
			c0.4-0.2,0.9-0.3,1.5-0.3c0.4,0,0.8,0.1,1.2,0.2s0.7,0.3,1,0.5l-0.3,0.8c-0.3-0.2-0.6-0.3-0.9-0.4c-0.3-0.1-0.7-0.1-1-0.1
			c-0.6,0-1,0.1-1.3,0.3s-0.4,0.5-0.4,0.8c0,0.2,0.1,0.4,0.2,0.6c0.2,0.2,0.4,0.3,0.6,0.4c0.2,0.1,0.6,0.2,1,0.3
			c0.5,0.1,1,0.3,1.3,0.4c0.3,0.1,0.6,0.3,0.8,0.6s0.3,0.6,0.3,1c0,0.4-0.1,0.7-0.3,1c-0.2,0.3-0.5,0.5-0.9,0.7s-0.9,0.3-1.5,0.3
			C295,307.9,294.4,307.8,294,307.6z"/>
		<path class="st2" d="M299.6,300.8h3c0.7,0,1.4,0.1,2,0.4c0.6,0.3,1,0.7,1.3,1.2c0.3,0.5,0.5,1.1,0.5,1.8s-0.2,1.3-0.5,1.8
			c-0.3,0.5-0.8,0.9-1.3,1.2c-0.6,0.3-1.2,0.4-2,0.4h-3V300.8z M302.5,306.9c0.6,0,1.1-0.1,1.5-0.3s0.8-0.5,1-0.9
			c0.2-0.4,0.3-0.9,0.3-1.4s-0.1-1-0.3-1.4c-0.2-0.4-0.6-0.7-1-0.9s-0.9-0.3-1.5-0.3h-1.9v5.3H302.5z"/>
		<path class="st2" d="M307.3,309.7c0.4-0.7,0.7-1.4,0.9-2.2s0.3-1.6,0.3-2.5s-0.1-1.7-0.3-2.5s-0.5-1.5-0.9-2.2h0.9
			c0.4,0.6,0.7,1.3,0.9,2.1c0.2,0.8,0.3,1.7,0.3,2.6c0,0.9-0.1,1.8-0.3,2.6c-0.2,0.8-0.5,1.5-0.9,2.1H307.3z"/>
	</g>
	<path class="st0" d="M478,263.2h6.5v-250H478"/>
	<g transform="translate(0,275.5)">
		<line class="st0" x1="484" y1="-12.3" x2="478" y2="-12.3"/>
		<g class="st1">
			<path class="st2" d="M470.2-9.5c-0.4-0.3-0.8-0.7-1-1.2c-0.2-0.5-0.4-1.2-0.4-1.9s0.1-1.4,0.4-1.9c0.2-0.5,0.6-0.9,1-1.2
				c0.4-0.3,0.9-0.4,1.4-0.4s1,0.1,1.4,0.4c0.4,0.3,0.8,0.7,1,1.2c0.2,0.5,0.4,1.2,0.4,1.9s-0.1,1.4-0.4,1.9c-0.2,0.5-0.6,0.9-1,1.2
				c-0.4,0.3-0.9,0.4-1.4,0.4S470.6-9.2,470.2-9.5z M472.7-10.1c0.3-0.2,0.6-0.6,0.7-1c0.2-0.4,0.3-1,0.3-1.6s-0.1-1.1-0.3-1.6
				c-0.2-0.4-0.4-0.8-0.7-1s-0.7-0.3-1.1-0.3c-0.4,0-0.8,0.1-1.1,0.3c-0.3,0.2-0.6,0.6-0.7,1c-0.2,0.4-0.3,1-0.3,1.6
				s0.1,1.1,0.3,1.6c0.2,0.4,0.4,0.8,0.7,1c0.3,0.2,0.7,0.3,1.1,0.3C472.1-9.7,472.4-9.9,472.7-10.1z"/>
		</g>
	</g>
	<g transform="translate(0,250.5)">
		<line class="st0" x1="484" y1="-12.3" x2="478" y2="-12.3"/>
		<g class="st1">
			<path class="st2" d="M467.2-16.1v7h-0.7v-6.4h-1.7v-0.6H467.2z"/>
			<path class="st2" d="M470.2-9.5c-0.4-0.3-0.8-0.7-1-1.2c-0.2-0.5-0.4-1.2-0.4-1.9s0.1-1.4,0.4-1.9c0.2-0.5,0.6-0.9,1-1.2
				c0.4-0.3,0.9-0.4,1.4-0.4s1,0.1,1.4,0.4c0.4,0.3,0.8,0.7,1,1.2c0.2,0.5,0.4,1.2,0.4,1.9s-0.1,1.4-0.4,1.9c-0.2,0.5-0.6,0.9-1,1.2
				c-0.4,0.3-0.9,0.4-1.4,0.4S470.6-9.2,470.2-9.5z M472.7-10.1c0.3-0.2,0.6-0.6,0.7-1c0.2-0.4,0.3-1,0.3-1.6s-0.1-1.1-0.3-1.6
				c-0.2-0.4-0.4-0.8-0.7-1s-0.7-0.3-1.1-0.3c-0.4,0-0.8,0.1-1.1,0.3c-0.3,0.2-0.6,0.6-0.7,1c-0.2,0.4-0.3,1-0.3,1.6
				s0.1,1.1,0.3,1.6c0.2,0.4,0.4,0.8,0.7,1c0.3,0.2,0.7,0.3,1.1,0.3C472.1-9.7,472.4-9.9,472.7-10.1z"/>
		</g>
	</g>
	<g transform="translate(0,225.5)">
		<line class="st0" x1="484" y1="-12.3" x2="478" y2="-12.3"/>
		<g class="st1">
			<path class="st2" d="M468-9.8v0.6h-4.9v-0.5l2.9-2.9c0.4-0.4,0.6-0.7,0.7-0.9s0.2-0.5,0.2-0.8c0-0.4-0.1-0.7-0.4-1
				c-0.3-0.2-0.7-0.3-1.2-0.3c-0.8,0-1.5,0.3-1.9,0.8l-0.5-0.4c0.3-0.3,0.6-0.6,1-0.7c0.4-0.2,0.9-0.3,1.4-0.3
				c0.7,0,1.3,0.2,1.7,0.5c0.4,0.3,0.6,0.8,0.6,1.4c0,0.4-0.1,0.7-0.2,1s-0.5,0.7-0.9,1.1l-2.4,2.3H468z"/>
			<path class="st2" d="M470.2-9.5c-0.4-0.3-0.8-0.7-1-1.2c-0.2-0.5-0.4-1.2-0.4-1.9s0.1-1.4,0.4-1.9c0.2-0.5,0.6-0.9,1-1.2
				c0.4-0.3,0.9-0.4,1.4-0.4s1,0.1,1.4,0.4c0.4,0.3,0.8,0.7,1,1.2c0.2,0.5,0.4,1.2,0.4,1.9s-0.1,1.4-0.4,1.9c-0.2,0.5-0.6,0.9-1,1.2
				c-0.4,0.3-0.9,0.4-1.4,0.4S470.6-9.2,470.2-9.5z M472.7-10.1c0.3-0.2,0.6-0.6,0.7-1c0.2-0.4,0.3-1,0.3-1.6s-0.1-1.1-0.3-1.6
				c-0.2-0.4-0.4-0.8-0.7-1s-0.7-0.3-1.1-0.3c-0.4,0-0.8,0.1-1.1,0.3c-0.3,0.2-0.6,0.6-0.7,1c-0.2,0.4-0.3,1-0.3,1.6
				s0.1,1.1,0.3,1.6c0.2,0.4,0.4,0.8,0.7,1c0.3,0.2,0.7,0.3,1.1,0.3C472.1-9.7,472.4-9.9,472.7-10.1z"/>
		</g>
	</g>
	<g transform="translate(0,200.5)">
		<line class="st0" x1="484" y1="-12.3" x2="478" y2="-12.3"/>
		<g class="st1">
			<path class="st2" d="M467.3-12.5c0.4,0.4,0.6,0.8,0.6,1.4c0,0.4-0.1,0.8-0.3,1.1c-0.2,0.3-0.5,0.6-0.9,0.7s-0.8,0.3-1.4,0.3
				c-0.5,0-1-0.1-1.4-0.2c-0.4-0.2-0.8-0.4-1.1-0.7l0.4-0.6c0.2,0.2,0.5,0.4,0.9,0.6c0.4,0.2,0.8,0.2,1.2,0.2c0.6,0,1-0.1,1.3-0.4
				s0.5-0.6,0.5-1c0-0.4-0.2-0.8-0.5-1c-0.3-0.2-0.8-0.4-1.4-0.4h-0.5v-0.5l1.9-2.4h-3.6v-0.6h4.5v0.5l-2,2.5
				C466.3-13.1,466.9-12.9,467.3-12.5z"/>
			<path class="st2" d="M470.2-9.5c-0.4-0.3-0.8-0.7-1-1.2c-0.2-0.5-0.4-1.2-0.4-1.9s0.1-1.4,0.4-1.9c0.2-0.5,0.6-0.9,1-1.2
				c0.4-0.3,0.9-0.4,1.4-0.4s1,0.1,1.4,0.4c0.4,0.3,0.8,0.7,1,1.2c0.2,0.5,0.4,1.2,0.4,1.9s-0.1,1.4-0.4,1.9c-0.2,0.5-0.6,0.9-1,1.2
				c-0.4,0.3-0.9,0.4-1.4,0.4S470.6-9.2,470.2-9.5z M472.7-10.1c0.3-0.2,0.6-0.6,0.7-1c0.2-0.4,0.3-1,0.3-1.6s-0.1-1.1-0.3-1.6
				c-0.2-0.4-0.4-0.8-0.7-1s-0.7-0.3-1.1-0.3c-0.4,0-0.8,0.1-1.1,0.3c-0.3,0.2-0.6,0.6-0.7,1c-0.2,0.4-0.3,1-0.3,1.6
				s0.1,1.1,0.3,1.6c0.2,0.4,0.4,0.8,0.7,1c0.3,0.2,0.7,0.3,1.1,0.3C472.1-9.7,472.4-9.9,472.7-10.1z"/>
		</g>
	</g>
	<g transform="translate(0,175.5)">
		<line class="st0" x1="484" y1="-12.3" x2="478" y2="-12.3"/>
		<g class="st1">
			<path class="st2" d="M468.2-11h-1.4v1.8h-0.7V-11h-3.9v-0.5l3.7-4.6h0.8l-3.6,4.5h3v-1.6h0.7v1.6h1.4V-11z"/>
			<path class="st2" d="M470.2-9.5c-0.4-0.3-0.8-0.7-1-1.2c-0.2-0.5-0.4-1.2-0.4-1.9s0.1-1.4,0.4-1.9c0.2-0.5,0.6-0.9,1-1.2
				c0.4-0.3,0.9-0.4,1.4-0.4s1,0.1,1.4,0.4c0.4,0.3,0.8,0.7,1,1.2c0.2,0.5,0.4,1.2,0.4,1.9s-0.1,1.4-0.4,1.9c-0.2,0.5-0.6,0.9-1,1.2
				c-0.4,0.3-0.9,0.4-1.4,0.4S470.6-9.2,470.2-9.5z M472.7-10.1c0.3-0.2,0.6-0.6,0.7-1s0.3-1,0.3-1.6s-0.1-1.1-0.3-1.6
				c-0.2-0.4-0.4-0.8-0.7-1c-0.3-0.2-0.7-0.3-1.1-0.3s-0.8,0.1-1.1,0.3s-0.6,0.6-0.7,1c-0.2,0.4-0.3,1-0.3,1.6s0.1,1.1,0.3,1.6
				c0.2,0.4,0.4,0.8,0.7,1c0.3,0.2,0.7,0.3,1.1,0.3S472.4-9.9,472.7-10.1z"/>
		</g>
	</g>
	<g transform="translate(0,150.5)">
		<line class="st0" x1="484" y1="-12.3" x2="478" y2="-12.3"/>
		<g class="st1">
			<path class="st2" d="M467.2-12.7c0.5,0.4,0.7,0.9,0.7,1.5c0,0.4-0.1,0.8-0.3,1.1c-0.2,0.3-0.5,0.6-0.9,0.8s-0.8,0.3-1.4,0.3
				c-0.5,0-1-0.1-1.4-0.2c-0.5-0.2-0.8-0.4-1.1-0.7l0.3-0.6c0.2,0.2,0.5,0.4,0.9,0.6c0.4,0.2,0.8,0.2,1.2,0.2c0.6,0,1-0.1,1.3-0.4
				s0.5-0.6,0.5-1c0-0.5-0.2-0.8-0.5-1.1c-0.4-0.2-1-0.4-1.8-0.4h-1.5l0.4-3.5h3.8v0.6h-3.2l-0.2,2.2h0.9
				C466-13.3,466.8-13.1,467.2-12.7z"/>
			<path class="st2" d="M470.2-9.5c-0.4-0.3-0.8-0.7-1-1.2c-0.2-0.5-0.4-1.2-0.4-1.9c0-0.7,0.1-1.4,0.4-1.9c0.2-0.5,0.6-0.9,1-1.2
				c0.4-0.3,0.9-0.4,1.4-0.4s1,0.1,1.4,0.4c0.4,0.3,0.8,0.7,1,1.2c0.2,0.5,0.4,1.2,0.4,1.9c0,0.7-0.1,1.4-0.4,1.9
				c-0.2,0.5-0.6,0.9-1,1.2c-0.4,0.3-0.9,0.4-1.4,0.4S470.6-9.2,470.2-9.5z M472.7-10.1c0.3-0.2,0.6-0.6,0.7-1
				c0.2-0.4,0.3-1,0.3-1.6s-0.1-1.1-0.3-1.6c-0.2-0.4-0.4-0.8-0.7-1s-0.7-0.3-1.1-0.3c-0.4,0-0.8,0.1-1.1,0.3
				c-0.3,0.2-0.6,0.6-0.7,1c-0.2,0.4-0.3,1-0.3,1.6s0.1,1.1,0.3,1.6c0.2,0.4,0.4,0.8,0.7,1c0.3,0.2,0.7,0.3,1.1,0.3
				C472.1-9.7,472.4-9.9,472.7-10.1z"/>
		</g>
	</g>
	<g transform="translate(0,125.5)">
		<line class="st0" x1="484" y1="-12.3" x2="478" y2="-12.3"/>
		<g class="st1">
			<path class="st2" d="M466.9-13.1c0.4,0.2,0.6,0.4,0.8,0.7c0.2,0.3,0.3,0.7,0.3,1.1c0,0.4-0.1,0.8-0.3,1.1
				c-0.2,0.3-0.5,0.6-0.9,0.8s-0.8,0.3-1.2,0.3c-0.9,0-1.6-0.3-2.1-0.9c-0.5-0.6-0.7-1.5-0.7-2.6c0-0.8,0.1-1.4,0.4-2
				c0.3-0.5,0.6-0.9,1.1-1.2c0.5-0.3,1-0.4,1.7-0.4c0.7,0,1.2,0.1,1.7,0.4l-0.3,0.6c-0.3-0.2-0.8-0.3-1.4-0.3
				c-0.8,0-1.4,0.2-1.8,0.7c-0.4,0.5-0.7,1.2-0.7,2.1c0,0.2,0,0.4,0,0.6c0.2-0.4,0.5-0.7,0.8-0.9s0.8-0.3,1.3-0.3
				C466.1-13.3,466.5-13.2,466.9-13.1z M466.8-10.1c0.3-0.3,0.5-0.6,0.5-1.1s-0.2-0.8-0.5-1.1s-0.7-0.4-1.3-0.4
				c-0.4,0-0.7,0.1-0.9,0.2c-0.3,0.1-0.5,0.3-0.6,0.5s-0.2,0.5-0.2,0.8c0,0.3,0.1,0.5,0.2,0.7s0.4,0.4,0.6,0.5
				c0.3,0.1,0.6,0.2,1,0.2C466.1-9.7,466.5-9.8,466.8-10.1z"/>
			<path class="st2" d="M470.2-9.5c-0.4-0.3-0.8-0.7-1-1.2c-0.2-0.5-0.4-1.2-0.4-1.9s0.1-1.4,0.4-1.9c0.2-0.5,0.6-0.9,1-1.2
				c0.4-0.3,0.9-0.4,1.4-0.4s1,0.1,1.4,0.4c0.4,0.3,0.8,0.7,1,1.2c0.2,0.5,0.4,1.2,0.4,1.9s-0.1,1.4-0.4,1.9c-0.2,0.5-0.6,0.9-1,1.2
				c-0.4,0.3-0.9,0.4-1.4,0.4S470.6-9.2,470.2-9.5z M472.7-10.1c0.3-0.2,0.6-0.6,0.7-1s0.3-1,0.3-1.6s-0.1-1.1-0.3-1.6
				c-0.2-0.4-0.4-0.8-0.7-1c-0.3-0.2-0.7-0.3-1.1-0.3s-0.8,0.1-1.1,0.3s-0.6,0.6-0.7,1c-0.2,0.4-0.3,1-0.3,1.6s0.1,1.1,0.3,1.6
				c0.2,0.4,0.4,0.8,0.7,1c0.3,0.2,0.7,0.3,1.1,0.3S472.4-9.9,472.7-10.1z"/>
		</g>
	</g>
	<g transform="translate(0,100.5)">
		<line class="st0" x1="484" y1="-12.3" x2="478" y2="-12.3"/>
		<g class="st1">
			<path class="st2" d="M468.1-16.1v0.5l-2.9,6.5h-0.8l2.9-6.4h-3.6v1.3H463v-2H468.1z"/>
			<path class="st2" d="M470.2-9.5c-0.4-0.3-0.8-0.7-1-1.2c-0.2-0.5-0.4-1.2-0.4-1.9s0.1-1.4,0.4-1.9c0.2-0.5,0.6-0.9,1-1.2
				c0.4-0.3,0.9-0.4,1.4-0.4s1,0.1,1.4,0.4c0.4,0.3,0.8,0.7,1,1.2c0.2,0.5,0.4,1.2,0.4,1.9s-0.1,1.4-0.4,1.9c-0.2,0.5-0.6,0.9-1,1.2
				c-0.4,0.3-0.9,0.4-1.4,0.4S470.6-9.2,470.2-9.5z M472.7-10.1c0.3-0.2,0.6-0.6,0.7-1c0.2-0.4,0.3-1,0.3-1.6s-0.1-1.1-0.3-1.6
				c-0.2-0.4-0.4-0.8-0.7-1s-0.7-0.3-1.1-0.3c-0.4,0-0.8,0.1-1.1,0.3c-0.3,0.2-0.6,0.6-0.7,1c-0.2,0.4-0.3,1-0.3,1.6
				s0.1,1.1,0.3,1.6c0.2,0.4,0.4,0.8,0.7,1c0.3,0.2,0.7,0.3,1.1,0.3C472.1-9.7,472.4-9.9,472.7-10.1z"/>
		</g>
	</g>
	<g transform="translate(0,75.5)">
		<line class="st0" x1="484" y1="-12.3" x2="478" y2="-12.3"/>
		<g class="st1">
			<path class="st2" d="M467.5-12.1c0.2,0.3,0.4,0.6,0.4,1.1c0,0.4-0.1,0.8-0.3,1.1c-0.2,0.3-0.5,0.5-0.9,0.7
				c-0.4,0.2-0.9,0.2-1.4,0.2c-0.8,0-1.5-0.2-2-0.5c-0.5-0.4-0.7-0.8-0.7-1.5c0-0.4,0.1-0.8,0.3-1.1c0.2-0.3,0.6-0.5,1-0.7
				c-0.4-0.1-0.6-0.3-0.8-0.6c-0.2-0.3-0.3-0.6-0.3-0.9c0-0.6,0.2-1,0.7-1.3c0.4-0.3,1-0.5,1.8-0.5c0.5,0,0.9,0.1,1.3,0.2
				c0.4,0.2,0.7,0.4,0.9,0.6c0.2,0.3,0.3,0.6,0.3,1c0,0.4-0.1,0.7-0.3,0.9c-0.2,0.3-0.5,0.5-0.8,0.6
				C466.9-12.7,467.3-12.4,467.5-12.1z M466.6-10.1c0.3-0.3,0.5-0.6,0.5-1s-0.2-0.8-0.5-1s-0.8-0.4-1.5-0.4c-0.6,0-1.1,0.1-1.4,0.4
				c-0.3,0.2-0.5,0.6-0.5,1c0,0.4,0.2,0.8,0.5,1s0.8,0.4,1.5,0.4S466.2-9.8,466.6-10.1z M463.9-13.4c0.3,0.2,0.7,0.3,1.3,0.3
				s1-0.1,1.3-0.3c0.3-0.2,0.5-0.5,0.5-0.9c0-0.4-0.2-0.7-0.5-0.9c-0.3-0.2-0.7-0.3-1.3-0.3c-0.5,0-1,0.1-1.3,0.3
				c-0.3,0.2-0.5,0.5-0.5,0.9C463.4-13.9,463.6-13.6,463.9-13.4z"/>
			<path class="st2" d="M470.2-9.5c-0.4-0.3-0.8-0.7-1-1.2c-0.2-0.5-0.4-1.2-0.4-1.9s0.1-1.4,0.4-1.9c0.2-0.5,0.6-0.9,1-1.2
				c0.4-0.3,0.9-0.4,1.4-0.4s1,0.1,1.4,0.4c0.4,0.3,0.8,0.7,1,1.2c0.2,0.5,0.4,1.2,0.4,1.9s-0.1,1.4-0.4,1.9c-0.2,0.5-0.6,0.9-1,1.2
				c-0.4,0.3-0.9,0.4-1.4,0.4S470.6-9.2,470.2-9.5z M472.7-10.1c0.3-0.2,0.6-0.6,0.7-1c0.2-0.4,0.3-1,0.3-1.6s-0.1-1.1-0.3-1.6
				c-0.2-0.4-0.4-0.8-0.7-1s-0.7-0.3-1.1-0.3c-0.4,0-0.8,0.1-1.1,0.3c-0.3,0.2-0.6,0.6-0.7,1c-0.2,0.4-0.3,1-0.3,1.6
				s0.1,1.1,0.3,1.6c0.2,0.4,0.4,0.8,0.7,1c0.3,0.2,0.7,0.3,1.1,0.3C472.1-9.7,472.4-9.9,472.7-10.1z"/>
		</g>
	</g>
	<g transform="translate(0,50.5)">
		<line class="st0" x1="484" y1="-12.3" x2="478" y2="-12.3"/>
		<g class="st1">
			<path class="st2" d="M467.1-15.3c0.5,0.6,0.7,1.5,0.7,2.6c0,0.8-0.1,1.4-0.4,2c-0.3,0.5-0.6,0.9-1.1,1.2c-0.5,0.3-1,0.4-1.7,0.4
				c-0.7,0-1.2-0.1-1.7-0.4l0.3-0.6c0.3,0.2,0.8,0.3,1.4,0.3c0.8,0,1.4-0.2,1.8-0.7c0.4-0.5,0.7-1.2,0.7-2.1c0-0.2,0-0.4,0-0.6
				c-0.2,0.4-0.5,0.7-0.8,0.9s-0.8,0.3-1.3,0.3c-0.5,0-0.9-0.1-1.2-0.3c-0.4-0.2-0.6-0.4-0.8-0.7s-0.3-0.7-0.3-1.1
				c0-0.4,0.1-0.8,0.3-1.1c0.2-0.3,0.5-0.6,0.9-0.8c0.4-0.2,0.8-0.3,1.2-0.3C465.9-16.2,466.6-15.9,467.1-15.3z M466-12.8
				c0.3-0.1,0.5-0.3,0.6-0.5s0.2-0.5,0.2-0.8c0-0.3-0.1-0.5-0.2-0.7c-0.1-0.2-0.4-0.4-0.6-0.5c-0.3-0.1-0.6-0.2-1-0.2
				c-0.5,0-0.9,0.1-1.2,0.4c-0.3,0.3-0.5,0.6-0.5,1.1s0.2,0.8,0.5,1.1c0.3,0.3,0.7,0.4,1.3,0.4C465.4-12.6,465.7-12.6,466-12.8z"/>
			<path class="st2" d="M470.2-9.5c-0.4-0.3-0.8-0.7-1-1.2c-0.2-0.5-0.4-1.2-0.4-1.9s0.1-1.4,0.4-1.9c0.2-0.5,0.6-0.9,1-1.2
				c0.4-0.3,0.9-0.4,1.4-0.4s1,0.1,1.4,0.4c0.4,0.3,0.8,0.7,1,1.2c0.2,0.5,0.4,1.2,0.4,1.9s-0.1,1.4-0.4,1.9c-0.2,0.5-0.6,0.9-1,1.2
				c-0.4,0.3-0.9,0.4-1.4,0.4S470.6-9.2,470.2-9.5z M472.7-10.1c0.3-0.2,0.6-0.6,0.7-1s0.3-1,0.3-1.6s-0.1-1.1-0.3-1.6
				c-0.2-0.4-0.4-0.8-0.7-1c-0.3-0.2-0.7-0.3-1.1-0.3s-0.8,0.1-1.1,0.3s-0.6,0.6-0.7,1c-0.2,0.4-0.3,1-0.3,1.6s0.1,1.1,0.3,1.6
				c0.2,0.4,0.4,0.8,0.7,1c0.3,0.2,0.7,0.3,1.1,0.3S472.4-9.9,472.7-10.1z"/>
		</g>
	</g>
	<g transform="translate(0,25.5)">
		<line class="st0" x1="484" y1="-12.3" x2="478" y2="-12.3"/>
		<g class="st1">
			<path class="st2" d="M460.6-16.1v7h-0.7v-6.4h-1.7v-0.6H460.6z"/>
			<path class="st2" d="M463.6-9.5c-0.4-0.3-0.8-0.7-1-1.2c-0.2-0.5-0.4-1.2-0.4-1.9s0.1-1.4,0.4-1.9c0.2-0.5,0.6-0.9,1-1.2
				c0.4-0.3,0.9-0.4,1.4-0.4s1,0.1,1.4,0.4c0.4,0.3,0.8,0.7,1,1.2c0.2,0.5,0.4,1.2,0.4,1.9s-0.1,1.4-0.4,1.9c-0.2,0.5-0.6,0.9-1,1.2
				c-0.4,0.3-0.9,0.4-1.4,0.4S464-9.2,463.6-9.5z M466.1-10.1c0.3-0.2,0.6-0.6,0.7-1c0.2-0.4,0.3-1,0.3-1.6s-0.1-1.1-0.3-1.6
				c-0.2-0.4-0.4-0.8-0.7-1s-0.7-0.3-1.1-0.3c-0.4,0-0.8,0.1-1.1,0.3c-0.3,0.2-0.6,0.6-0.7,1c-0.2,0.4-0.3,1-0.3,1.6
				s0.1,1.1,0.3,1.6c0.2,0.4,0.4,0.8,0.7,1c0.3,0.2,0.7,0.3,1.1,0.3C465.4-9.7,465.8-9.9,466.1-10.1z"/>
			<path class="st2" d="M470.2-9.5c-0.4-0.3-0.8-0.7-1-1.2c-0.2-0.5-0.4-1.2-0.4-1.9s0.1-1.4,0.4-1.9c0.2-0.5,0.6-0.9,1-1.2
				c0.4-0.3,0.9-0.4,1.4-0.4s1,0.1,1.4,0.4c0.4,0.3,0.8,0.7,1,1.2c0.2,0.5,0.4,1.2,0.4,1.9s-0.1,1.4-0.4,1.9c-0.2,0.5-0.6,0.9-1,1.2
				c-0.4,0.3-0.9,0.4-1.4,0.4S470.6-9.2,470.2-9.5z M472.7-10.1c0.3-0.2,0.6-0.6,0.7-1c0.2-0.4,0.3-1,0.3-1.6s-0.1-1.1-0.3-1.6
				c-0.2-0.4-0.4-0.8-0.7-1s-0.7-0.3-1.1-0.3c-0.4,0-0.8,0.1-1.1,0.3c-0.3,0.2-0.6,0.6-0.7,1c-0.2,0.4-0.3,1-0.3,1.6
				s0.1,1.1,0.3,1.6c0.2,0.4,0.4,0.8,0.7,1c0.3,0.2,0.7,0.3,1.1,0.3C472.1-9.7,472.4-9.9,472.7-10.1z"/>
		</g>
	</g>
	<g pointer-events="all">
		<rect x="474" y="12.7" pointer-events="all" class="st3" width="20" height="250"/>
		<polygon shape-rendering="crispEdges" class="st4" points="484,-12.3 484,-12.3 484,-12.3 		"/>
		<polygon class="st5" points="484,-12.3 484,-12.3 484,-12.3 		"/>
		<polygon class="st5" points="484,-12.3 484,-12.3 484,-12.3 		"/>
	</g>
	<g class="st1">
		<path class="st2" d="M470.2,295.4v1h-6.1v-8.4h5.9v1h-4.7v2.6h4.2v1h-4.2v2.7H470.2z"/>
		<path class="st2" d="M472.9,296.1c-0.5-0.3-0.9-0.7-1.2-1.2s-0.4-1-0.4-1.7s0.1-1.2,0.4-1.7c0.3-0.5,0.7-0.9,1.2-1.2
			c0.5-0.3,1.1-0.4,1.7-0.4c0.6,0,1.1,0.1,1.5,0.3c0.5,0.2,0.8,0.6,1,1l-0.9,0.6c-0.2-0.3-0.4-0.5-0.7-0.7c-0.3-0.2-0.6-0.2-1-0.2
			c-0.4,0-0.8,0.1-1.1,0.3c-0.3,0.2-0.6,0.4-0.8,0.8c-0.2,0.3-0.3,0.7-0.3,1.2c0,0.4,0.1,0.8,0.3,1.2c0.2,0.3,0.4,0.6,0.8,0.8
			s0.7,0.3,1.1,0.3c0.4,0,0.7-0.1,1-0.2c0.3-0.2,0.5-0.4,0.7-0.7l0.9,0.6c-0.2,0.4-0.6,0.8-1,1c-0.5,0.2-1,0.4-1.5,0.4
			C474,296.5,473.4,296.4,472.9,296.1z"/>
		<path class="st2" d="M479.6,296.1c-0.5-0.3-0.9-0.7-1.2-1.2c-0.3-0.5-0.4-1-0.4-1.7s0.1-1.2,0.4-1.7c0.3-0.5,0.7-0.9,1.2-1.2
			c0.5-0.3,1.1-0.4,1.7-0.4s1.2,0.1,1.7,0.4c0.5,0.3,0.9,0.7,1.2,1.2c0.3,0.5,0.4,1,0.4,1.7s-0.1,1.2-0.4,1.7
			c-0.3,0.5-0.7,0.9-1.2,1.2c-0.5,0.3-1.1,0.4-1.7,0.4S480.1,296.4,479.6,296.1z M482.4,295.3c0.3-0.2,0.6-0.5,0.8-0.8
			c0.2-0.3,0.3-0.7,0.3-1.2c0-0.4-0.1-0.8-0.3-1.2c-0.2-0.3-0.4-0.6-0.8-0.8c-0.3-0.2-0.7-0.3-1.1-0.3s-0.8,0.1-1.1,0.3
			c-0.3,0.2-0.6,0.4-0.8,0.8c-0.2,0.3-0.3,0.7-0.3,1.2c0,0.4,0.1,0.8,0.3,1.2c0.2,0.3,0.4,0.6,0.8,0.8c0.3,0.2,0.7,0.3,1.1,0.3
			S482.1,295.4,482.4,295.3z"/>
		<path class="st2" d="M491.5,290.8c0.5,0.5,0.7,1.2,0.7,2.1v3.7h-1.2v-3.5c0-0.6-0.1-1.1-0.4-1.4c-0.3-0.3-0.7-0.5-1.3-0.5
			c-0.6,0-1.1,0.2-1.5,0.5s-0.5,0.9-0.5,1.6v3.3h-1.2v-6.4h1.1v1c0.2-0.3,0.5-0.6,0.9-0.8c0.4-0.2,0.8-0.3,1.3-0.3
			C490.4,290,491.1,290.3,491.5,290.8z"/>
		<path class="st2" d="M495.5,296.1c-0.5-0.3-0.9-0.7-1.2-1.2c-0.3-0.5-0.4-1-0.4-1.7s0.1-1.2,0.4-1.7c0.3-0.5,0.7-0.9,1.2-1.2
			c0.5-0.3,1.1-0.4,1.7-0.4s1.2,0.1,1.7,0.4c0.5,0.3,0.9,0.7,1.2,1.2c0.3,0.5,0.4,1,0.4,1.7s-0.1,1.2-0.4,1.7
			c-0.3,0.5-0.7,0.9-1.2,1.2c-0.5,0.3-1.1,0.4-1.7,0.4S496,296.4,495.5,296.1z M498.3,295.3c0.3-0.2,0.6-0.5,0.8-0.8
			c0.2-0.3,0.3-0.7,0.3-1.2c0-0.4-0.1-0.8-0.3-1.2c-0.2-0.3-0.4-0.6-0.8-0.8c-0.3-0.2-0.7-0.3-1.1-0.3s-0.8,0.1-1.1,0.3
			c-0.3,0.2-0.6,0.4-0.8,0.8c-0.2,0.3-0.3,0.7-0.3,1.2c0,0.4,0.1,0.8,0.3,1.2c0.2,0.3,0.4,0.6,0.8,0.8c0.3,0.2,0.7,0.3,1.1,0.3
			S497.9,295.4,498.3,295.3z"/>
		<path class="st2" d="M511.9,290.7c0.5,0.5,0.7,1.2,0.7,2.1v3.7h-1.2v-3.5c0-0.6-0.1-1.1-0.4-1.4c-0.3-0.3-0.7-0.5-1.2-0.5
			c-0.6,0-1,0.2-1.4,0.5c-0.3,0.4-0.5,0.9-0.5,1.6v3.3h-1.2v-3.5c0-0.6-0.1-1.1-0.4-1.4c-0.3-0.3-0.7-0.5-1.2-0.5
			c-0.6,0-1,0.2-1.4,0.5c-0.3,0.4-0.5,0.9-0.5,1.6v3.3h-1.2v-6.4h1.1v0.9c0.2-0.3,0.5-0.6,0.9-0.8s0.8-0.3,1.3-0.3
			c0.5,0,0.9,0.1,1.3,0.3c0.4,0.2,0.7,0.5,0.9,0.9c0.2-0.4,0.6-0.7,1-0.9c0.4-0.2,0.9-0.3,1.4-0.3
			C510.8,290,511.4,290.3,511.9,290.7z"/>
		<path class="st2" d="M514.8,288.7c-0.1-0.1-0.2-0.3-0.2-0.5s0.1-0.4,0.2-0.5c0.1-0.1,0.3-0.2,0.6-0.2c0.2,0,0.4,0.1,0.6,0.2
			c0.1,0.1,0.2,0.3,0.2,0.5c0,0.2-0.1,0.4-0.2,0.5c-0.1,0.1-0.3,0.2-0.6,0.2C515.1,288.9,514.9,288.8,514.8,288.7z M514.7,290.1h1.2
			v6.4h-1.2V290.1z"/>
		<path class="st2" d="M519.1,296.1c-0.5-0.3-0.9-0.7-1.2-1.2s-0.4-1-0.4-1.7s0.1-1.2,0.4-1.7c0.3-0.5,0.7-0.9,1.2-1.2
			c0.5-0.3,1.1-0.4,1.7-0.4c0.6,0,1.1,0.1,1.5,0.3c0.5,0.2,0.8,0.6,1.1,1l-0.9,0.6c-0.2-0.3-0.4-0.5-0.7-0.7c-0.3-0.2-0.6-0.2-1-0.2
			c-0.4,0-0.8,0.1-1.1,0.3c-0.3,0.2-0.6,0.4-0.8,0.8c-0.2,0.3-0.3,0.7-0.3,1.2c0,0.4,0.1,0.8,0.3,1.2c0.2,0.3,0.4,0.6,0.8,0.8
			s0.7,0.3,1.1,0.3c0.4,0,0.7-0.1,1-0.2c0.3-0.2,0.5-0.4,0.7-0.7l0.9,0.6c-0.2,0.4-0.6,0.8-1.1,1c-0.5,0.2-1,0.4-1.5,0.4
			C520.2,296.5,519.6,296.4,519.1,296.1z"/>
		<path class="st2" d="M465.3,303.5v2.9h4.2v1h-4.2v3.4h-1.2v-8.4h5.9v1H465.3z"/>
		<path class="st2" d="M473.4,304.7c0.4-0.2,0.9-0.3,1.4-0.3v1.1c-0.1,0-0.2,0-0.3,0c-0.6,0-1.1,0.2-1.5,0.6
			c-0.4,0.4-0.5,0.9-0.5,1.6v3.2h-1.2v-6.4h1.1v1.1C472.7,305.2,473,304.9,473.4,304.7z"/>
		<path class="st2" d="M481.9,308.1h-5.2c0.1,0.6,0.3,1,0.7,1.3c0.4,0.3,0.9,0.5,1.6,0.5c0.8,0,1.4-0.3,1.8-0.8l0.6,0.7
			c-0.3,0.3-0.6,0.6-1.1,0.8c-0.4,0.2-0.9,0.3-1.4,0.3c-0.7,0-1.3-0.1-1.8-0.4c-0.5-0.3-0.9-0.7-1.2-1.2s-0.4-1.1-0.4-1.7
			c0-0.6,0.1-1.2,0.4-1.7c0.3-0.5,0.7-0.9,1.1-1.2c0.5-0.3,1-0.4,1.6-0.4c0.6,0,1.2,0.1,1.6,0.4c0.5,0.3,0.8,0.7,1.1,1.2
			c0.3,0.5,0.4,1.1,0.4,1.7C481.9,307.8,481.9,307.9,481.9,308.1z M477.4,305.9c-0.4,0.3-0.6,0.8-0.7,1.3h4.1
			c-0.1-0.5-0.3-1-0.7-1.3c-0.4-0.3-0.8-0.5-1.4-0.5C478.2,305.4,477.8,305.6,477.4,305.9z"/>
		<path class="st2" d="M489.2,308.1h-5.2c0.1,0.6,0.3,1,0.7,1.3c0.4,0.3,0.9,0.5,1.6,0.5c0.8,0,1.4-0.3,1.8-0.8l0.6,0.7
			c-0.3,0.3-0.6,0.6-1.1,0.8c-0.4,0.2-0.9,0.3-1.4,0.3c-0.7,0-1.3-0.1-1.8-0.4c-0.5-0.3-0.9-0.7-1.2-1.2c-0.3-0.5-0.4-1.1-0.4-1.7
			c0-0.6,0.1-1.2,0.4-1.7c0.3-0.5,0.7-0.9,1.1-1.2c0.5-0.3,1-0.4,1.6-0.4c0.6,0,1.1,0.1,1.6,0.4c0.5,0.3,0.8,0.7,1.1,1.2
			c0.3,0.5,0.4,1.1,0.4,1.7C489.3,307.8,489.3,307.9,489.2,308.1z M484.7,305.9c-0.4,0.3-0.6,0.8-0.7,1.3h4.1
			c-0.1-0.5-0.3-1-0.7-1.3c-0.4-0.3-0.8-0.5-1.4-0.5S485.1,305.6,484.7,305.9z"/>
		<path class="st2" d="M496.9,302v8.9h-1.1v-1c-0.3,0.4-0.6,0.6-1,0.8c-0.4,0.2-0.8,0.3-1.3,0.3c-0.6,0-1.2-0.1-1.7-0.4
			c-0.5-0.3-0.9-0.7-1.1-1.1c-0.3-0.5-0.4-1.1-0.4-1.7c0-0.6,0.1-1.2,0.4-1.7c0.3-0.5,0.7-0.9,1.1-1.1c0.5-0.3,1-0.4,1.7-0.4
			c0.5,0,0.9,0.1,1.3,0.3s0.7,0.4,1,0.8V302H496.9z M494.7,309.7c0.3-0.2,0.6-0.5,0.8-0.8c0.2-0.3,0.3-0.7,0.3-1.2
			c0-0.4-0.1-0.8-0.3-1.2c-0.2-0.3-0.4-0.6-0.8-0.8c-0.3-0.2-0.7-0.3-1.1-0.3c-0.4,0-0.8,0.1-1.1,0.3c-0.3,0.2-0.6,0.4-0.8,0.8
			c-0.2,0.3-0.3,0.7-0.3,1.2c0,0.4,0.1,0.8,0.3,1.2c0.2,0.3,0.4,0.6,0.8,0.8c0.3,0.2,0.7,0.3,1.1,0.3
			C494,309.9,494.3,309.8,494.7,309.7z"/>
		<path class="st2" d="M500.1,310.5c-0.5-0.3-0.9-0.7-1.2-1.2s-0.4-1-0.4-1.7s0.1-1.2,0.4-1.7c0.3-0.5,0.7-0.9,1.2-1.2
			c0.5-0.3,1.1-0.4,1.7-0.4s1.2,0.1,1.7,0.4c0.5,0.3,0.9,0.7,1.2,1.2c0.3,0.5,0.4,1,0.4,1.7s-0.1,1.2-0.4,1.7s-0.7,0.9-1.2,1.2
			c-0.5,0.3-1.1,0.4-1.7,0.4S500.6,310.8,500.1,310.5z M502.9,309.7c0.3-0.2,0.6-0.5,0.8-0.8c0.2-0.3,0.3-0.7,0.3-1.2
			c0-0.4-0.1-0.8-0.3-1.2c-0.2-0.3-0.4-0.6-0.8-0.8c-0.3-0.2-0.7-0.3-1.1-0.3c-0.4,0-0.8,0.1-1.1,0.3c-0.3,0.2-0.6,0.4-0.8,0.8
			c-0.2,0.3-0.3,0.7-0.3,1.2c0,0.4,0.1,0.8,0.3,1.2c0.2,0.3,0.4,0.6,0.8,0.8c0.3,0.2,0.7,0.3,1.1,0.3
			C502.2,309.9,502.5,309.8,502.9,309.7z"/>
		<path class="st2" d="M516.5,305.1c0.5,0.5,0.7,1.2,0.7,2.1v3.7h-1.2v-3.5c0-0.6-0.1-1.1-0.4-1.4c-0.3-0.3-0.7-0.5-1.2-0.5
			c-0.6,0-1,0.2-1.4,0.5c-0.3,0.4-0.5,0.9-0.5,1.6v3.3h-1.2v-3.5c0-0.6-0.1-1.1-0.4-1.4c-0.3-0.3-0.7-0.5-1.2-0.5
			c-0.6,0-1,0.2-1.4,0.5c-0.3,0.4-0.5,0.9-0.5,1.6v3.3h-1.2v-6.4h1.1v0.9c0.2-0.3,0.5-0.6,0.9-0.8s0.8-0.3,1.3-0.3
			c0.5,0,0.9,0.1,1.3,0.3c0.4,0.2,0.7,0.5,0.9,0.9c0.2-0.4,0.6-0.7,1-0.9c0.4-0.2,0.9-0.3,1.4-0.3
			C515.4,304.4,516.1,304.7,516.5,305.1z"/>
	</g>
	<path class="st0" d="M694.6,263.2h6.5v-250h-6.5"/>
	<g transform="translate(0,275.5)">
		<line class="st0" x1="700.6" y1="-12.3" x2="694.6" y2="-12.3"/>
		<g class="st1">
			<path class="st2" d="M686.9-9.5c-0.4-0.3-0.8-0.7-1-1.2c-0.2-0.5-0.4-1.2-0.4-1.9s0.1-1.4,0.4-1.9c0.2-0.5,0.6-0.9,1-1.2
				c0.4-0.3,0.9-0.4,1.4-0.4s1,0.1,1.4,0.4c0.4,0.3,0.8,0.7,1,1.2c0.2,0.5,0.4,1.2,0.4,1.9s-0.1,1.4-0.4,1.9c-0.2,0.5-0.6,0.9-1,1.2
				c-0.4,0.3-0.9,0.4-1.4,0.4S687.3-9.2,686.9-9.5z M689.4-10.1c0.3-0.2,0.6-0.6,0.7-1c0.2-0.4,0.3-1,0.3-1.6s-0.1-1.1-0.3-1.6
				c-0.2-0.4-0.4-0.8-0.7-1c-0.3-0.2-0.7-0.3-1.1-0.3c-0.4,0-0.8,0.1-1.1,0.3c-0.3,0.2-0.6,0.6-0.7,1c-0.2,0.4-0.3,1-0.3,1.6
				s0.1,1.1,0.3,1.6c0.2,0.4,0.4,0.8,0.7,1c0.3,0.2,0.7,0.3,1.1,0.3C688.7-9.7,689.1-9.9,689.4-10.1z"/>
		</g>
	</g>
	<g transform="translate(0,250.5)">
		<line class="st0" x1="700.6" y1="-12.3" x2="694.6" y2="-12.3"/>
		<g class="st1">
			<path class="st2" d="M690.5-16.1v7h-0.7v-6.4h-1.7v-0.6H690.5z"/>
		</g>
	</g>
	<g transform="translate(0,225.5)">
		<line class="st0" x1="700.6" y1="-12.3" x2="694.6" y2="-12.3"/>
		<g class="st1">
			<path class="st2" d="M691.2-9.8v0.6h-4.9v-0.5l2.9-2.9c0.4-0.4,0.6-0.7,0.7-0.9s0.2-0.5,0.2-0.8c0-0.4-0.1-0.7-0.4-1
				c-0.3-0.2-0.7-0.3-1.2-0.3c-0.8,0-1.5,0.3-1.9,0.8l-0.5-0.4c0.3-0.3,0.6-0.6,1-0.7c0.4-0.2,0.9-0.3,1.4-0.3
				c0.7,0,1.3,0.2,1.7,0.5c0.4,0.3,0.6,0.8,0.6,1.4c0,0.4-0.1,0.7-0.2,1c-0.2,0.3-0.5,0.7-0.9,1.1l-2.4,2.3H691.2z"/>
		</g>
	</g>
	<g transform="translate(0,200.5)">
		<line class="st0" x1="700.6" y1="-12.3" x2="694.6" y2="-12.3"/>
		<g class="st1">
			<path class="st2" d="M690.6-12.5c0.4,0.4,0.6,0.8,0.6,1.4c0,0.4-0.1,0.8-0.3,1.1c-0.2,0.3-0.5,0.6-0.9,0.7s-0.8,0.3-1.4,0.3
				c-0.5,0-1-0.1-1.4-0.2c-0.5-0.2-0.8-0.4-1.1-0.7l0.3-0.6c0.2,0.2,0.5,0.4,0.9,0.6c0.4,0.2,0.8,0.2,1.2,0.2c0.6,0,1-0.1,1.3-0.4
				s0.5-0.6,0.5-1c0-0.4-0.2-0.8-0.5-1c-0.3-0.2-0.8-0.4-1.4-0.4H688v-0.5l1.9-2.4h-3.6v-0.6h4.5v0.5l-2,2.5
				C689.6-13.1,690.2-12.9,690.6-12.5z"/>
		</g>
	</g>
	<g transform="translate(0,175.5)">
		<line class="st0" x1="700.6" y1="-12.3" x2="694.6" y2="-12.3"/>
		<g class="st1">
			<path class="st2" d="M691.5-11h-1.4v1.8h-0.7V-11h-4v-0.5l3.7-4.6h0.8l-3.6,4.5h3v-1.6h0.7v1.6h1.4V-11z"/>
		</g>
	</g>
	<g transform="translate(0,150.5)">
		<line class="st0" x1="700.6" y1="-12.3" x2="694.6" y2="-12.3"/>
		<g class="st1">
			<path class="st2" d="M690.5-12.7c0.5,0.4,0.7,0.9,0.7,1.5c0,0.4-0.1,0.8-0.3,1.1c-0.2,0.3-0.5,0.6-0.9,0.8s-0.8,0.3-1.4,0.3
				c-0.5,0-1-0.1-1.4-0.2c-0.5-0.2-0.8-0.4-1.1-0.7l0.3-0.6c0.2,0.2,0.5,0.4,0.9,0.6c0.4,0.2,0.8,0.2,1.2,0.2c0.6,0,1-0.1,1.3-0.4
				c0.3-0.3,0.5-0.6,0.5-1c0-0.5-0.2-0.8-0.5-1.1c-0.4-0.2-1-0.4-1.8-0.4h-1.5l0.4-3.5h3.8v0.6h-3.2l-0.2,2.2h0.9
				C689.3-13.3,690.1-13.1,690.5-12.7z"/>
		</g>
	</g>
	<g transform="translate(0,125.5)">
		<line class="st0" x1="700.6" y1="-12.3" x2="694.6" y2="-12.3"/>
		<g class="st1">
			<path class="st2" d="M690.2-13.1c0.4,0.2,0.6,0.4,0.8,0.7c0.2,0.3,0.3,0.7,0.3,1.1c0,0.4-0.1,0.8-0.3,1.1
				c-0.2,0.3-0.5,0.6-0.9,0.8c-0.4,0.2-0.8,0.3-1.2,0.3c-0.9,0-1.6-0.3-2.1-0.9c-0.5-0.6-0.7-1.5-0.7-2.6c0-0.8,0.1-1.4,0.4-2
				s0.6-0.9,1.1-1.2c0.5-0.3,1-0.4,1.7-0.4c0.7,0,1.2,0.1,1.7,0.4l-0.3,0.6c-0.3-0.2-0.8-0.3-1.4-0.3c-0.8,0-1.4,0.2-1.8,0.7
				c-0.4,0.5-0.7,1.2-0.7,2.1c0,0.2,0,0.4,0,0.6c0.2-0.4,0.5-0.7,0.8-0.9c0.4-0.2,0.8-0.3,1.3-0.3C689.4-13.3,689.8-13.2,690.2-13.1
				z M690.1-10.1c0.3-0.3,0.5-0.6,0.5-1.1s-0.2-0.8-0.5-1.1s-0.7-0.4-1.3-0.4c-0.4,0-0.7,0.1-0.9,0.2c-0.3,0.1-0.5,0.3-0.6,0.5
				c-0.2,0.2-0.2,0.5-0.2,0.8c0,0.3,0.1,0.5,0.2,0.7s0.4,0.4,0.6,0.5c0.3,0.1,0.6,0.2,1,0.2C689.4-9.7,689.8-9.8,690.1-10.1z"/>
		</g>
	</g>
	<g transform="translate(0,100.5)">
		<line class="st0" x1="700.6" y1="-12.3" x2="694.6" y2="-12.3"/>
		<g class="st1">
			<path class="st2" d="M691.2-16.1v0.5l-2.9,6.5h-0.8l2.9-6.4h-3.6v1.3H686v-2H691.2z"/>
		</g>
	</g>
	<g transform="translate(0,75.5)">
		<line class="st0" x1="700.6" y1="-12.3" x2="694.6" y2="-12.3"/>
		<g class="st1">
			<path class="st2" d="M690.8-12.1c0.2,0.3,0.4,0.6,0.4,1.1c0,0.4-0.1,0.8-0.3,1.1c-0.2,0.3-0.5,0.5-0.9,0.7
				c-0.4,0.2-0.9,0.2-1.4,0.2c-0.8,0-1.5-0.2-2-0.5c-0.5-0.4-0.7-0.8-0.7-1.5c0-0.4,0.1-0.8,0.3-1.1s0.6-0.5,1-0.7
				c-0.4-0.1-0.6-0.3-0.8-0.6c-0.2-0.3-0.3-0.6-0.3-0.9c0-0.6,0.2-1,0.7-1.3c0.4-0.3,1-0.5,1.8-0.5c0.5,0,0.9,0.1,1.3,0.2
				c0.4,0.2,0.7,0.4,0.9,0.6c0.2,0.3,0.3,0.6,0.3,1c0,0.4-0.1,0.7-0.3,0.9c-0.2,0.3-0.5,0.5-0.8,0.6
				C690.2-12.7,690.5-12.4,690.8-12.1z M689.9-10.1c0.4-0.3,0.5-0.6,0.5-1s-0.2-0.8-0.5-1c-0.3-0.2-0.8-0.4-1.5-0.4
				c-0.6,0-1.1,0.1-1.4,0.4c-0.4,0.2-0.5,0.6-0.5,1c0,0.4,0.2,0.8,0.5,1c0.3,0.2,0.8,0.4,1.5,0.4C689-9.7,689.5-9.8,689.9-10.1z
				 M687.2-13.4c0.3,0.2,0.7,0.3,1.3,0.3c0.5,0,1-0.1,1.3-0.3s0.5-0.5,0.5-0.9c0-0.4-0.2-0.7-0.5-0.9c-0.3-0.2-0.7-0.3-1.3-0.3
				c-0.5,0-1,0.1-1.3,0.3c-0.3,0.2-0.5,0.5-0.5,0.9C686.7-13.9,686.8-13.6,687.2-13.4z"/>
		</g>
	</g>
	<g transform="translate(0,50.5)">
		<line class="st0" x1="700.6" y1="-12.3" x2="694.6" y2="-12.3"/>
		<g class="st1">
			<path class="st2" d="M690.4-15.3c0.5,0.6,0.7,1.5,0.7,2.6c0,0.8-0.1,1.4-0.4,2s-0.6,0.9-1.1,1.2c-0.5,0.3-1,0.4-1.7,0.4
				c-0.7,0-1.2-0.1-1.7-0.4l0.3-0.6c0.3,0.2,0.8,0.3,1.4,0.3c0.8,0,1.4-0.2,1.8-0.7c0.4-0.5,0.7-1.2,0.7-2.1c0-0.2,0-0.4,0-0.6
				c-0.2,0.4-0.5,0.7-0.8,0.9s-0.8,0.3-1.3,0.3c-0.5,0-0.9-0.1-1.2-0.3c-0.4-0.2-0.6-0.4-0.8-0.7c-0.2-0.3-0.3-0.7-0.3-1.1
				c0-0.4,0.1-0.8,0.3-1.1c0.2-0.3,0.5-0.6,0.9-0.8c0.4-0.2,0.8-0.3,1.2-0.3C689.2-16.2,689.9-15.9,690.4-15.3z M689.2-12.8
				c0.3-0.1,0.5-0.3,0.6-0.5s0.2-0.5,0.2-0.8c0-0.3-0.1-0.5-0.2-0.7c-0.1-0.2-0.4-0.4-0.6-0.5c-0.3-0.1-0.6-0.2-1-0.2
				c-0.5,0-0.9,0.1-1.2,0.4c-0.3,0.3-0.5,0.6-0.5,1.1s0.2,0.8,0.5,1.1c0.3,0.3,0.7,0.4,1.3,0.4C688.7-12.6,689-12.6,689.2-12.8z"/>
		</g>
	</g>
	<g transform="translate(0,25.5)">
		<line class="st0" x1="700.6" y1="-12.3" x2="694.6" y2="-12.3"/>
		<g class="st1">
			<path class="st2" d="M683.9-16.1v7h-0.7v-6.4h-1.7v-0.6H683.9z"/>
			<path class="st2" d="M686.9-9.5c-0.4-0.3-0.8-0.7-1-1.2c-0.2-0.5-0.4-1.2-0.4-1.9s0.1-1.4,0.4-1.9c0.2-0.5,0.6-0.9,1-1.2
				c0.4-0.3,0.9-0.4,1.4-0.4s1,0.1,1.4,0.4c0.4,0.3,0.8,0.7,1,1.2c0.2,0.5,0.4,1.2,0.4,1.9s-0.1,1.4-0.4,1.9c-0.2,0.5-0.6,0.9-1,1.2
				c-0.4,0.3-0.9,0.4-1.4,0.4S687.3-9.2,686.9-9.5z M689.4-10.1c0.3-0.2,0.6-0.6,0.7-1c0.2-0.4,0.3-1,0.3-1.6s-0.1-1.1-0.3-1.6
				c-0.2-0.4-0.4-0.8-0.7-1c-0.3-0.2-0.7-0.3-1.1-0.3c-0.4,0-0.8,0.1-1.1,0.3c-0.3,0.2-0.6,0.6-0.7,1c-0.2,0.4-0.3,1-0.3,1.6
				s0.1,1.1,0.3,1.6c0.2,0.4,0.4,0.8,0.7,1c0.3,0.2,0.7,0.3,1.1,0.3C688.7-9.7,689.1-9.9,689.4-10.1z"/>
		</g>
	</g>
	<g pointer-events="all">
		<rect x="690.6" y="12.7" pointer-events="all" class="st3" width="20" height="250"/>
		<polygon shape-rendering="crispEdges" class="st4" points="700.6,-12.3 700.6,-12.3 700.6,-12.3 		"/>
		<polygon class="st5" points="700.6,-12.3 700.6,-12.3 700.6,-12.3 		"/>
		<polygon class="st5" points="700.6,-12.3 700.6,-12.3 700.6,-12.3 		"/>
	</g>
	<path class="st2" d="M647.2,294.4v1h-6.1V287h5.9v1h-4.7v2.6h4.2v1h-4.2v2.7H647.2z"/>
	<path class="st2" d="M649.9,295.1c-0.5-0.3-0.9-0.7-1.2-1.2s-0.4-1-0.4-1.7s0.1-1.2,0.4-1.7c0.3-0.5,0.7-0.9,1.2-1.2
		c0.5-0.3,1.1-0.4,1.7-0.4c0.6,0,1.1,0.1,1.5,0.3c0.5,0.2,0.8,0.6,1,1l-0.9,0.6c-0.2-0.3-0.4-0.5-0.7-0.7c-0.3-0.2-0.6-0.2-1-0.2
		c-0.4,0-0.8,0.1-1.1,0.3c-0.3,0.2-0.6,0.4-0.8,0.8c-0.2,0.3-0.3,0.7-0.3,1.2c0,0.4,0.1,0.8,0.3,1.2c0.2,0.3,0.4,0.6,0.8,0.8
		s0.7,0.3,1.1,0.3c0.4,0,0.7-0.1,1-0.2c0.3-0.2,0.5-0.4,0.7-0.7l0.9,0.6c-0.2,0.4-0.6,0.8-1,1c-0.5,0.2-1,0.4-1.5,0.4
		C651,295.5,650.4,295.3,649.9,295.1z"/>
	<path class="st2" d="M656.6,295.1c-0.5-0.3-0.9-0.7-1.2-1.2c-0.3-0.5-0.4-1-0.4-1.7s0.1-1.2,0.4-1.7c0.3-0.5,0.7-0.9,1.2-1.2
		c0.5-0.3,1.1-0.4,1.7-0.4s1.2,0.1,1.7,0.4c0.5,0.3,0.9,0.7,1.2,1.2c0.3,0.5,0.4,1,0.4,1.7s-0.1,1.2-0.4,1.7
		c-0.3,0.5-0.7,0.9-1.2,1.2c-0.5,0.3-1.1,0.4-1.7,0.4S657.1,295.3,656.6,295.1z M659.4,294.2c0.3-0.2,0.6-0.5,0.8-0.8
		c0.2-0.3,0.3-0.7,0.3-1.2c0-0.4-0.1-0.8-0.3-1.2c-0.2-0.3-0.4-0.6-0.8-0.8c-0.3-0.2-0.7-0.3-1.1-0.3s-0.8,0.1-1.1,0.3
		c-0.3,0.2-0.6,0.4-0.8,0.8c-0.2,0.3-0.3,0.7-0.3,1.2c0,0.4,0.1,0.8,0.3,1.2c0.2,0.3,0.4,0.6,0.8,0.8c0.3,0.2,0.7,0.3,1.1,0.3
		S659.1,294.4,659.4,294.2z"/>
	<path class="st2" d="M668.6,289.7c0.5,0.5,0.7,1.2,0.7,2.1v3.7h-1.2v-3.5c0-0.6-0.1-1.1-0.4-1.4c-0.3-0.3-0.7-0.5-1.3-0.5
		c-0.6,0-1.1,0.2-1.5,0.5s-0.5,0.9-0.5,1.6v3.3h-1.2v-6.4h1.1v1c0.2-0.3,0.5-0.6,0.9-0.8c0.4-0.2,0.8-0.3,1.3-0.3
		C667.4,289,668.1,289.2,668.6,289.7z"/>
	<path class="st2" d="M672.5,295.1c-0.5-0.3-0.9-0.7-1.2-1.2c-0.3-0.5-0.4-1-0.4-1.7s0.1-1.2,0.4-1.7c0.3-0.5,0.7-0.9,1.2-1.2
		c0.5-0.3,1.1-0.4,1.7-0.4s1.2,0.1,1.7,0.4c0.5,0.3,0.9,0.7,1.2,1.2c0.3,0.5,0.4,1,0.4,1.7s-0.1,1.2-0.4,1.7
		c-0.3,0.5-0.7,0.9-1.2,1.2c-0.5,0.3-1.1,0.4-1.7,0.4S673,295.3,672.5,295.1z M675.3,294.2c0.3-0.2,0.6-0.5,0.8-0.8
		c0.2-0.3,0.3-0.7,0.3-1.2c0-0.4-0.1-0.8-0.3-1.2c-0.2-0.3-0.4-0.6-0.8-0.8c-0.3-0.2-0.7-0.3-1.1-0.3s-0.8,0.1-1.1,0.3
		c-0.3,0.2-0.6,0.4-0.8,0.8c-0.2,0.3-0.3,0.7-0.3,1.2c0,0.4,0.1,0.8,0.3,1.2c0.2,0.3,0.4,0.6,0.8,0.8c0.3,0.2,0.7,0.3,1.1,0.3
		S674.9,294.4,675.3,294.2z"/>
	<path class="st2" d="M688.9,289.7c0.5,0.5,0.7,1.2,0.7,2.1v3.7h-1.2v-3.5c0-0.6-0.1-1.1-0.4-1.4c-0.3-0.3-0.7-0.5-1.2-0.5
		c-0.6,0-1,0.2-1.4,0.5c-0.3,0.4-0.5,0.9-0.5,1.6v3.3h-1.2v-3.5c0-0.6-0.1-1.1-0.4-1.4c-0.3-0.3-0.7-0.5-1.2-0.5
		c-0.6,0-1,0.2-1.4,0.5c-0.3,0.4-0.5,0.9-0.5,1.6v3.3h-1.2v-6.4h1.1v0.9c0.2-0.3,0.5-0.6,0.9-0.8s0.8-0.3,1.3-0.3
		c0.5,0,0.9,0.1,1.3,0.3c0.4,0.2,0.7,0.5,0.9,0.9c0.2-0.4,0.6-0.7,1-0.9c0.4-0.2,0.9-0.3,1.4-0.3C687.8,289,688.5,289.2,688.9,289.7
		z"/>
	<path class="st2" d="M691.8,287.6c-0.1-0.1-0.2-0.3-0.2-0.5s0.1-0.4,0.2-0.5c0.1-0.1,0.3-0.2,0.6-0.2c0.2,0,0.4,0.1,0.6,0.2
		c0.1,0.1,0.2,0.3,0.2,0.5c0,0.2-0.1,0.4-0.2,0.5c-0.1,0.1-0.3,0.2-0.6,0.2C692.1,287.8,691.9,287.8,691.8,287.6z M691.7,289.1h1.2
		v6.4h-1.2V289.1z"/>
	<path class="st2" d="M696.1,295.1c-0.5-0.3-0.9-0.7-1.2-1.2s-0.4-1-0.4-1.7s0.1-1.2,0.4-1.7c0.3-0.5,0.7-0.9,1.2-1.2
		c0.5-0.3,1.1-0.4,1.7-0.4c0.6,0,1.1,0.1,1.5,0.3c0.5,0.2,0.8,0.6,1.1,1l-0.9,0.6c-0.2-0.3-0.4-0.5-0.7-0.7c-0.3-0.2-0.6-0.2-1-0.2
		c-0.4,0-0.8,0.1-1.1,0.3c-0.3,0.2-0.6,0.4-0.8,0.8c-0.2,0.3-0.3,0.7-0.3,1.2c0,0.4,0.1,0.8,0.3,1.2c0.2,0.3,0.4,0.6,0.8,0.8
		s0.7,0.3,1.1,0.3c0.4,0,0.7-0.1,1-0.2c0.3-0.2,0.5-0.4,0.7-0.7l0.9,0.6c-0.2,0.4-0.6,0.8-1.1,1c-0.5,0.2-1,0.4-1.5,0.4
		C697.2,295.5,696.6,295.3,696.1,295.1z"/>
	<path class="st2" d="M624.9,305.6h1.2v3.3c-0.4,0.3-0.9,0.6-1.5,0.8c-0.6,0.2-1.1,0.3-1.7,0.3c-0.8,0-1.6-0.2-2.3-0.6
		c-0.7-0.4-1.2-0.9-1.6-1.5s-0.6-1.4-0.6-2.2c0-0.8,0.2-1.6,0.6-2.2c0.4-0.7,0.9-1.2,1.6-1.5c0.7-0.4,1.5-0.6,2.3-0.6
		c0.7,0,1.3,0.1,1.8,0.3s1,0.5,1.4,1l-0.7,0.7c-0.7-0.6-1.5-1-2.4-1c-0.6,0-1.2,0.1-1.7,0.4c-0.5,0.3-0.9,0.7-1.2,1.2
		c-0.3,0.5-0.4,1-0.4,1.7c0,0.6,0.1,1.2,0.4,1.7s0.7,0.9,1.2,1.2c0.5,0.3,1.1,0.4,1.7,0.4c0.8,0,1.4-0.2,2-0.5V305.6z"/>
	<path class="st2" d="M630.2,303.7c0.4-0.2,0.9-0.3,1.4-0.3v1.1c-0.1,0-0.2,0-0.3,0c-0.6,0-1.1,0.2-1.5,0.6
		c-0.4,0.4-0.5,0.9-0.5,1.6v3.2h-1.2v-6.4h1.1v1.1C629.5,304.2,629.8,303.9,630.2,303.7z"/>
	<path class="st2" d="M634,309.5c-0.5-0.3-0.9-0.7-1.2-1.2c-0.3-0.5-0.4-1-0.4-1.7s0.1-1.2,0.4-1.7c0.3-0.5,0.7-0.9,1.2-1.2
		c0.5-0.3,1.1-0.4,1.7-0.4s1.2,0.1,1.7,0.4c0.5,0.3,0.9,0.7,1.2,1.2c0.3,0.5,0.4,1,0.4,1.7s-0.1,1.2-0.4,1.7
		c-0.3,0.5-0.7,0.9-1.2,1.2c-0.5,0.3-1.1,0.4-1.7,0.4S634.5,309.7,634,309.5z M636.8,308.6c0.3-0.2,0.6-0.5,0.8-0.8
		c0.2-0.3,0.3-0.7,0.3-1.2c0-0.4-0.1-0.8-0.3-1.2c-0.2-0.3-0.4-0.6-0.8-0.8c-0.3-0.2-0.7-0.3-1.1-0.3s-0.8,0.1-1.1,0.3
		c-0.3,0.2-0.6,0.4-0.8,0.8c-0.2,0.3-0.3,0.7-0.3,1.2c0,0.4,0.1,0.8,0.3,1.2c0.2,0.3,0.4,0.6,0.8,0.8c0.3,0.2,0.7,0.3,1.1,0.3
		S636.4,308.8,636.8,308.6z"/>
	<path class="st2" d="M650,303.5l-2.4,6.4h-1.1l-1.8-4.8l-1.9,4.8h-1.1l-2.4-6.4h1.1l1.8,5.1l1.9-5.1h1l1.9,5.1l1.9-5.1H650z"/>
	<path class="st2" d="M654.9,309.4c-0.2,0.1-0.4,0.3-0.6,0.3s-0.5,0.1-0.8,0.1c-0.6,0-1.1-0.2-1.5-0.5c-0.4-0.3-0.5-0.8-0.5-1.5
		v-3.5h-1.1v-0.9h1.1v-1.4h1.2v1.4h1.8v0.9h-1.8v3.4c0,0.3,0.1,0.6,0.3,0.8c0.2,0.2,0.4,0.3,0.7,0.3c0.4,0,0.7-0.1,0.9-0.3
		L654.9,309.4z"/>
	<path class="st2" d="M661.6,304.1c0.5,0.5,0.7,1.2,0.7,2.1v3.7h-1.2v-3.5c0-0.6-0.1-1.1-0.4-1.4c-0.3-0.3-0.7-0.5-1.3-0.5
		c-0.6,0-1.1,0.2-1.5,0.5c-0.4,0.4-0.5,0.9-0.5,1.6v3.3h-1.2v-8.9h1.2v3.4c0.2-0.3,0.6-0.5,0.9-0.7s0.8-0.3,1.3-0.3
		C660.5,303.4,661.2,303.6,661.6,304.1z"/>
	<path class="st2" d="M668.1,309.6c-0.2-1-0.4-2-0.4-3.1c0-1.1,0.1-2.1,0.4-3.1c0.2-1,0.6-1.8,1.1-2.5h1.1c-0.5,0.8-0.8,1.7-1.1,2.6
		c-0.2,0.9-0.3,1.9-0.3,3c0,1.1,0.1,2.1,0.3,3c0.2,0.9,0.6,1.8,1.1,2.6h-1.1C668.7,311.4,668.4,310.6,668.1,309.6z"/>
	<path class="st2" d="M677.7,305.6h1.2v3.3c-0.4,0.3-0.9,0.6-1.5,0.8c-0.6,0.2-1.1,0.3-1.7,0.3c-0.8,0-1.6-0.2-2.3-0.6
		c-0.7-0.4-1.2-0.9-1.6-1.5s-0.6-1.4-0.6-2.2c0-0.8,0.2-1.6,0.6-2.2c0.4-0.7,0.9-1.2,1.6-1.5c0.7-0.4,1.5-0.6,2.3-0.6
		c0.7,0,1.3,0.1,1.8,0.3s1,0.5,1.4,1l-0.7,0.7c-0.7-0.6-1.5-1-2.4-1c-0.6,0-1.2,0.1-1.7,0.4c-0.5,0.3-0.9,0.7-1.2,1.2
		c-0.3,0.5-0.4,1-0.4,1.7c0,0.6,0.1,1.2,0.4,1.7s0.7,0.9,1.2,1.2c0.5,0.3,1.1,0.4,1.7,0.4c0.8,0,1.4-0.2,2-0.5V305.6z"/>
	<path class="st2" d="M681.2,301.4h3.5c0.9,0,1.7,0.2,2.4,0.5c0.7,0.4,1.2,0.8,1.6,1.5c0.4,0.6,0.6,1.4,0.6,2.2
		c0,0.8-0.2,1.6-0.6,2.2c-0.4,0.6-0.9,1.1-1.6,1.5c-0.7,0.4-1.5,0.5-2.4,0.5h-3.5V301.4z M684.7,308.8c0.7,0,1.3-0.1,1.8-0.4
		c0.5-0.3,0.9-0.6,1.2-1.1c0.3-0.5,0.4-1,0.4-1.7s-0.1-1.2-0.4-1.6c-0.3-0.5-0.7-0.8-1.2-1.1c-0.5-0.3-1.1-0.4-1.8-0.4h-2.3v6.3
		H684.7z"/>
	<path class="st2" d="M696.9,302.2c0.6,0.5,0.9,1.2,0.9,2.1s-0.3,1.6-0.9,2.1c-0.6,0.5-1.5,0.8-2.6,0.8h-2.1v2.5h-1.2v-8.4h3.3
		C695.5,301.4,696.3,301.7,696.9,302.2z M696.1,305.7c0.4-0.3,0.6-0.8,0.6-1.4c0-0.6-0.2-1.1-0.6-1.4s-1-0.5-1.7-0.5h-2v3.8h2
		C695.1,306.2,695.7,306.1,696.1,305.7z"/>
	<path class="st2" d="M698.8,312.1c0.5-0.8,0.8-1.7,1.1-2.6c0.2-0.9,0.3-1.9,0.3-3c0-1.1-0.1-2.1-0.3-3c-0.2-0.9-0.6-1.8-1.1-2.6
		h1.1c0.5,0.7,0.8,1.6,1.1,2.5s0.4,2,0.4,3.1c0,1.1-0.1,2.1-0.4,3.1s-0.6,1.8-1.1,2.5H698.8z"/>
</g>
<g id="paths">
	<g>
		<path class="st6" d="M50.6,141l216.7,57.6L484,114.2l216.7-13.8"/>
		<path class="st6" d="M267.3,193.2l216.7-79l216.7-19"/>
		<path class="st6" d="M50.6,121.2l216.7,75L484,113.9l216.7-23.2"/>
		<path class="st6" d="M50.6,111.9l216.7,75.2L484,113.7l216.7-28"/>
		<path class="st6" d="M50.6,101.8l216.7,80.4L484,111.9l216.7-31.5"/>
		<path class="st6" d="M50.6,91.4l216.7,98.2l216.7-78l216.7-37"/>
		<path class="st6" d="M50.6,81.3l216.7,102.3L484,110.9l216.7-41.5"/>
		<path class="st6" d="M50.6,68.6l216.7,112.1L484,110.4l216.7-47.5"/>
		<path class="st6" d="M50.6,56.2l216.7,123.5L484,109.9l216.7-53.5"/>
		<path class="st6" d="M50.6,47.1l216.7,134.5l216.7-71l216.7-59.8"/>
		<path class="st6" d="M50.6,69.4l216.7,96.3l216.7-57l216.7-50.8"/>
	</g>
</g>
</svg>
