<?xml version="1.0" encoding="UTF-8"?><svg id="Layer_1" xmlns="http://www.w3.org/2000/svg" viewBox="0 0 305.74 38.47"><defs><style>.cls-1{fill:#f04e23;}</style></defs><path class="cls-1" d="M.45,.84H29.38V10.17H14.81v3.89h12.13v9.18H14.81v4.56h14.57v9.33H.45V.84Z"/><path class="cls-1" d="M32.76,37.13V.84h17.73c12.13,0,17.94,7.1,17.94,18.1v.1c0,10.99-5.81,18.1-17.94,18.1h-17.73Zm20.69-18.2c0-7.47-1.19-9.28-5.03-9.28h-1.3V28.32h1.3c3.84,0,5.03-1.81,5.03-9.28v-.1Z"/><path class="cls-1" d="M88.24,28.21c1.87,0,2.85-1.24,2.85-4.2V.84h13.84V22.1c0,10.32-6.12,15.81-16.9,15.81s-16.96-5.5-16.96-15.81V.84h14.31V24.02c0,2.96,1.04,4.2,2.85,4.2Z"/><path class="cls-1" d="M126.04,.06c10.99,0,15.87,5.7,16.85,14.41l-13.07,1.04c-.42-4.93-1.3-6.53-3.53-6.53-2.54,0-3.68,1.71-3.68,9.96v.1c0,8.09,1.09,9.96,3.68,9.96,2.12,0,3.21-1.14,3.63-6.79l13.17,1.04c-.83,10.11-6.9,14.67-17.06,14.67-11.77,0-18.41-7.36-18.41-18.87v-.1C107.63,7.42,114.32,.06,126.04,.06Z"/><path class="cls-1" d="M165.13,31.64h-8.97l-1.3,5.5h-12.24L152.85,.84h17.99l10.21,36.29h-14.62l-1.3-5.5Zm-4.46-19.29l-2.49,10.63h4.93l-2.44-10.63Z"/><path class="cls-1" d="M202.21,11.16v25.98h-14.47V11.16h-8.81V.84h32.09V11.16h-8.81Z"/><path class="cls-1" d="M214.14,.84h14.36V37.13h-14.36V.84Z"/><path class="cls-1" d="M231.61,19.04v-.1C231.61,7.01,238.71,.06,249.96,.06s18.35,6.95,18.35,18.87v.1c0,11.93-7.1,18.87-18.35,18.87s-18.35-6.95-18.35-18.87Zm21.72,0v-.1c0-7.98-1.14-9.96-3.37-9.96s-3.37,1.97-3.37,9.96v.1c0,7.98,1.14,9.96,3.37,9.96s3.37-1.97,3.37-9.96Z"/><path class="cls-1" d="M271.22,37.13V.84h12.5l9.33,13.95V.84h12.13V37.13h-11.98l-9.8-14.62v14.62h-12.18Z"/></svg>