<?xml version="1.0" encoding="UTF-8"?><svg id="Layer_1" xmlns="http://www.w3.org/2000/svg" viewBox="0 0 210.72 37.07"><defs><style>.cls-1{fill:#f04e23;}</style></defs><path class="cls-1" d="M0,.78H28.93V10.11H14.36v3.89h12.13v9.18H14.36v4.56h14.57v9.33H0V.78Z"/><path class="cls-1" d="M32.3,37.07V.78h12.5l9.33,13.95V.78h12.13V37.07h-11.98l-9.8-14.62v14.62h-12.18Z"/><path class="cls-1" d="M70.05,.78h28.93V10.11h-14.57v3.89h12.13v9.18h-12.13v4.56h14.57v9.33h-28.93V.78Z"/><path class="cls-1" d="M118.32,25.2h-1.61v11.87h-14.36V.78h19.13c11.15,0,15.76,4.67,15.76,12.13,0,4.25-1.97,7.31-6.27,9.38l7.26,14.78h-14.98l-4.93-11.87Zm-1.61-8.66h2.02c2.59,0,3.58-1.04,3.58-3.63s-.99-3.63-3.58-3.63h-2.02v7.26Z"/><path class="cls-1" d="M163.23,32.61c-1.5,3.53-4.67,5.24-9.28,5.24-8.45,0-15.04-5.81-15.04-18.87v-.1c0-11.35,6.48-18.87,18.56-18.87,10.58,0,15.66,4.2,16.59,11.67l-12.65,1.14c-.26-2.64-1.56-3.89-3.53-3.89-2.9,0-3.99,1.71-3.99,9.96v.1c0,8.5,1.04,10.27,3.94,10.27,1.87,0,3.27-1.45,3.27-4.04v-.83h-4.41V15.87h17.58v21.21h-10.37l-.67-4.46Z"/><path class="cls-1" d="M184.85,37.07v-11.41L173.34,.78h14.83l5.08,11.87,5.03-11.87h12.44l-11.56,24.89v11.41h-14.31Z"/></svg>