<?xml version="1.0" encoding="UTF-8"?><svg id="Layer_1" xmlns="http://www.w3.org/2000/svg" viewBox="0 0 204.15 36.39"><defs><style>.cls-1{fill:#f04e23;}</style></defs><path class="cls-1" d="M.08,.09H14.45V12.59h5.65V.09h14.31V36.39h-14.31v-12.6h-5.65v12.6H.08V.09Z"/><path class="cls-1" d="M38.19,.09h28.93V9.42h-14.57v3.89h12.13v9.18h-12.13v4.56h14.57v9.33h-28.93V.09Z"/><path class="cls-1" d="M91.34,30.89h-8.97l-1.3,5.5h-12.24L79.05,.09h17.99l10.21,36.29h-14.62l-1.3-5.5Zm-4.46-19.29l-2.49,10.63h4.93l-2.44-10.63Z"/><path class="cls-1" d="M109.33,.09h14.36V26.02h13.74v10.37h-28.1V.09Z"/><path class="cls-1" d="M157.92,10.41v25.98h-14.47V10.41h-8.81V.09h32.09V10.41h-8.81Z"/><path class="cls-1" d="M169.64,.09h14.36V12.59h5.65V.09h14.31V36.39h-14.31v-12.6h-5.65v12.6h-14.36V.09Z"/></svg>