<?xml version="1.0" encoding="UTF-8"?><svg id="Layer_1" xmlns="http://www.w3.org/2000/svg" viewBox="0 0 357.63 45.48"><defs><style>.cls-1{fill:#f04e23;}</style></defs><path class="cls-1" d="M.34,1.18H14.7V27.11h13.74v10.37H.34V1.18Z"/><path class="cls-1" d="M31.91,1.18h14.36V37.48h-14.36V1.18Z"/><path class="cls-1" d="M50.22,1.18h28.78V10.51h-14.41v5.81h12.29v9.18h-12.29v11.98h-14.36V1.18Z"/><path class="cls-1" d="M81.69,1.18h28.93V10.51h-14.57v3.89h12.13v9.18h-12.13v4.56h14.57v9.33h-28.93V1.18Z"/><path class="cls-1" d="M144.12,38.62l-.16-.47c-.67,.05-1.4,.1-2.13,.1-11.25,0-18.35-6.95-18.35-18.87v-.1c0-11.93,7.1-18.87,18.35-18.87s18.35,6.95,18.35,18.87v.1c0,7.31-2.7,12.75-7.36,15.87,.83,.78,1.81,1.04,3.53,1.04,.57,0,1.71-.05,2.18-.1v8.81c-.78,.1-2.28,.21-3.06,.21-6.9,0-9.9-1.87-11.36-6.58Zm-2.28-29.3c-2.23,0-3.37,1.97-3.37,9.96v.1c0,7.99,1.14,9.96,3.37,9.96s3.37-1.97,3.37-9.96v-.1c0-7.99-1.14-9.96-3.37-9.96Z"/><path class="cls-1" d="M180.05,28.56c1.87,0,2.85-1.24,2.85-4.2V1.18h13.84V22.44c0,10.32-6.12,15.81-16.9,15.81s-16.96-5.5-16.96-15.81V1.18h14.31V24.36c0,2.96,1.04,4.2,2.85,4.2Z"/><path class="cls-1" d="M219.51,31.98h-8.97l-1.3,5.5h-12.24L207.22,1.18h17.99l10.21,36.29h-14.62l-1.3-5.5Zm-4.46-19.29l-2.49,10.63h4.93l-2.44-10.63Z"/><path class="cls-1" d="M237.5,1.18h14.36V27.11h13.74v10.37h-28.1V1.18Z"/><path class="cls-1" d="M269.08,1.18h14.36V37.48h-14.36V1.18Z"/><path class="cls-1" d="M309.84,11.5v25.98h-14.47V11.5h-8.81V1.18h32.09V11.5h-8.81Z"/><path class="cls-1" d="M331.56,37.48v-11.41l-11.51-24.89h14.83l5.08,11.87,5.03-11.87h12.44l-11.56,24.89v11.41h-14.31Z"/></svg>