<?xml version="1.0" encoding="UTF-8"?><svg id="Layer_1" xmlns="http://www.w3.org/2000/svg" viewBox="0 0 74.84 521.1"><defs><style>.cls-1{fill:#940955;}.cls-2{fill:#b7204a;}.cls-3{fill:#333;}.cls-4{fill:#d13e25;}.cls-5{fill:#d12924;}.cls-6{fill:#d1732f;}.cls-7{fill:#d1622e;}.cls-8{fill:#d18b2f;}.cls-9{fill:#d14f2a;}.cls-10{fill:#e29633;}.cls-11{fill:#700745;}.cls-12{fill:#a51743;}</style></defs><g id="paths"><g><path class="cls-3" d="M1.46,22.81v-3.2l6.34-5.82c3.89-3.6,4.74-5.13,4.74-7.03s-1.31-3.3-3.3-3.3-3.66,1.31-4.38,4.87l-3.92-.59C1.86,3.26,4.6,.55,9.28,.55c4.94,0,7.55,2.75,7.55,6.34,0,2.88-1.08,4.74-6.38,9.19l-4.15,3.5h10.53v3.24H1.46Z"/><path class="cls-3" d="M37.73,12.02c0,7.1-3.7,11.28-9.32,11.28s-9.29-4.19-9.29-11.28v-.2c0-7.1,3.66-11.28,9.29-11.28s9.32,4.19,9.32,11.28c0,0,0,.2,0,.2Zm-4.32,0v-.2c0-5.79-2.06-8.37-5-8.37s-4.97,2.58-4.97,8.37v.2c0,5.79,2.03,8.37,4.97,8.37s5-2.58,5-8.37Z"/><path class="cls-3" d="M40.21,19.83h4.61V5.02c-1.21,.69-3.2,1.44-4.61,1.73V3.68c1.96-.62,3.5-1.37,5.53-2.65h3.27V19.83h4.51v2.98h-13.31s0-2.98,0-2.98Z"/><path class="cls-3" d="M74.15,12.02c0,7.1-3.7,11.28-9.32,11.28s-9.29-4.19-9.29-11.28v-.2c0-7.1,3.66-11.28,9.29-11.28s9.32,4.19,9.32,11.28c0,0,0,.2,0,.2Zm-4.32,0v-.2c0-5.79-2.06-8.37-5-8.37s-4.97,2.58-4.97,8.37v.2c0,5.79,2.03,8.37,4.97,8.37s5-2.58,5-8.37Z"/></g><g><path class="cls-3" d="M1.42,520.06v-3.09l6.12-5.62c3.76-3.47,4.58-4.96,4.58-6.79,0-1.93-1.26-3.19-3.19-3.19s-3.54,1.26-4.23,4.7l-3.79-.57c.88-4.32,3.54-6.95,8.05-6.95,4.77,0,7.29,2.65,7.29,6.12,0,2.78-1.04,4.58-6.16,8.87l-4.01,3.38h10.17v3.13H1.42Z"/><path class="cls-3" d="M36.43,509.64c0,6.85-3.57,10.89-9,10.89s-8.97-4.04-8.97-10.89v-.19c0-6.85,3.54-10.89,8.97-10.89s9,4.04,9,10.89v.19Zm-4.17,0v-.19c0-5.59-1.99-8.08-4.83-8.08s-4.8,2.49-4.8,8.08v.19c0,5.59,1.96,8.08,4.8,8.08s4.83-2.49,4.83-8.08Z"/><path class="cls-3" d="M38.61,520.06v-3.09l6.12-5.62c3.76-3.47,4.58-4.96,4.58-6.79,0-1.93-1.26-3.19-3.19-3.19s-3.54,1.26-4.23,4.7l-3.79-.57c.88-4.32,3.54-6.95,8.05-6.95,4.77,0,7.29,2.65,7.29,6.12,0,2.78-1.04,4.58-6.16,8.87l-4.01,3.38h10.17v3.13h-14.83Z"/><path class="cls-3" d="M73.63,509.64c0,6.85-3.57,10.89-9,10.89s-8.97-4.04-8.97-10.89v-.19c0-6.85,3.54-10.89,8.97-10.89s9,4.04,9,10.89v.19Zm-4.17,0v-.19c0-5.59-1.99-8.08-4.83-8.08s-4.8,2.49-4.8,8.08v.19c0,5.59,1.96,8.08,4.8,8.08s4.83-2.49,4.83-8.08Z"/></g></g><g id="palette"><g><rect id="_2010" class="cls-10" x="1.32" y="32" width="72.16" height="41.55"/><rect id="_2011" class="cls-8" x="1.32" y="73.55" width="72.16" height="41.55"/><rect id="_2012" class="cls-6" x="1.31" y="115.11" width="72.16" height="41.55"/><rect id="_2013" class="cls-7" x="1.32" y="156.66" width="72.16" height="41.55"/><rect id="_2014" class="cls-9" x="1.32" y="198.21" width="72.16" height="41.55"/><rect id="_2015" class="cls-4" x="1.32" y="239.76" width="72.16" height="41.55"/><rect id="_2016" class="cls-5" x="1.32" y="281.32" width="72.16" height="41.55"/><rect id="_2017" class="cls-2" x="1.32" y="322.87" width="72.16" height="41.55"/><rect id="_2018" class="cls-12" x="1.32" y="364.42" width="72.16" height="41.55"/><rect id="_2019" class="cls-1" x="1.31" y="405.97" width="72.16" height="41.55"/><rect id="_2020" class="cls-11" x="1.32" y="447.53" width="72.16" height="41.55"/></g></g></svg>