<?xml version="1.0" encoding="UTF-8"?><svg id="paths" xmlns="http://www.w3.org/2000/svg" viewBox="0 0 887.92 56.88"><defs><style>.cls-1{fill:#666;}</style></defs><path class="cls-1" d="M36.31,27.56l-4.18,26.94H9.02L.23,1.53H19.89l3.6,30.5L28.46,1.53h18.43l4.97,30.5L55.46,1.53h16.99l-8.79,52.98h-23.19l-4.18-26.94Z"/><path class="cls-1" d="M75.69,1.53h19.95V19.77h7.85V1.53h19.87V54.51h-19.87v-18.39h-7.85v18.39h-19.95V1.53Z"/><path class="cls-1" d="M157.56,46.48h-12.46l-1.8,8.02h-16.99L140.49,1.53h24.99l14.19,52.98h-20.31l-1.8-8.02Zm-6.19-28.16l-3.46,15.52h6.84l-3.38-15.52Z"/><path class="cls-1" d="M209.04,16.59V54.51h-20.09V16.59h-12.24V1.53h44.57v15.06h-12.24Z"/><path class="cls-1" d="M237.54,52.16l3.6-13.7c1.94,.83,4.32,1.29,6.05,1.29,3.38,0,4.82-1.36,4.82-4.84V1.53h19.87V33.69c0,14.23-5.4,21.34-18.87,21.34-5.11,0-10.73-1.06-15.48-2.88Z"/><path class="cls-1" d="M300.4,41.49c2.59,0,3.96-1.82,3.96-6.13V1.53h19.23v31.03c0,15.06-8.5,23.08-23.47,23.08s-23.55-8.02-23.55-23.08V1.53h19.87V35.36c0,4.31,1.44,6.13,3.96,6.13Z"/><path class="cls-1" d="M326.1,48.15l6.77-12.26c5.98,4.31,11.67,6.36,16.06,6.36,2.66,0,3.82-.98,3.82-2.42,0-1.36-.86-2.2-4.1-2.88l-5.62-1.21c-10.3-2.2-15.19-7.34-15.19-16.88,0-10.82,8.42-18.47,23.69-18.47,7.06,0,14.26,1.97,20.81,6.05l-6.62,11.96c-5.04-3.41-9.87-5.07-13.97-5.07-2.95,0-4.03,.83-4.03,2.12,0,1.14,.79,1.82,3.38,2.35l5.62,1.14c12.39,2.5,16.99,8.55,16.99,17.56,0,11.28-8.21,19.15-23.04,19.15-9.43,0-18.72-2.95-24.55-7.49Z"/><path class="cls-1" d="M407.18,16.59V54.51h-20.09V16.59h-12.24V1.53h44.57v15.06h-12.24Z"/><path class="cls-1" d="M437.77,1.53h19.95V19.77h7.85V1.53h19.87V54.51h-19.87v-18.39h-7.85v18.39h-19.95V1.53Z"/><path class="cls-1" d="M519.64,46.48h-12.46l-1.8,8.02h-16.99L502.57,1.53h24.99l14.19,52.98h-20.31l-1.8-8.02Zm-6.19-28.16l-3.46,15.52h6.84l-3.38-15.52Z"/><path class="cls-1" d="M564.57,39.45v15.06h-19.95V1.53h27.36c13.54,0,21.31,6.81,21.31,19s-7.78,18.92-21.31,18.92h-7.42Zm0-12.64h2.95c3.46,0,4.97-1.66,4.97-6.28s-1.51-6.36-4.97-6.36h-2.95v12.64Z"/><path class="cls-1" d="M616.48,39.45v15.06h-19.95V1.53h27.36c13.54,0,21.31,6.81,21.31,19s-7.78,18.92-21.31,18.92h-7.42Zm0-12.64h2.95c3.46,0,4.97-1.66,4.97-6.28s-1.51-6.36-4.97-6.36h-2.95v12.64Z"/><path class="cls-1" d="M648.44,1.53h40.18V15.15h-20.23v5.68h16.85v13.4h-16.85v6.66h20.23v13.62h-40.18V1.53Z"/><path class="cls-1" d="M693.3,54.51V1.53h17.35l12.96,20.36V1.53h16.85V54.51h-16.63l-13.61-21.34v21.34h-16.92Z"/><path class="cls-1" d="M745.71,1.53h40.18V15.15h-20.23v5.68h16.85v13.4h-16.85v6.66h20.23v13.62h-40.18V1.53Z"/><path class="cls-1" d="M790.57,54.51V1.53h24.63c16.85,0,24.91,10.37,24.91,26.41v.15c0,16.05-8.07,26.41-24.91,26.41h-24.63Zm28.73-26.57c0-10.9-1.66-13.55-6.98-13.55h-1.8v27.25h1.8c5.33,0,6.98-2.65,6.98-13.55v-.15Z"/><path class="cls-1" d="M854.22,22.49h7.42c4.32,0,5.98-1.51,5.98-5.07,0-3.03-1.15-4.47-3.46-4.47-1.94,0-3.46,1.44-3.96,5.3l-17.93-1.51c1.22-9.54,7.85-16.35,22.68-16.35s22.47,7.19,22.47,16.95c0,8.48-5.04,13.55-15.91,15.36v3.1h-17.28v-13.32Zm17.28,16.27v15.74h-17.28v-15.74h17.28Z"/></svg>