<?xml version="1.0" encoding="utf-8"?>
<!-- Generator: Adobe Illustrator 26.5.0, SVG Export Plug-In . SVG Version: 6.00 Build 0)  -->
<svg version="1.1" id="paths" xmlns="http://www.w3.org/2000/svg" xmlns:xlink="http://www.w3.org/1999/xlink" x="0px" y="0px"
	 viewBox="0 0 67.6 256.1" style="enable-background:new 0 0 67.6 256.1;" xml:space="preserve">
<style type="text/css">
	.st0{fill:#e9e9e9;}
</style>
<path class="st0" d="M67.6,233.9H45.7L0.1,256.1v-20l28.6-12.8L0.1,210.4v-17.1l45.6,22.1h21.9V233.9z"/>
<path class="st0" d="M0.1,187v-48.9h13.1v30.4h13.3v-26h13v26h15v-30.4h13.1V187H0.1z"/>
<path class="st0" d="M53.5,89.7v22.4l14.1,4.1v16.7L0.1,111.1V88.2l67.5-21.8v19.3L53.5,89.7L53.5,89.7z M15.1,100.9l25.7,7.4V93.4
	C40.8,93.4,15.1,100.9,15.1,100.9z"/>
<path class="st0" d="M42.8,33.7V42h24.8v18.5H0.1V30.2C0.1,12,8.9,3.9,21.6,3.9c8.6,0,14.2,4.3,17.5,12.9L67.6,1.1v20L42.8,33.7
	L42.8,33.7z M30.5,42v-8.9c0-6.9-3-9.8-9.1-9.8s-9,2.9-9,9.8V42H30.5L30.5,42z"/>
</svg>
