<?xml version="1.0" encoding="UTF-8"?><svg id="paths" xmlns="http://www.w3.org/2000/svg" viewBox="0 0 75.97 16.79"><defs><style>.cls-1{fill:#999;}</style></defs><path class="cls-1" d="M5.69,16.44v-5.22L.4,.34H5.16l3.06,6.83L11.3,.34h4.07l-5.27,10.88v5.22H5.69Z"/><path class="cls-1" d="M16.87,.34h11.66V3.47h-7.24v3.17h6.21v3.1h-6.21v3.56h7.24v3.13h-11.66V.34Z"/><path class="cls-1" d="M40.08,13.08h-5.33l-.97,3.36h-3.98L35,.34h5.45l5.2,16.1h-4.6l-.97-3.36Zm-2.67-9.15l-1.77,6.12h3.56l-1.79-6.12Z"/><path class="cls-1" d="M53.44,10.53h-1.98v5.91h-4.42V.34h7.22c4.35,0,6.28,2.09,6.28,5.13,0,2.05-1.04,3.38-3.08,4.19l3.75,6.78h-4.76l-3.01-5.91Zm-1.98-2.94h2.12c1.66,0,2.35-.71,2.35-2.16s-.69-2.14-2.35-2.14h-2.12V7.59Z"/><path class="cls-1" d="M61.31,12.97l2.99-2.18c1.29,2,2.67,2.83,4.28,2.83,1.36,0,2.21-.62,2.21-1.54,0-.85-.58-1.36-2.16-1.72l-1.84-.41c-3.04-.69-4.55-2.23-4.55-4.85,0-2.76,2.21-5.08,6.58-5.08,2.83,0,5.29,1.2,6.62,3.1l-2.94,2.16c-1.27-1.61-2.39-2.18-3.68-2.18s-2.02,.51-2.02,1.38c0,.71,.48,1.2,1.75,1.47l1.84,.39c3.77,.8,5.17,2.64,5.17,5.17,0,2.99-2.62,5.29-6.97,5.29-3.4,0-6.05-1.4-7.27-3.82Z"/></svg>