<?xml version="1.0" encoding="UTF-8"?><svg xmlns="http://www.w3.org/2000/svg" viewBox="0 0 74.84 568.42"><defs><style>.cls-1{fill:#999;}.cls-2{fill:#940955;}.cls-3{fill:#b7204a;}.cls-4{fill:#333;}.cls-5{fill:#d13e25;}.cls-6{fill:#d12924;}.cls-7{fill:#d1732f;}.cls-8{fill:#d1622e;}.cls-9{fill:#d18b2f;}.cls-10{fill:#d14f2a;}.cls-11{fill:#e29633;}.cls-12{fill:#700745;}.cls-13{fill:#a51743;}</style></defs><g id="paths"><g><path class="cls-1" d="M6.12,15.95v-5L1.06,.54H5.61l2.93,6.54L11.49,.54h3.9l-5.04,10.42v5H6.12Z"/><path class="cls-1" d="M16.82,.54h11.16V3.53h-6.94v3.04h5.95v2.97h-5.95v3.41h6.94v2.99h-11.16V.54Z"/><path class="cls-1" d="M39.04,12.73h-5.11l-.92,3.21h-3.81L34.17,.54h5.22l4.98,15.41h-4.4l-.92-3.21Zm-2.55-8.76l-1.7,5.86h3.41l-1.72-5.86Z"/><path class="cls-1" d="M51.83,10.29h-1.89v5.66h-4.23V.54h6.91c4.16,0,6.01,2,6.01,4.91,0,1.96-.99,3.24-2.95,4.01l3.59,6.5h-4.56l-2.88-5.66Zm-1.89-2.82h2.03c1.59,0,2.25-.68,2.25-2.07s-.66-2.05-2.25-2.05h-2.03V7.47Z"/><path class="cls-1" d="M59.36,12.62l2.86-2.09c1.23,1.92,2.55,2.71,4.1,2.71,1.3,0,2.11-.59,2.11-1.48,0-.81-.55-1.3-2.07-1.65l-1.76-.4c-2.91-.66-4.36-2.14-4.36-4.65,0-2.64,2.11-4.87,6.3-4.87,2.71,0,5.06,1.15,6.34,2.97l-2.82,2.07c-1.21-1.54-2.29-2.09-3.52-2.09s-1.94,.48-1.94,1.32c0,.68,.46,1.15,1.67,1.41l1.76,.37c3.61,.77,4.95,2.53,4.95,4.95,0,2.86-2.51,5.06-6.67,5.06-3.26,0-5.79-1.34-6.96-3.65Z"/></g><g><path class="cls-4" d="M1.46,70.13v-3.2l6.34-5.82c3.89-3.6,4.74-5.13,4.74-7.03,0-1.99-1.31-3.3-3.3-3.3s-3.66,1.31-4.38,4.87l-3.92-.59c.92-4.48,3.66-7.19,8.34-7.19,4.94,0,7.55,2.75,7.55,6.34,0,2.88-1.08,4.74-6.38,9.19l-4.15,3.5h10.53v3.24H1.46Z"/><path class="cls-4" d="M37.73,59.34c0,7.1-3.7,11.28-9.32,11.28s-9.29-4.19-9.29-11.28v-.2c0-7.1,3.66-11.28,9.29-11.28s9.32,4.19,9.32,11.28v.2Zm-4.32,0v-.2c0-5.79-2.06-8.37-5-8.37s-4.97,2.58-4.97,8.37v.2c0,5.79,2.03,8.37,4.97,8.37s5-2.58,5-8.37Z"/><path class="cls-4" d="M40.21,67.15h4.61v-14.81c-1.21,.69-3.2,1.44-4.61,1.73v-3.07c1.96-.62,3.5-1.37,5.53-2.65h3.27v18.8h4.51v2.98h-13.31v-2.98Z"/><path class="cls-4" d="M74.15,59.34c0,7.1-3.7,11.28-9.32,11.28s-9.29-4.19-9.29-11.28v-.2c0-7.1,3.66-11.28,9.29-11.28s9.32,4.19,9.32,11.28v.2Zm-4.32,0v-.2c0-5.79-2.06-8.37-5-8.37s-4.97,2.58-4.97,8.37v.2c0,5.79,2.03,8.37,4.97,8.37s5-2.58,5-8.37Z"/></g><g><path class="cls-4" d="M1.42,567.38v-3.09l6.12-5.62c3.76-3.47,4.58-4.96,4.58-6.79,0-1.93-1.26-3.19-3.19-3.19s-3.54,1.26-4.23,4.7l-3.79-.57c.88-4.32,3.54-6.95,8.05-6.95,4.77,0,7.29,2.65,7.29,6.12,0,2.78-1.04,4.58-6.16,8.87l-4.01,3.38h10.17v3.13H1.42Z"/><path class="cls-4" d="M36.43,556.96c0,6.85-3.57,10.89-9,10.89s-8.97-4.04-8.97-10.89v-.19c0-6.85,3.54-10.89,8.97-10.89s9,4.04,9,10.89v.19Zm-4.17,0v-.19c0-5.59-1.99-8.08-4.83-8.08s-4.8,2.49-4.8,8.08v.19c0,5.59,1.96,8.08,4.8,8.08s4.83-2.49,4.83-8.08Z"/><path class="cls-4" d="M38.61,567.38v-3.09l6.12-5.62c3.76-3.47,4.58-4.96,4.58-6.79,0-1.93-1.26-3.19-3.19-3.19s-3.54,1.26-4.23,4.7l-3.79-.57c.88-4.32,3.54-6.95,8.05-6.95,4.77,0,7.29,2.65,7.29,6.12,0,2.78-1.04,4.58-6.16,8.87l-4.01,3.38h10.17v3.13h-14.84Z"/><path class="cls-4" d="M73.63,556.96c0,6.85-3.57,10.89-9,10.89s-8.97-4.04-8.97-10.89v-.19c0-6.85,3.54-10.89,8.97-10.89s9,4.04,9,10.89v.19Zm-4.17,0v-.19c0-5.59-1.99-8.08-4.83-8.08s-4.8,2.49-4.8,8.08v.19c0,5.59,1.96,8.08,4.8,8.08s4.83-2.49,4.83-8.08Z"/></g></g><g id="palette"><g><rect id="_2010" class="cls-11" x="16.62" y="64.02" width="41.55" height="72.16" transform="translate(137.5 62.7) rotate(90)"/><rect id="_2011" class="cls-9" x="16.62" y="105.57" width="41.55" height="72.16" transform="translate(179.05 104.25) rotate(90)"/><rect id="_2012" class="cls-7" x="16.62" y="147.13" width="41.55" height="72.16" transform="translate(220.6 145.81) rotate(90)"/><rect id="_2013" class="cls-8" x="16.62" y="188.68" width="41.55" height="72.16" transform="translate(262.16 187.36) rotate(90)"/><rect id="_2014" class="cls-10" x="16.62" y="230.23" width="41.55" height="72.16" transform="translate(303.71 228.91) rotate(90)"/><rect id="_2015" class="cls-5" x="16.62" y="271.78" width="41.55" height="72.16" transform="translate(345.26 270.46) rotate(90)"/><rect id="_2016" class="cls-6" x="16.62" y="313.34" width="41.55" height="72.16" transform="translate(386.82 312.02) rotate(90)"/><rect id="_2017" class="cls-3" x="16.62" y="354.89" width="41.55" height="72.16" transform="translate(428.37 353.57) rotate(90)"/><rect id="_2018" class="cls-13" x="16.62" y="396.44" width="41.55" height="72.16" transform="translate(469.92 395.12) rotate(90)"/><rect id="_2019" class="cls-2" x="16.62" y="438" width="41.55" height="72.16" transform="translate(511.47 436.67) rotate(90)"/><rect id="_2020" class="cls-12" x="16.62" y="479.55" width="41.55" height="72.16" transform="translate(553.03 478.23) rotate(90)"/></g></g></svg>